solid CATIA STL
  facet normal  -0.000000e+000  0.000000e+000 -1.000000e+000
    outer loop
      vertex  0.000000e+000  3.000000e+002 -5.000000e+000
      vertex  4.000000e+002  3.000000e+002 -5.000000e+000
      vertex  0.000000e+000  0.000000e+000 -5.000000e+000
    endloop
  endfacet
  facet normal  0.000000e+000  0.000000e+000 -1.000000e+000
    outer loop
      vertex  0.000000e+000  0.000000e+000 -5.000000e+000
      vertex  4.000000e+002  3.000000e+002 -5.000000e+000
      vertex  4.000000e+002  0.000000e+000 -5.000000e+000
    endloop
  endfacet
  facet normal  0.000000e+000  0.000000e+000  1.000000e+000
    outer loop
      vertex  0.000000e+000  3.000000e+002  0.000000e+000
      vertex  0.000000e+000  0.000000e+000  0.000000e+000
      vertex  4.000000e+002  3.000000e+002  0.000000e+000
    endloop
  endfacet
  facet normal  0.000000e+000  0.000000e+000  1.000000e+000
    outer loop
      vertex  4.000000e+002  3.000000e+002  0.000000e+000
      vertex  0.000000e+000  0.000000e+000  0.000000e+000
      vertex  4.000000e+002  0.000000e+000  0.000000e+000
    endloop
  endfacet
  facet normal  0.000000e+000 -1.000000e+000  -0.000000e+000
    outer loop
      vertex  4.000000e+002  0.000000e+000 -5.000000e+000
      vertex  4.000000e+002  0.000000e+000  0.000000e+000
      vertex  0.000000e+000  0.000000e+000 -5.000000e+000
    endloop
  endfacet
  facet normal  0.000000e+000 -1.000000e+000  0.000000e+000
    outer loop
      vertex  0.000000e+000  0.000000e+000 -5.000000e+000
      vertex  4.000000e+002  0.000000e+000  0.000000e+000
      vertex  0.000000e+000  0.000000e+000  0.000000e+000
    endloop
  endfacet
  facet normal  1.000000e+000  0.000000e+000  0.000000e+000
    outer loop
      vertex  4.000000e+002  3.000000e+002 -5.000000e+000
      vertex  4.000000e+002  3.000000e+002  0.000000e+000
      vertex  4.000000e+002  0.000000e+000 -5.000000e+000
    endloop
  endfacet
  facet normal  1.000000e+000  0.000000e+000  0.000000e+000
    outer loop
      vertex  4.000000e+002  0.000000e+000 -5.000000e+000
      vertex  4.000000e+002  3.000000e+002  0.000000e+000
      vertex  4.000000e+002  0.000000e+000  0.000000e+000
    endloop
  endfacet
  facet normal  0.000000e+000  1.000000e+000  0.000000e+000
    outer loop
      vertex  0.000000e+000  3.000000e+002 -5.000000e+000
      vertex  0.000000e+000  3.000000e+002  0.000000e+000
      vertex  4.000000e+002  3.000000e+002 -5.000000e+000
    endloop
  endfacet
  facet normal  0.000000e+000  1.000000e+000  -0.000000e+000
    outer loop
      vertex  4.000000e+002  3.000000e+002 -5.000000e+000
      vertex  0.000000e+000  3.000000e+002  0.000000e+000
      vertex  4.000000e+002  3.000000e+002  0.000000e+000
    endloop
  endfacet
  facet normal -1.000000e+000  0.000000e+000  0.000000e+000
    outer loop
      vertex  0.000000e+000  0.000000e+000 -5.000000e+000
      vertex  0.000000e+000  0.000000e+000  0.000000e+000
      vertex  0.000000e+000  3.000000e+002 -5.000000e+000
    endloop
  endfacet
  facet normal -1.000000e+000  0.000000e+000  0.000000e+000
    outer loop
      vertex  0.000000e+000  3.000000e+002 -5.000000e+000
      vertex  0.000000e+000  0.000000e+000  0.000000e+000
      vertex  0.000000e+000  3.000000e+002  0.000000e+000
    endloop
  endfacet
  facet normal -1.000000e+000  0.000000e+000  0.000000e+000
    outer loop
      vertex  3.810000e+002  1.850000e+001 -5.684342e-014
      vertex  3.810000e+002  1.850000e+001  1.940000e+002
      vertex  3.810000e+002  2.815000e+002  0.000000e+000
    endloop
  endfacet
  facet normal -1.000000e+000  0.000000e+000  0.000000e+000
    outer loop
      vertex  3.810000e+002  2.815000e+002  0.000000e+000
      vertex  3.810000e+002  1.850000e+001  1.940000e+002
      vertex  3.810000e+002  2.815000e+002  1.940000e+002
    endloop
  endfacet
  facet normal  0.000000e+000  1.000000e+000  0.000000e+000
    outer loop
      vertex  3.810000e+002  1.850000e+001 -5.684342e-014
      vertex  1.900000e+001  1.850000e+001 -8.526513e-014
      vertex  3.810000e+002  1.850000e+001  1.940000e+002
    endloop
  endfacet
  facet normal  0.000000e+000  1.000000e+000  0.000000e+000
    outer loop
      vertex  3.810000e+002  1.850000e+001  1.940000e+002
      vertex  1.900000e+001  1.850000e+001 -8.526513e-014
      vertex  1.900000e+001  1.850000e+001  1.940000e+002
    endloop
  endfacet
  facet normal  1.000000e+000  0.000000e+000  0.000000e+000
    outer loop
      vertex  1.900000e+001  2.815000e+002  0.000000e+000
      vertex  1.900000e+001  2.815000e+002  1.940000e+002
      vertex  1.900000e+001  1.850000e+001 -8.526513e-014
    endloop
  endfacet
  facet normal  1.000000e+000  0.000000e+000  0.000000e+000
    outer loop
      vertex  1.900000e+001  1.850000e+001 -8.526513e-014
      vertex  1.900000e+001  2.815000e+002  1.940000e+002
      vertex  1.900000e+001  1.850000e+001  1.940000e+002
    endloop
  endfacet
  facet normal  0.000000e+000 -1.000000e+000  0.000000e+000
    outer loop
      vertex  1.900000e+001  2.815000e+002  0.000000e+000
      vertex  3.810000e+002  2.815000e+002  0.000000e+000
      vertex  1.900000e+001  2.815000e+002  1.940000e+002
    endloop
  endfacet
  facet normal  0.000000e+000 -1.000000e+000  0.000000e+000
    outer loop
      vertex  1.900000e+001  2.815000e+002  1.940000e+002
      vertex  3.810000e+002  2.815000e+002  0.000000e+000
      vertex  3.810000e+002  2.815000e+002  1.940000e+002
    endloop
  endfacet
  facet normal -4.487639e-015  0.000000e+000 -1.000000e+000
    outer loop
      vertex  5.400125e-013  3.000000e+002  0.000000e+000
      vertex  1.900000e+001  1.850000e+001 -8.526513e-014
      vertex  0.000000e+000  0.000000e+000  0.000000e+000
    endloop
  endfacet
  facet normal  7.851301e-017 -4.689561e-015 -1.000000e+000
    outer loop
      vertex  0.000000e+000  0.000000e+000  0.000000e+000
      vertex  1.900000e+001  1.850000e+001 -8.526513e-014
      vertex  3.810000e+002  1.850000e+001 -5.684342e-014
    endloop
  endfacet
  facet normal  0.000000e+000 -3.072617e-015 -1.000000e+000
    outer loop
      vertex  0.000000e+000  0.000000e+000  0.000000e+000
      vertex  3.810000e+002  1.850000e+001 -5.684342e-014
      vertex  4.000000e+002  0.000000e+000  0.000000e+000
    endloop
  endfacet
  facet normal  3.156704e-016  3.242020e-016 -1.000000e+000
    outer loop
      vertex  1.900000e+001  1.850000e+001 -8.526513e-014
      vertex  5.400125e-013  3.000000e+002  0.000000e+000
      vertex  1.900000e+001  2.815000e+002  0.000000e+000
    endloop
  endfacet
  facet normal  0.000000e+000  0.000000e+000 -1.000000e+000
    outer loop
      vertex  1.900000e+001  2.815000e+002  0.000000e+000
      vertex  5.400125e-013  3.000000e+002  0.000000e+000
      vertex  4.000000e+002  3.000000e+002  0.000000e+000
    endloop
  endfacet
  facet normal  0.000000e+000  0.000000e+000 -1.000000e+000
    outer loop
      vertex  1.900000e+001  2.815000e+002  0.000000e+000
      vertex  4.000000e+002  3.000000e+002  0.000000e+000
      vertex  3.810000e+002  2.815000e+002  0.000000e+000
    endloop
  endfacet
  facet normal  0.000000e+000  0.000000e+000 -1.000000e+000
    outer loop
      vertex  3.810000e+002  2.815000e+002  0.000000e+000
      vertex  4.000000e+002  3.000000e+002  0.000000e+000
      vertex  4.000000e+002  0.000000e+000  0.000000e+000
    endloop
  endfacet
  facet normal  3.202206e-015  2.161347e-016 -1.000000e+000
    outer loop
      vertex  3.810000e+002  2.815000e+002  0.000000e+000
      vertex  4.000000e+002  0.000000e+000  0.000000e+000
      vertex  3.810000e+002  1.850000e+001 -5.684342e-014
    endloop
  endfacet
  facet normal  0.000000e+000  0.000000e+000  1.000000e+000
    outer loop
      vertex  4.000000e+002  0.000000e+000  1.940000e+002
      vertex  3.810000e+002  1.850000e+001  1.940000e+002
      vertex  0.000000e+000  0.000000e+000  1.940000e+002
    endloop
  endfacet
  facet normal  0.000000e+000  0.000000e+000  1.000000e+000
    outer loop
      vertex  0.000000e+000  0.000000e+000  1.940000e+002
      vertex  3.810000e+002  1.850000e+001  1.940000e+002
      vertex  1.900000e+001  1.850000e+001  1.940000e+002
    endloop
  endfacet
  facet normal  0.000000e+000  0.000000e+000  1.000000e+000
    outer loop
      vertex  0.000000e+000  0.000000e+000  1.940000e+002
      vertex  1.900000e+001  1.850000e+001  1.940000e+002
      vertex  5.400125e-013  3.000000e+002  1.940000e+002
    endloop
  endfacet
  facet normal  0.000000e+000  0.000000e+000  1.000000e+000
    outer loop
      vertex  5.400125e-013  3.000000e+002  1.940000e+002
      vertex  1.900000e+001  1.850000e+001  1.940000e+002
      vertex  1.900000e+001  2.815000e+002  1.940000e+002
    endloop
  endfacet
  facet normal  0.000000e+000  -0.000000e+000  1.000000e+000
    outer loop
      vertex  5.400125e-013  3.000000e+002  1.940000e+002
      vertex  1.900000e+001  2.815000e+002  1.940000e+002
      vertex  4.000000e+002  3.000000e+002  1.940000e+002
    endloop
  endfacet
  facet normal  0.000000e+000  0.000000e+000  1.000000e+000
    outer loop
      vertex  4.000000e+002  3.000000e+002  1.940000e+002
      vertex  1.900000e+001  2.815000e+002  1.940000e+002
      vertex  3.810000e+002  2.815000e+002  1.940000e+002
    endloop
  endfacet
  facet normal  -0.000000e+000  0.000000e+000  1.000000e+000
    outer loop
      vertex  4.000000e+002  3.000000e+002  1.940000e+002
      vertex  3.810000e+002  2.815000e+002  1.940000e+002
      vertex  4.000000e+002  0.000000e+000  1.940000e+002
    endloop
  endfacet
  facet normal  0.000000e+000  0.000000e+000  1.000000e+000
    outer loop
      vertex  4.000000e+002  0.000000e+000  1.940000e+002
      vertex  3.810000e+002  2.815000e+002  1.940000e+002
      vertex  3.810000e+002  1.850000e+001  1.940000e+002
    endloop
  endfacet
  facet normal -1.000000e+000  1.800042e-015  0.000000e+000
    outer loop
      vertex  5.400125e-013  3.000000e+002  1.940000e+002
      vertex  5.400125e-013  3.000000e+002  0.000000e+000
      vertex  0.000000e+000  0.000000e+000  1.940000e+002
    endloop
  endfacet
  facet normal -1.000000e+000  1.800042e-015  0.000000e+000
    outer loop
      vertex  0.000000e+000  0.000000e+000  1.940000e+002
      vertex  5.400125e-013  3.000000e+002  0.000000e+000
      vertex  0.000000e+000  0.000000e+000  0.000000e+000
    endloop
  endfacet
  facet normal  0.000000e+000  1.000000e+000  -0.000000e+000
    outer loop
      vertex  4.000000e+002  3.000000e+002  1.940000e+002
      vertex  4.000000e+002  3.000000e+002  0.000000e+000
      vertex  5.400125e-013  3.000000e+002  1.940000e+002
    endloop
  endfacet
  facet normal  0.000000e+000  1.000000e+000  0.000000e+000
    outer loop
      vertex  5.400125e-013  3.000000e+002  1.940000e+002
      vertex  4.000000e+002  3.000000e+002  0.000000e+000
      vertex  5.400125e-013  3.000000e+002  0.000000e+000
    endloop
  endfacet
  facet normal  1.000000e+000  0.000000e+000  0.000000e+000
    outer loop
      vertex  4.000000e+002  0.000000e+000  1.940000e+002
      vertex  4.000000e+002  0.000000e+000  0.000000e+000
      vertex  4.000000e+002  3.000000e+002  1.940000e+002
    endloop
  endfacet
  facet normal  1.000000e+000  0.000000e+000  0.000000e+000
    outer loop
      vertex  4.000000e+002  3.000000e+002  1.940000e+002
      vertex  4.000000e+002  0.000000e+000  0.000000e+000
      vertex  4.000000e+002  3.000000e+002  0.000000e+000
    endloop
  endfacet
  facet normal  0.000000e+000 -1.000000e+000  0.000000e+000
    outer loop
      vertex  0.000000e+000  0.000000e+000  1.940000e+002
      vertex  0.000000e+000  0.000000e+000  0.000000e+000
      vertex  4.000000e+002  0.000000e+000  1.940000e+002
    endloop
  endfacet
  facet normal  0.000000e+000 -1.000000e+000  -0.000000e+000
    outer loop
      vertex  4.000000e+002  0.000000e+000  1.940000e+002
      vertex  0.000000e+000  0.000000e+000  0.000000e+000
      vertex  4.000000e+002  0.000000e+000  0.000000e+000
    endloop
  endfacet
endsolid CATIA STL
