ply
format ascii 1.0
comment PCL generated
element vertex 818
property float x
property float y
property float z
element face 1632
property list uchar int vertex_indices
end_header
0.0041527 -0.033014 -0.073454 
-0.017149 -0.032228 -0.06908 
0.005451 -0.033127 -0.07175 
-0.015339 0.010489 -0.01841 
0.010458 0.0069785 -0.042604 
-0.018412 -0.011743 0.081324 
0.011306 0.0060144 -0.045529 
-0.014255 0.0055488 0.046345 
0.0062122 -0.030663 -0.075529 
0.0022325 -0.015349 -0.085148 
0.0041527 -0.033014 0.073454 
-0.017149 -0.032228 0.06908 
0.005451 -0.033127 0.07175 
0.0064854 -0.032913 0.073698 
-0.020397 -0.026333 -0.071524 
-0.020643 -0.023598 -0.071504 
0.0063752 -0.011397 -0.083287 
0.0068631 -0.0053464 -0.073593 
0.0036284 -0.014191 -0.085543 
-0.014511 0.011922 -0.013608 
-0.016499 0.0057932 -0.043044 
-0.013995 0.0064443 -0.043457 
-0.013765 0.0072364 -0.040714 
-0.016271 0.0065777 -0.040327 
-0.015736 0.0077089 -0.037893 
0.0045772 -0.012141 0.084314 
-0.01368 0.011153 -0.021348 
-0.013945 0.01145 -0.018797 
-0.013527 0.010469 -0.025955 
-0.01378 0.010809 -0.023652 
0.0096287 -0.0036198 0.069817 
-0.016426 0.0053365 0.046075 
-0.016271 0.0065777 0.040327 
-0.016499 0.0057932 0.043044 
-0.018031 -0.0078307 0.076088 
-0.018416 -0.0098552 0.079142 
0.0058138 -0.0087774 0.079597 
-0.021062 -0.011447 0.078751 
-0.020518 -0.0099763 0.078688 
-0.020626 -0.011994 0.080741 
-0.016623 -0.0026121 0.066561 
-0.016119 -0.00086285 0.062881 
0.0074576 -0.0033268 0.069651 
-0.017172 -0.0045432 0.070332 
0.0068631 -0.0053464 0.073593 
-0.018278 -0.0010376 0.062513 
-0.017823 0.00053128 0.058965 
-0.014584 0.011671 -0.016156 
0.0095587 -0.027009 -0.069554 
0.0083163 -0.0094865 -0.079608 
0.010165 -0.0017854 -0.065957 
0.008473 0.00015461 -0.062066 
0.0096287 -0.0036198 -0.069817 
-0.013995 0.0064443 0.043457 
-0.016331 0.0020378 0.055703 
-0.017046 0.003205 0.052247 
-0.014549 0.0045393 0.049379 
0.007992 -0.0014967 0.0658 
0.011094 0.0091657 0.033755 
0.0064854 -0.032913 -0.073698 
0.0063403 -0.031895 -0.074689 
0.015004 0.0087168 -0.011418 
0.014836 -0.010979 0.016279 
0.01473 -0.01125 0.019109 
0.0077058 -0.032534 -0.073453 
0.0072711 -0.026984 -0.077329 
0.0071785 -0.024888 -0.07865 
0.0054205 -0.020062 -0.082547 
0.0041408 -0.015591 -0.085325 
0.0056684 -0.027644 -0.077581 
-0.02017 -0.030414 0.066848 
-0.020142 -0.030618 -0.068837 
-0.02017 -0.030414 -0.066848 
-0.02034 -0.028918 -0.069034 
-0.020722 -0.019102 0.076422 
-0.021018 -0.016398 -0.076373 
0.0063141 -0.01655 -0.08417 
0.0056177 -0.015637 -0.085312 
0.0059328 -0.014235 -0.085556 
-0.017172 -0.0045432 -0.070332 
0.0045772 -0.012141 -0.084314 
0.0058138 -0.0087774 -0.079597 
0.0089049 0.0016391 -0.058461 
0.007992 -0.0014967 -0.0658 
0.0074576 -0.0033268 -0.069651 
-0.015601 0.0088824 -0.030872 
-0.015041 0.010099 -0.027044 
-0.015737 0.0084137 -0.033029 
-0.015558 0.0083202 -0.035452 
-0.015339 0.010489 0.01841 
-0.013561 0.0079351 0.038115 
-0.013765 0.0072364 0.040714 
0.010858 0.0083531 0.037316 
0.010671 0.0077096 0.039885 
0.010458 0.0069785 0.042604 
-0.015558 0.0083202 0.035452 
-0.013088 0.0095632 0.031168 
-0.013225 0.00909 0.033346 
-0.015736 0.0077089 0.037893 
-0.015737 0.0084137 0.033029 
-0.013382 0.00855 0.03566 
-0.015601 0.0088824 0.030872 
-0.019323 -0.0046964 0.069921 
-0.020478 -0.0083434 0.075371 
0.014977 -0.0090328 0.011944 
0.010858 0.0083531 -0.037316 
0.010671 0.0077096 -0.039885 
-0.013561 0.0079351 -0.038115 
-0.013382 0.00855 -0.03566 
-0.013225 0.00909 -0.033346 
-0.013088 0.0095632 -0.031168 
0.011094 0.0091657 -0.033755 
0.014879 -0.011245 -0.013794 
0.014977 -0.0090328 -0.011944 
0.01473 -0.01125 -0.019109 
0.014836 -0.010979 -0.016279 
0.010541 -0.025981 -0.063279 
0.01106 -0.023366 -0.060322 
0.011426 0.00092617 -0.058469 
0.011468 0.0026909 -0.055125 
0.011814 0.0038809 -0.051795 
-0.014879 0.0034048 0.052554 
-0.015661 0.0007153 0.059312 
0.013343 0.0065242 0.039779 
0.011306 0.0060144 0.045529 
0.014856 -0.0061914 0.016255 
0.011918 0.011998 -0.015871 
-0.012402 0.01192 -0.016251 
-0.012329 0.012173 -0.013688 
0.011974 0.01219 -0.013823 
0.014654 -0.011129 0.021004 
0.014879 -0.011245 0.013794 
0.011931 -0.021275 0.053358 
0.014583 0.00093054 0.023621 
0.014567 0.0087671 0.023675 
0.014366 0.011033 0.018223 
0.013962 0.0086555 0.030393 
0.014435 0.0085279 0.026385 
0.01368 0.010296 0.026648 
0.011499 0.010556 0.026584 
0.011402 0.010225 0.028466 
0.011292 0.0098466 0.030474 
0.013038 0.0080879 0.037405 
0.013616 0.0084538 0.033759 
0.014269 0.010699 0.020917 
0.014072 0.0090332 0.02839 
0.0036284 -0.014191 0.085543 
0.0070152 -0.01928 -0.082005 
0.0094932 -0.02556 -0.070392 
-0.020184 -0.028411 -0.070834 
-0.019357 -0.031612 -0.069217 
-0.018834 -0.013988 -0.081772 
-0.016874 -0.014358 -0.082095 
0.0037805 -0.025969 -0.078441 
0.0037999 -0.01874 -0.083237 
0.0048353 -0.027534 -0.077589 
0.0037621 -0.01686 -0.084473 
0.0047421 -0.020024 -0.082539 
-0.016328 -0.031024 -0.071148 
-0.020788 -0.020992 0.074129 
-0.020643 -0.023598 0.071504 
-0.020788 -0.020992 -0.074129 
-0.021018 -0.016398 0.076373 
-0.02034 -0.028918 0.069034 
-0.021098 -0.014073 0.078995 
-0.020397 -0.026333 0.071524 
-0.020565 -0.013948 0.080842 
-0.018031 -0.0078307 -0.076088 
-0.018416 -0.0098552 -0.079142 
-0.018412 -0.011743 -0.081324 
-0.014549 0.0045393 -0.049379 
0.0092918 0.0029689 -0.054994 
0.0096371 0.0041561 -0.051671 
0.0099444 0.0052125 -0.048497 
-0.014255 0.0055488 -0.046345 
-0.016426 0.0053365 -0.046075 
-0.014879 0.0034048 -0.052554 
-0.016623 -0.0026121 -0.066561 
-0.015041 0.010099 0.027044 
0.011619 0.01097 0.023999 
-0.013945 0.01145 0.018797 
-0.01368 0.011153 0.021348 
-0.012967 0.0099773 0.029122 
-0.013527 0.010469 0.025955 
-0.01378 0.010809 0.023652 
-0.014584 0.011671 0.016156 
0.014876 0.0088724 -0.016217 
0.014947 0.0061481 -0.013801 
0.014986 0.0086548 -0.012235 
0.014947 0.0085894 -0.01378 
0.014878 0.0014728 0.015981 
0.01486 -0.0087217 0.015964 
0.015011 -0.0087187 0.010507 
0.015013 -0.0037591 0.010612 
0.011292 0.0098466 -0.030474 
0.014781 0.0084125 -0.01914 
0.014688 0.0036586 -0.021405 
0.013891 0.0010045 -0.035754 
0.013972 -0.0087322 -0.033407 
0.01392 -0.0025425 -0.034899 
0.010954 -0.0034343 -0.065308 
0.011035 -0.0046565 -0.064759 
0.010327 -0.0044606 -0.069504 
0.0099482 -0.0091738 -0.072049 
0.010503 -0.006434 -0.068559 
0.0098964 -0.0079161 -0.072704 
0.0088506 -0.011535 -0.078499 
0.013704 0.0011245 -0.038406 
0.011518 -0.021531 0.057101 
0.012979 0.0062663 0.04261 
0.014684 0.011138 0.012006 
0.014684 0.011138 -0.012006 
0.014586 0.011195 0.013707 
0.014875 0.0035744 0.016207 
0.014766 -0.0060713 0.018757 
0.014777 -0.0086578 0.018313 
0.014692 0.001077 0.021116 
0.014688 0.0036586 0.021405 
0.0146 0.0065031 0.023656 
0.011747 0.01141 -0.020914 
0.011844 0.011744 -0.018221 
-0.01246 0.011722 -0.018013 
0.014514 -0.011085 0.024003 
0.01263 -0.01917 0.047161 
0.012325 -0.020191 0.050185 
0.014177 0.0065248 0.031751 
0.0071266 -0.013864 -0.084297 
0.007912 -0.011971 -0.082576 
0.0081137 -0.013808 -0.081474 
0.0088851 -0.029079 -0.072152 
0.0090776 -0.016399 -0.075688 
0.0089776 -0.014196 -0.076961 
0.0093105 -0.021532 -0.07272 
0.01049 -0.023675 -0.064487 
-0.020722 -0.019102 -0.076422 
-0.020298 -0.015464 -0.08033 
-0.020565 -0.013948 -0.080842 
-0.018945 -0.02893 -0.071845 
-0.019253 -0.024541 -0.074721 
-0.018763 -0.030693 -0.070697 
-0.019885 -0.027298 -0.072384 
-0.016257 -0.028208 -0.073088 
0.0012987 -0.016657 -0.084152 
-0.018763 -0.030693 0.070697 
-0.020184 -0.028411 0.070834 
-0.019357 -0.031612 0.069217 
-0.020142 -0.030618 0.068837 
-0.020338 -0.01853 0.078053 
-0.020404 -0.020619 0.076335 
-0.020215 -0.025594 0.073027 
-0.020619 -0.016425 0.078966 
-0.019323 -0.0046964 -0.069921 
-0.017823 0.00053128 -0.058965 
-0.016119 -0.00086285 -0.062881 
-0.015661 0.0007153 -0.059312 
-0.018278 -0.0010376 -0.062513 
-0.016331 0.0020378 -0.055703 
-0.017046 0.003205 -0.052247 
0.011844 0.011744 0.018221 
-0.01246 0.011722 0.018013 
0.011747 0.01141 0.020914 
-0.012402 0.01192 0.016251 
-0.014511 0.011922 0.013608 
0.014935 -0.0061654 -0.013669 
0.014946 -0.0023258 -0.013451 
0.014931 -0.0085198 -0.013695 
0.014931 -0.0035616 -0.01392 
0.015013 -0.0037591 -0.010612 
0.015011 -0.0087187 -0.010507 
0.014993 0.0035572 -0.011836 
0.01501 -0.0062115 -0.010697 
0.014989 -0.0034943 -0.011708 
0.014988 -0.0022688 -0.011789 
0.01499 0.0061657 -0.01204 
0.014983 -0.0061244 -0.011875 
0.015008 0.0062267 -0.011236 
0.01501 0.0036171 -0.011045 
0.015012 0.0017579 -0.010909 
0.014989 -0.0034943 0.011708 
0.01501 -0.0062115 0.010697 
0.011499 0.010556 -0.026584 
0.011619 0.01097 -0.023999 
0.011402 0.010225 -0.028466 
-0.012967 0.0099773 -0.029122 
0.013801 0.010711 -0.024056 
0.01487 0.0062056 -0.01649 
0.014902 -0.0024425 -0.015018 
0.0146 0.0065031 -0.023656 
0.014366 0.011033 -0.018223 
0.014586 0.011195 -0.013707 
0.01414 -0.011198 -0.030572 
0.014269 -0.011269 -0.028469 
0.011534 -0.0040302 -0.060661 
0.011914 -0.0010105 -0.057756 
0.011084 -0.0063293 -0.064 
0.013038 0.0080879 -0.037405 
0.012122 0.0049398 -0.048613 
0.012503 0.0030061 -0.051562 
0.012244 0.00099768 -0.054582 
0.013458 0.0037087 -0.041936 
0.012892 0.0032245 -0.048134 
0.012644 0.0011993 -0.050954 
0.0083163 -0.0094865 0.079608 
0.0063752 -0.011397 0.083287 
0.0059328 -0.014235 0.085556 
0.010327 -0.0044606 0.069504 
0.007912 -0.011971 0.082576 
0.01108 -0.024447 0.059794 
0.012911 -0.018505 0.044188 
0.013219 0.0031532 0.04484 
0.012892 0.0032245 0.048134 
0.013137 0.0045129 0.045239 
0.012244 0.00099768 0.054582 
0.012644 0.0011993 0.050954 
0.011534 -0.0040302 0.060661 
0.011914 -0.0010105 0.057756 
0.01106 -0.023366 0.060322 
0.011426 0.00092617 0.058469 
0.010165 -0.0017854 0.065957 
0.008473 0.00015461 0.062066 
0.0089049 0.0016391 0.058461 
0.0092918 0.0029689 0.054994 
0.014795 0.0036857 0.01861 
0.014851 -0.003575 0.016557 
0.014763 -0.0037267 0.018998 
0.014797 0.0013392 0.018389 
0.014653 -0.0062336 0.021509 
0.014584 0.0037558 0.023841 
0.014658 -0.0088045 0.021185 
0.01467 -0.0040954 0.021286 
0.014542 -0.0060324 0.023923 
0.014492 0.0061356 0.025982 
0.014545 -0.00025405 0.024336 
0.014573 -0.004063 0.023431 
0.014553 -0.0086122 0.023486 
0.014465 0.0035216 0.026285 
0.014447 -0.0044166 0.025964 
0.014192 0.0010905 0.031055 
0.014054 -0.013383 0.031549 
0.013966 -0.011385 0.033166 
0.01414 -0.011198 0.030572 
0.014269 -0.011269 0.028469 
0.014346 -0.013272 0.026134 
0.014181 -0.013959 0.028718 
0.013431 -0.016121 0.039094 
0.013458 0.0037087 0.041936 
0.013813 0.0060154 0.036959 
0.0062122 -0.030663 0.075529 
0.0054205 -0.020062 0.082547 
0.0056684 -0.027644 0.077581 
-0.016874 -0.014358 0.082095 
-0.018834 -0.013988 0.081772 
0.0082602 -0.019105 -0.078717 
0.0086698 -0.02478 -0.074777 
0.0082716 -0.016853 -0.079616 
0.0074693 -0.021831 -0.079891 
0.0076539 -0.02522 -0.07773 
0.007711 -0.018669 -0.080838 
0.0076727 -0.014245 -0.082993 
0.0074882 -0.017021 -0.082285 
-0.020404 -0.020619 -0.076335 
-0.020215 -0.025594 -0.073027 
-0.020338 -0.01853 -0.078053 
-0.020619 -0.016425 -0.078966 
-0.016217 -0.024298 -0.075695 
-0.019136 -0.017189 -0.079757 
-0.018945 -0.02893 0.071845 
-0.019885 -0.027298 0.072384 
-0.021062 -0.011447 -0.078751 
-0.020478 -0.0083434 -0.075371 
-0.020518 -0.0099763 -0.078688 
-0.020626 -0.011994 -0.080741 
-0.021098 -0.014073 -0.078995 
0.011974 0.01219 0.013823 
-0.012329 0.012173 0.013688 
0.011918 0.011998 0.015871 
0.013801 0.010711 0.024056 
0.014935 -0.0061654 0.013669 
0.014931 -0.0085198 0.013695 
0.014931 -0.0035616 0.01392 
0.014766 -0.0060713 -0.018757 
0.014692 0.0060932 -0.021472 
0.014692 0.001077 -0.021116 
0.014851 -0.003575 -0.016557 
0.014878 0.0014728 -0.015981 
0.014875 0.0035744 -0.016207 
0.014797 0.0013392 -0.018389 
0.01486 -0.0087217 -0.015964 
0.014777 -0.0086578 -0.018313 
0.014795 0.0036857 -0.01861 
0.014788 0.0061458 -0.018956 
0.014856 -0.0061914 -0.016255 
0.014763 -0.0037267 -0.018998 
0.014653 -0.0062336 -0.021509 
0.014658 -0.0088045 -0.021185 
0.01467 -0.0040954 -0.021286 
0.014325 0.0039846 -0.028996 
0.013343 0.0065242 -0.039779 
0.013137 0.0045129 -0.045239 
0.012979 0.0062663 -0.04261 
0.01401 0.0058951 -0.03441 
0.013676 0.0038787 -0.039118 
0.01387 0.0034806 -0.036351 
0.014033 0.0035524 -0.033884 
0.013616 0.0084538 -0.033759 
0.01368 0.010296 -0.026648 
0.014435 0.0085279 -0.026385 
0.013813 0.0060154 -0.036959 
0.014177 0.0065248 -0.031751 
0.013962 0.0086555 -0.030393 
0.014706 0.008747 -0.021037 
0.014567 0.0087671 -0.023675 
0.014072 0.0090332 -0.02839 
0.014269 0.010699 -0.020917 
0.014175 0.003814 -0.031625 
0.014122 -0.0087127 -0.03113 
0.014052 0.0010595 -0.033324 
0.014253 -0.0086319 -0.029021 
0.011946 -0.0020993 -0.057327 
0.012335 -0.0012797 -0.053749 
0.011438 -0.018695 -0.058388 
0.013966 -0.011385 -0.033166 
0.010671 -0.011405 -0.066142 
0.010935 -0.019446 -0.062229 
0.010604 -0.0093466 -0.067143 
0.0099914 -0.010316 -0.071453 
0.010135 -0.01415 -0.069454 
0.010396 -0.021139 -0.06581 
0.0089222 -0.012977 -0.077666 
0.01004 -0.011628 -0.070769 
0.010995 -0.021278 -0.061338 
0.013245 0.0013341 -0.044298 
0.013491 0.001221 -0.041246 
0.013219 0.0031532 -0.04484 
0.012977 0.00064233 -0.047313 
0.012961 0.0016755 -0.047643 
0.0070152 -0.01928 0.082005 
0.0071266 -0.013864 0.084297 
0.0063141 -0.01655 0.08417 
0.0063403 -0.031895 0.074689 
0.0056177 -0.015637 0.085312 
0.0082602 -0.019105 0.078717 
0.0081137 -0.013808 0.081474 
0.010954 -0.0034343 0.065308 
0.012305 -0.018559 0.05083 
0.012961 0.0016755 0.047643 
0.011946 -0.0020993 0.057327 
0.011901 -0.018657 0.05447 
0.01392 -0.0025425 0.034899 
0.014052 0.0010595 0.033324 
0.014122 -0.0087127 0.03113 
0.013972 -0.0087322 0.033407 
0.011814 0.0038809 0.051795 
0.012503 0.0030061 0.051562 
0.012122 0.0049398 0.048613 
0.011468 0.0026909 0.055125 
0.0096371 0.0041561 0.051671 
0.0099444 0.0052125 0.048497 
0.014781 0.0084125 0.01914 
0.014876 0.0088724 0.016217 
0.014788 0.0061458 0.018956 
0.014706 0.008747 0.021037 
0.014692 0.0060932 0.021472 
0.015004 0.0087168 0.011418 
0.015008 0.0062267 0.011236 
0.01501 0.0036171 0.011045 
0.014993 0.0035572 0.011836 
0.014253 -0.0086319 0.029021 
0.014205 -0.00093184 0.030632 
0.014325 0.0039846 0.028996 
0.014175 0.003814 0.031625 
0.014354 0.0062003 0.028656 
0.014428 -0.00047889 0.026679 
0.01401 0.0058951 0.03441 
0.014033 0.0035524 0.033884 
0.0037805 -0.025969 0.078441 
0.0041408 -0.015591 0.085325 
0.0022325 -0.015349 0.085148 
0.0079638 -0.02621 -0.076448 
0.0076642 -0.020304 -0.080209 
0.0083832 -0.028776 -0.074016 
0.0077386 -0.024535 -0.077885 
0.0079663 -0.031075 -0.073875 
0.0077668 -0.028489 -0.075736 
-0.017464 -0.024973 -0.074999 
-0.018364 -0.024181 -0.075303 
-0.018367 -0.020483 -0.077773 
-0.016488 -0.029456 -0.072213 
-0.018349 -0.027928 -0.072805 
-0.016322 -0.026306 -0.074339 
-0.016358 -0.021863 -0.077285 
-0.016315 -0.018994 -0.0792 
-0.016379 -0.016464 -0.080867 
-0.018728 -0.016182 -0.08054 
-0.014575 -0.030323 -0.072008 
0.00372 -0.031857 -0.074503 
0.0017161 -0.031049 -0.074673 
-0.014575 -0.030323 0.072008 
-0.016328 -0.031024 0.071148 
0.00372 -0.031857 0.074503 
-0.019253 -0.024541 0.074721 
-0.018728 -0.016182 0.08054 
-0.020298 -0.015464 0.08033 
0.014545 -0.00025405 -0.024336 
0.014584 0.0037558 -0.023841 
0.014573 -0.004063 -0.023431 
0.014583 0.00093054 -0.023621 
0.014465 0.0035216 -0.026285 
0.014542 -0.0060324 -0.023923 
0.014492 0.0061356 -0.025982 
0.014354 0.0062003 -0.028656 
0.014307 -0.0046818 -0.028489 
0.014205 -0.00093184 -0.030632 
0.014314 0.0011022 -0.028939 
0.014192 0.0010905 -0.031055 
0.011982 -0.0037241 -0.056686 
0.011185 -0.0098545 -0.0624 
0.011365 -0.016126 -0.059554 
0.010564 -0.0081392 -0.067731 
0.011153 -0.0087476 -0.062902 
0.011931 -0.021275 -0.053358 
0.01108 -0.024447 -0.059794 
0.0074882 -0.017021 0.082285 
0.0086698 -0.02478 0.074777 
0.010541 -0.025981 0.063279 
0.0098964 -0.0079161 0.072704 
0.0088506 -0.011535 0.078499 
0.010564 -0.0081392 0.067731 
0.010503 -0.006434 0.068559 
0.011035 -0.0046565 0.064759 
0.011084 -0.0063293 0.064 
0.0099482 -0.0091738 0.072049 
0.011365 -0.016126 0.059554 
0.011438 -0.018695 0.058388 
0.012651 -0.017912 0.047629 
0.012335 -0.0012797 0.053749 
0.012706 -0.0021467 0.049806 
0.012685 -0.00085196 0.050251 
0.01295 -0.016892 0.044748 
0.011982 -0.0037241 0.056686 
0.011569 -0.0054085 0.060078 
0.010725 -0.013042 0.065345 
0.010604 -0.0093466 0.067143 
0.010935 -0.019446 0.062229 
0.011484 -0.020297 0.057661 
0.014947 0.0061481 0.013801 
0.014986 0.0086548 0.012235 
0.014947 0.0085894 0.01378 
0.01499 0.0061657 0.01204 
0.01487 0.0062056 0.01649 
0.014983 -0.0061244 0.011875 
0.014902 -0.0024425 0.015018 
0.014946 -0.0023258 0.013451 
0.014324 -0.00068678 0.02859 
0.014307 -0.0046818 0.028489 
0.014381 -0.011144 0.026551 
0.014314 0.0011022 0.028939 
0.014413 -0.0085629 0.026203 
0.014425 -0.0062792 0.0262 
0.013842 -0.013831 0.034537 
0.013704 0.0011245 0.038406 
0.01387 0.0034806 0.036351 
0.013676 0.0038787 0.039118 
0.013891 0.0010045 0.035754 
0.013743 -0.0029041 0.037364 
0.0037477 -0.028661 0.076649 
0.0017161 -0.031049 0.074673 
0.0039466 -0.030557 0.075426 
0.0037999 -0.01874 0.083237 
0.0047421 -0.020024 0.082539 
0.0048353 -0.027534 0.077589 
0.0037621 -0.01686 0.084473 
0.003092 -0.01984 0.082386 
0.0012987 -0.016657 0.084152 
-0.014064 -0.029868 -0.072411 
-0.015834 -0.02523 -0.07515 
-0.015888 -0.017716 -0.080132 
0.003092 -0.01984 -0.082386 
0.0037477 -0.028661 -0.076649 
0.0039466 -0.030557 -0.075426 
-0.013868 -0.028374 -0.073442 
-0.014323 -0.016922 -0.080962 
-7.2402e-05 -0.01742 -0.083385 
0.001523 -0.018508 -0.082971 
-0.013653 -0.021404 -0.078114 
-0.014261 -0.022284 -0.077412 
-0.013915 -0.026692 -0.07455 
-0.013911 -0.019342 -0.079435 
-0.013731 -0.018067 -0.080316 
-0.016488 -0.029456 0.072213 
-0.018364 -0.024181 0.075303 
-0.019136 -0.017189 0.079757 
-0.018349 -0.027928 0.072805 
-0.018367 -0.020483 0.077773 
0.014553 -0.0086122 -0.023486 
0.014654 -0.011129 -0.021004 
0.014346 -0.013272 -0.026134 
0.011657 -0.0089166 -0.058593 
0.011901 -0.018657 -0.05447 
0.011518 -0.021531 -0.057101 
0.012305 -0.018559 -0.05083 
0.011484 -0.020297 -0.057661 
0.011837 -0.016071 -0.055565 
0.01263 -0.01917 -0.047161 
0.012325 -0.020191 -0.050185 
0.0094932 -0.02556 0.070392 
0.0095587 -0.027009 0.069554 
0.0089776 -0.014196 0.076961 
0.01262 -0.016188 0.048263 
0.01293 -0.015589 0.045195 
0.013274 -0.014005 0.041653 
0.013216 -0.016264 0.041908 
0.013148 -0.011114 0.043555 
0.01318 -0.013313 0.042852 
0.012899 -0.01368 0.04585 
0.011783 -0.013921 0.056475 
0.011837 -0.016071 0.055565 
0.011153 -0.0087476 0.062902 
0.01004 -0.011628 0.070769 
0.010396 -0.021139 0.06581 
0.0089222 -0.012977 0.077666 
0.0099914 -0.010316 0.071453 
0.010995 -0.021278 0.061338 
0.013654 -0.013643 0.037119 
0.01379 -0.011155 0.035656 
0.013404 -0.011183 0.040569 
0.013438 -0.013858 0.039772 
-0.011977 -0.028012 -0.074048 
0.0010973 -0.019589 -0.08217 
-0.0010759 -0.019398 -0.081877 
-0.012013 -0.018756 -0.08019 
-0.00061514 -0.018122 -0.082814 
-0.0011088 -0.021304 -0.080605 
0.014514 -0.011085 -0.024003 
0.014381 -0.011144 -0.026551 
0.01293 -0.015589 -0.045195 
0.01262 -0.016188 -0.048263 
0.012651 -0.017912 -0.047629 
0.013148 -0.011114 -0.043555 
0.012685 -0.00085196 -0.050251 
0.012069 -0.0077088 -0.055113 
0.011569 -0.0054085 -0.060078 
0.01379 -0.011155 -0.035656 
0.013654 -0.013643 -0.037119 
0.013438 -0.013858 -0.039772 
0.013274 -0.014005 -0.041653 
0.01318 -0.013313 -0.042852 
0.01295 -0.016892 -0.044748 
0.0072711 -0.026984 0.077329 
0.0077058 -0.032534 0.073453 
0.0093105 -0.021532 0.07272 
0.0082716 -0.016853 0.079616 
0.0094032 -0.023577 0.071538 
0.0090776 -0.016399 0.075688 
0.01049 -0.023675 0.064487 
0.01238 -0.003639 0.052881 
0.013119 -0.0091459 0.044184 
0.012736 -0.0039153 0.0492 
0.012768 -0.0058694 0.04853 
0.012977 0.00064233 0.047313 
0.013245 0.0013341 0.044298 
0.013005 -0.0012801 0.046699 
0.013491 0.001221 0.041246 
0.012456 -0.0075779 0.051432 
0.01252 -0.010963 0.050186 
0.012039 -0.0063118 0.055665 
0.012403 -0.0048228 0.052445 
0.012833 -0.0097447 0.0472 
0.012222 -0.014694 0.052356 
0.011597 -0.0065324 0.059602 
0.012253 -0.016092 0.051805 
0.012166 -0.012109 0.053377 
0.01257 -0.013552 0.049233 
0.013598 -0.0085514 0.038533 
0.013536 -0.0029387 0.040091 
0.013797 -0.0085938 0.035892 
0.013625 -0.010972 0.037861 
-0.017464 -0.024973 0.074999 
-7.2402e-05 -0.01742 0.083385 
-0.014323 -0.016922 0.080962 
-0.016379 -0.016464 0.080867 
0.0031369 -0.027371 0.077393 
0.0013493 -0.028463 -0.076323 
-1.4486e-05 -0.022509 -0.080016 
0.00093006 -0.024093 -0.079146 
-0.00086368 -0.028234 -0.076048 
-0.0037929 -0.023692 -0.078499 
0.0014452 -0.030191 -0.075194 
0.0012413 -0.021425 -0.080979 
0.0016119 -0.022744 -0.080174 
0.0031369 -0.027371 -0.077393 
0.014425 -0.0062792 -0.0262 
0.014447 -0.0044166 -0.025964 
0.014428 -0.00047889 -0.026679 
0.014413 -0.0085629 -0.026203 
0.014324 -0.00068678 -0.02859 
0.012403 -0.0048228 -0.052445 
0.012706 -0.0021467 -0.049806 
0.01238 -0.003639 -0.052881 
0.012222 -0.014694 -0.052356 
0.012253 -0.016092 -0.051805 
0.012193 -0.013357 -0.052884 
0.011597 -0.0065324 -0.059602 
0.013598 -0.0085514 -0.038533 
0.013404 -0.011183 -0.040569 
0.013625 -0.010972 -0.037861 
0.013797 -0.0085938 -0.035892 
0.013729 -0.001414 -0.037749 
0.013519 -0.0013537 -0.040531 
0.013431 -0.016121 -0.039094 
0.013216 -0.016264 -0.041908 
0.013842 -0.013831 -0.034537 
0.014054 -0.013383 -0.031549 
0.012911 -0.018505 -0.044188 
0.014181 -0.013959 -0.028718 
0.0076539 -0.02522 0.07773 
0.0077386 -0.024535 0.077885 
0.0074693 -0.021831 0.079891 
0.0077668 -0.028489 0.075736 
0.0071785 -0.024888 0.07865 
0.0083832 -0.028776 0.074016 
0.0079663 -0.031075 0.073875 
0.0088851 -0.029079 0.072152 
0.0079638 -0.02621 0.076448 
0.0076727 -0.014245 0.082993 
0.0076642 -0.020304 0.080209 
0.007711 -0.018669 0.080838 
0.01331 -0.0037291 0.042789 
0.013044 -0.0039675 0.045839 
0.013372 -0.0086586 0.041321 
0.013278 -0.0012622 0.043524 
0.013519 -0.0013537 0.040531 
0.001523 -0.018508 0.082971 
0.0014452 -0.030191 0.075194 
0.0013493 -0.028463 0.076323 
0.0016119 -0.022744 0.080174 
0.012039 -0.0063118 -0.055665 
0.01252 -0.010963 -0.050186 
0.012456 -0.0075779 -0.051432 
0.012538 -0.011917 -0.049835 
0.012899 -0.01368 -0.04585 
0.01257 -0.013552 -0.049233 
0.012736 -0.0039153 -0.0492 
0.013005 -0.0012801 -0.046699 
0.01331 -0.0037291 -0.042789 
0.013278 -0.0012622 -0.043524 
-0.011977 -0.028012 0.074048 
-0.015834 -0.02523 0.07515 
-0.016315 -0.018994 0.0792 
-0.016358 -0.021863 0.077285 
-0.016217 -0.024298 0.075695 
-0.016257 -0.028208 0.073088 
-0.014064 -0.029868 0.072411 
-0.016322 -0.026306 0.074339 
0.013063 -0.0053067 -0.045411 
0.013372 -0.0086586 -0.041321 
0.013119 -0.0091459 -0.044184 
0.013044 -0.0039675 -0.045839 
0.012833 -0.0097447 -0.0472 
-0.00086368 -0.028234 0.076048 
-0.013731 -0.018067 0.080316 
-0.011348 -0.025681 0.075718 
-0.012013 -0.018756 0.08019 
-0.013911 -0.019342 0.079435 
-1.4486e-05 -0.022509 0.080016 
-0.0010685 -0.025446 0.077861 
0.0010628 -0.027041 0.077213 
0.0010973 -0.019589 0.08217 
-0.0036637 -0.022097 0.079584 
-0.0010759 -0.019398 0.081877 
-0.00061514 -0.018122 0.082814 
-0.013915 -0.026692 0.07455 
-0.013637 -0.025502 0.075395 
-0.013868 -0.028374 0.073442 
-0.014261 -0.022284 0.077412 
-0.015888 -0.017716 0.080132 
-0.020852 -0.0095823 0.074582 
-0.020852 -0.0095823 -0.074582 
-0.021176 -0.012063 -0.077277 
-0.021176 -0.012063 0.077277 
-0.014458 0.012104 0.011436 
-0.015259 0.010763 0.016038 
-0.015259 0.010763 -0.016038 
-0.014458 0.012104 -0.011436 
-0.015444 0.010127 0.021129 
-0.018068 0.0011058 -0.055133 
-0.015444 0.010127 -0.021129 
-0.018068 0.0011058 0.055133 
0.010688 -0.025748 -0.059098 
0.0096058 -0.028818 0.068502 
0.0096058 -0.028818 -0.068502 
0.010688 -0.025748 0.059098 
0.0086792 -0.031212 -0.071335 
0.0086792 -0.031212 0.071335 
0.0077422 -0.032848 0.07169 
0.0077422 -0.032848 -0.07169 
-0.018926 -0.0018515 0.062054 
-0.018926 -0.0018515 -0.062054 
0.015003 -0.010982 -0.0099762 
0.015003 -0.010982 0.0099762 
0.015016 -0.010366 0.010022 
0.015016 -0.010366 -0.010022 
0.0089431 -0.030613 -0.067337 
0.0089431 -0.030613 0.067337 
-0.019962 -0.0054826 0.069408 
-0.019962 -0.0054826 -0.069408 
0.014904 -0.011985 0.0099007 
0.014904 -0.011985 -0.0099007 
0.01444 0.011286 0.015874 
0.01444 0.011286 -0.015874 
0.012016 0.012335 -0.012038 
0.012016 0.012335 0.012038 
-0.012276 0.012356 0.011503 
-0.012276 0.012356 -0.011503 
0.015015 -0.0021781 0.010621 
0.015015 -0.0021781 -0.010621 
0.013131 -0.01808 -0.041317 
0.013131 -0.01808 0.041317 
3 75 779 778
3 158 1 150
3 146 304 25
3 146 25 5
3 35 5 25
3 372 75 778
3 372 161 75
3 59 795 2
3 77 68 78
3 11 150 1
3 11 245 150
3 11 1 2
3 246 150 245
3 80 16 78
3 6 4 295
3 173 21 4
3 173 4 6
3 82 119 51
3 106 295 4
3 3 786 782
3 22 4 21
3 351 146 5
3 39 351 5
3 39 166 351
3 39 164 166
3 790 48 116
3 790 229 48
3 464 465 275
3 147 66 77
3 354 228 428
3 15 161 73
3 235 236 151
3 0 1 158
3 0 2 1
3 0 59 2
3 0 158 495
3 0 495 60
3 0 60 59
3 579 60 495
3 8 77 60
3 67 68 77
3 67 77 8
3 242 492 152
3 12 11 2
3 12 2 795
3 12 795 794
3 13 12 794
3 498 245 11
3 71 150 246
3 71 240 150
3 71 149 240
3 227 78 16
3 84 52 17
3 84 17 177
3 18 80 78
3 18 152 151
3 18 78 68
3 171 172 119
3 171 119 82
3 174 175 21
3 174 21 173
3 47 86 786
3 47 786 3
3 47 27 86
3 47 3 782
3 47 221 27
3 107 106 4
3 107 4 22
3 23 785 786
3 36 44 43
3 36 35 25
3 30 36 302
3 30 44 36
3 780 781 262
3 57 30 318
3 33 787 31
3 33 32 787
3 784 787 32
3 784 89 781
3 55 46 54
3 55 56 31
3 55 31 787
3 55 787 46
3 38 102 103
3 38 5 35
3 38 39 5
3 45 41 46
3 800 104 62
3 186 410 211
3 296 6 295
3 296 173 6
3 7 53 31
3 7 31 56
3 7 457 53
3 7 56 457
3 122 54 46
3 122 46 41
3 122 41 57
3 456 457 56
3 456 56 321
3 438 304 440
3 789 793 803
3 789 791 307
3 649 794 793
3 649 13 794
3 649 439 13
3 792 229 790
3 792 482 229
3 305 30 302
3 305 318 30
3 61 275 188
3 61 188 186
3 61 186 211
3 817 343 344
3 817 307 791
3 334 130 328
3 476 304 146
3 476 440 304
3 65 60 77
3 65 77 66
3 353 48 229
3 353 354 48
3 148 48 354
3 362 235 240
3 69 60 579
3 69 579 155
3 69 8 60
3 69 67 8
3 9 242 152
3 9 18 68
3 9 152 18
3 9 68 156
3 9 156 242
3 10 498 11
3 10 11 12
3 10 12 13
3 10 499 498
3 10 13 439
3 10 439 499
3 72 73 71
3 14 149 71
3 14 161 372
3 14 372 149
3 14 73 161
3 14 71 73
3 165 163 246
3 160 15 73
3 160 73 163
3 160 161 15
3 250 166 164
3 49 227 16
3 206 227 205
3 206 428 228
3 206 228 227
3 226 78 227
3 83 52 84
3 81 16 80
3 81 49 16
3 81 17 52
3 81 52 49
3 79 177 17
3 79 17 81
3 79 81 167
3 169 18 151
3 169 80 18
3 254 82 51
3 254 51 83
3 19 782 783
3 19 47 782
3 19 128 47
3 19 783 813
3 19 813 128
3 108 88 109
3 20 175 785
3 20 785 23
3 24 175 20
3 24 20 23
3 24 21 175
3 24 22 21
3 24 107 22
3 24 88 108
3 24 108 107
3 87 23 786
3 87 88 24
3 87 24 23
3 303 36 25
3 303 302 36
3 303 25 304
3 110 86 283
3 110 88 86
3 110 109 88
3 26 27 221
3 26 221 29
3 26 86 27
3 26 29 86
3 28 221 283
3 28 29 221
3 28 283 86
3 28 86 29
3 42 57 41
3 42 44 30
3 42 30 57
3 101 178 784
3 99 784 32
3 99 101 784
3 98 31 53
3 98 53 91
3 98 99 32
3 98 33 31
3 98 32 33
3 34 38 35
3 34 102 38
3 34 43 102
3 34 36 43
3 34 35 36
3 37 39 38
3 37 779 164
3 37 164 39
3 37 38 103
3 37 776 779
3 37 103 776
3 40 41 45
3 40 42 41
3 40 102 43
3 40 45 102
3 40 43 44
3 40 44 42
3 796 102 45
3 796 46 787
3 796 45 46
3 273 188 275
3 378 62 104
3 378 191 62
3 323 190 213
3 192 104 800
3 799 800 62
3 799 62 131
3 195 410 186
3 195 186 285
3 127 220 221
3 127 221 47
3 127 47 128
3 111 109 110
3 798 115 801
3 596 714 712
3 596 807 714
3 634 596 712
3 233 116 48
3 233 48 148
3 599 117 601
3 202 49 52
3 202 205 227
3 202 227 49
3 518 204 201
3 50 119 118
3 50 51 119
3 50 202 52
3 50 118 202
3 50 83 51
3 50 52 83
3 120 119 172
3 120 172 173
3 120 173 296
3 92 142 58
3 92 93 142
3 92 58 97
3 92 97 100
3 94 124 142
3 94 142 93
3 94 457 124
3 94 53 457
3 94 91 53
3 121 54 122
3 121 55 54
3 121 56 55
3 121 321 56
3 319 122 57
3 319 57 318
3 96 97 58
3 96 182 178
3 141 140 182
3 141 182 96
3 141 96 58
3 141 58 142
3 139 179 182
3 139 182 140
3 802 792 790
3 64 792 795
3 64 482 792
3 64 795 59
3 64 59 60
3 64 60 65
3 209 143 142
3 463 61 211
3 463 464 275
3 463 275 61
3 289 211 410
3 129 128 813
3 129 813 810
3 342 63 130
3 342 131 62
3 342 62 63
3 224 307 817
3 216 462 217
3 216 214 462
3 215 191 325
3 215 62 191
3 215 63 62
3 215 214 216
3 215 328 130
3 215 130 63
3 333 334 328
3 137 144 145
3 137 471 461
3 376 260 179
3 376 179 139
3 376 144 135
3 477 476 146
3 348 440 476
3 355 66 147
3 355 356 66
3 483 482 64
3 483 64 65
3 483 66 356
3 483 65 66
3 231 354 428
3 231 428 233
3 361 240 149
3 361 362 240
3 238 240 235
3 487 158 488
3 365 238 235
3 365 488 238
3 157 68 67
3 157 156 68
3 157 69 155
3 157 67 69
3 577 242 156
3 574 487 241
3 70 246 163
3 70 71 246
3 70 72 71
3 70 163 73
3 70 73 72
3 74 250 164
3 74 249 250
3 244 165 246
3 244 249 74
3 244 164 165
3 244 74 164
3 162 164 779
3 162 779 75
3 162 75 161
3 248 250 249
3 76 77 78
3 76 78 226
3 76 147 77
3 76 226 147
3 251 79 167
3 251 177 79
3 251 805 797
3 168 80 169
3 168 81 80
3 168 167 81
3 371 151 236
3 371 169 151
3 371 236 372
3 257 785 175
3 176 171 82
3 176 82 254
3 253 254 83
3 253 84 177
3 253 83 84
3 85 786 86
3 85 87 786
3 85 86 88
3 85 88 87
3 183 178 182
3 185 784 178
3 185 89 784
3 185 781 89
3 185 262 781
3 261 262 185
3 90 100 98
3 90 98 91
3 90 92 100
3 90 93 92
3 90 94 93
3 90 91 94
3 95 96 178
3 95 97 96
3 95 99 98
3 95 100 97
3 95 98 100
3 95 178 101
3 95 101 99
3 804 103 102
3 804 102 796
3 804 776 103
3 815 801 268
3 552 378 104
3 125 325 191
3 125 191 190
3 125 190 323
3 550 104 192
3 550 552 104
3 105 295 106
3 105 111 295
3 105 106 107
3 105 107 108
3 105 108 109
3 105 109 111
3 194 110 283
3 194 111 110
3 194 283 282
3 194 295 111
3 112 115 798
3 112 596 115
3 112 798 807
3 112 807 596
3 113 274 268
3 113 264 274
3 113 265 264
3 113 268 801
3 113 801 115
3 113 115 265
3 387 265 115
3 387 115 388
3 387 286 265
3 114 595 388
3 114 388 115
3 114 596 595
3 114 115 596
3 381 410 195
3 381 287 410
3 290 712 421
3 521 117 599
3 521 788 790
3 521 790 116
3 521 116 233
3 521 233 117
3 293 301 419
3 293 298 301
3 294 518 201
3 430 601 117
3 430 117 233
3 198 421 706
3 198 707 199
3 198 706 707
3 198 290 421
3 207 707 708
3 197 416 199
3 197 207 402
3 197 199 707
3 197 707 207
3 297 202 118
3 297 118 119
3 297 119 120
3 297 120 296
3 401 402 207
3 320 121 122
3 320 122 319
3 320 321 121
3 437 304 438
3 316 307 208
3 447 224 444
3 447 208 224
3 123 346 143
3 123 311 346
3 123 143 209
3 123 209 311
3 454 142 124
3 454 209 142
3 454 124 457
3 322 325 125
3 322 125 323
3 218 217 462
3 218 462 461
3 281 283 221
3 809 289 288
3 809 288 284
3 809 129 810
3 809 284 129
3 809 211 289
3 126 127 128
3 126 128 129
3 126 220 127
3 126 284 220
3 126 129 284
3 222 342 130
3 222 130 334
3 806 131 342
3 806 799 131
3 806 342 343
3 806 343 817
3 132 208 307
3 132 307 224
3 132 224 208
3 308 817 344
3 308 224 817
3 467 340 341
3 336 222 334
3 336 557 222
3 133 328 327
3 133 333 328
3 133 327 332
3 133 332 333
3 808 135 212
3 808 376 135
3 808 211 809
3 134 135 144
3 134 144 137
3 134 137 461
3 134 461 212
3 134 212 135
3 136 143 346
3 136 346 137
3 136 145 143
3 136 137 145
3 225 471 137
3 225 137 346
3 225 470 471
3 138 139 140
3 138 376 139
3 138 140 141
3 138 141 142
3 138 142 143
3 138 144 376
3 138 143 145
3 138 145 144
3 350 146 351
3 350 477 146
3 347 439 440
3 347 440 348
3 359 147 226
3 359 355 147
3 232 148 354
3 232 233 148
3 234 149 372
3 234 361 149
3 239 150 240
3 239 158 150
3 239 488 158
3 493 235 151
3 493 365 235
3 493 151 152
3 493 152 492
3 153 155 579
3 153 577 155
3 153 579 577
3 154 155 577
3 154 577 156
3 154 157 155
3 154 156 157
3 582 492 242
3 575 574 241
3 494 158 487
3 494 487 574
3 494 495 158
3 243 245 498
3 159 161 160
3 159 162 161
3 159 160 163
3 159 164 162
3 159 165 164
3 159 163 165
3 502 166 250
3 502 351 166
3 370 251 167
3 370 167 168
3 370 168 169
3 370 169 371
3 170 172 171
3 170 171 176
3 170 173 172
3 170 174 173
3 170 175 174
3 170 257 175
3 170 176 257
3 256 176 254
3 256 257 176
3 255 177 251
3 255 253 177
3 255 251 797
3 184 181 178
3 184 178 183
3 180 178 181
3 180 185 178
3 259 179 260
3 259 180 181
3 259 182 179
3 259 183 182
3 259 181 184
3 259 184 183
3 259 261 185
3 259 185 180
3 812 780 262
3 189 186 188
3 189 285 186
3 187 273 274
3 187 274 264
3 187 188 273
3 187 189 188
3 187 285 189
3 187 286 285
3 187 264 286
3 266 265 286
3 266 286 264
3 276 275 465
3 270 268 274
3 270 274 271
3 272 271 274
3 551 213 190
3 551 190 191
3 551 191 378
3 814 192 800
3 814 193 192
3 279 550 192
3 279 192 193
3 279 193 814
3 279 465 466
3 279 814 465
3 405 194 282
3 405 295 194
3 390 195 285
3 390 285 383
3 390 381 195
3 384 286 387
3 509 510 410
3 509 410 287
3 394 388 595
3 394 395 388
3 382 388 395
3 196 395 287
3 196 287 381
3 196 382 395
3 196 381 382
3 408 510 414
3 403 414 416
3 403 416 197
3 403 197 402
3 415 290 198
3 415 199 416
3 415 198 199
3 291 634 712
3 291 712 290
3 292 201 293
3 292 294 201
3 292 641 294
3 200 293 201
3 200 201 204
3 200 298 293
3 200 205 202
3 200 204 205
3 200 297 298
3 200 202 297
3 642 706 421
3 423 601 430
3 423 430 425
3 203 518 425
3 203 205 204
3 203 204 518
3 203 425 428
3 203 206 205
3 203 428 206
3 427 233 428
3 427 430 233
3 404 295 405
3 432 207 708
3 432 401 207
3 432 299 401
3 432 708 745
3 544 316 208
3 544 208 447
3 654 307 316
3 670 447 444
3 534 444 224
3 534 224 538
3 345 346 311
3 449 470 474
3 317 318 305
3 453 311 209
3 453 209 454
3 453 312 310
3 453 310 311
3 453 317 305
3 453 443 312
3 453 305 443
3 210 459 463
3 210 463 211
3 210 212 461
3 210 461 459
3 210 808 212
3 210 211 808
3 549 213 551
3 549 323 213
3 547 459 549
3 324 462 214
3 324 215 325
3 324 214 215
3 329 328 215
3 329 215 216
3 329 218 327
3 329 216 217
3 329 217 218
3 331 327 218
3 331 332 327
3 331 471 335
3 331 461 471
3 331 218 461
3 219 221 220
3 219 281 221
3 219 220 284
3 219 284 281
3 555 342 222
3 555 222 557
3 555 467 341
3 223 538 224
3 223 224 308
3 223 308 538
3 339 340 451
3 339 624 559
3 339 675 624
3 339 451 675
3 558 557 336
3 472 335 471
3 472 558 336
3 473 225 346
3 473 474 470
3 473 470 225
3 358 359 226
3 358 227 228
3 358 226 227
3 358 228 354
3 358 353 229
3 480 229 482
3 480 358 229
3 479 355 359
3 230 354 231
3 230 232 354
3 230 231 233
3 230 233 232
3 363 361 234
3 363 236 235
3 363 235 362
3 363 372 236
3 363 234 372
3 237 238 488
3 237 488 239
3 237 240 238
3 237 239 240
3 489 241 487
3 489 575 241
3 491 492 576
3 491 576 575
3 491 575 490
3 486 365 493
3 583 242 577
3 583 582 242
3 592 366 243
3 592 243 498
3 367 243 366
3 367 249 244
3 367 245 243
3 367 246 245
3 367 244 246
3 247 248 249
3 247 249 367
3 247 367 502
3 247 250 248
3 247 502 250
3 369 805 251
3 369 251 370
3 369 777 805
3 252 254 253
3 252 253 255
3 252 256 254
3 252 257 256
3 252 785 257
3 252 797 785
3 252 255 797
3 258 375 261
3 258 261 259
3 258 259 260
3 258 260 376
3 258 376 375
3 374 261 375
3 374 262 261
3 374 812 262
3 263 264 265
3 263 265 266
3 263 266 264
3 277 276 465
3 277 814 815
3 277 465 814
3 277 815 270
3 267 815 268
3 267 268 270
3 267 270 815
3 269 270 271
3 269 271 272
3 269 274 273
3 269 272 274
3 269 273 275
3 269 275 276
3 269 276 277
3 269 277 270
3 379 551 378
3 379 552 551
3 278 466 550
3 278 279 466
3 278 550 279
3 280 281 284
3 280 284 405
3 280 405 282
3 280 282 283
3 280 283 281
3 413 284 288
3 413 405 284
3 392 381 390
3 389 390 383
3 385 383 285
3 385 285 286
3 385 286 384
3 504 509 287
3 504 287 395
3 594 505 394
3 594 394 595
3 396 414 510
3 396 513 414
3 407 404 409
3 407 299 398
3 407 401 299
3 411 413 288
3 411 289 410
3 411 288 289
3 417 290 415
3 417 291 290
3 417 634 291
3 418 292 293
3 418 293 419
3 418 641 292
3 420 602 601
3 519 294 641
3 519 518 294
3 639 419 301
3 639 698 419
3 424 420 601
3 424 518 420
3 424 425 518
3 429 428 425
3 429 425 430
3 399 295 404
3 399 398 297
3 399 296 295
3 399 297 296
3 300 297 398
3 300 301 298
3 300 298 297
3 435 639 301
3 433 299 432
3 433 398 299
3 433 300 398
3 433 301 300
3 433 435 301
3 522 724 437
3 306 437 724
3 306 305 302
3 306 724 442
3 306 442 526
3 306 302 303
3 306 303 304
3 306 304 437
3 525 443 305
3 525 305 306
3 525 306 526
3 533 542 544
3 524 789 307
3 524 307 654
3 563 449 474
3 611 308 344
3 611 538 308
3 611 344 559
3 313 535 537
3 313 537 445
3 313 310 312
3 309 445 660
3 309 313 445
3 309 310 313
3 309 345 311
3 309 311 310
3 309 662 345
3 309 660 662
3 540 446 314
3 540 314 530
3 540 530 617
3 315 314 446
3 315 312 443
3 315 313 312
3 315 446 535
3 315 535 313
3 529 530 314
3 529 315 443
3 529 314 315
3 622 654 316
3 622 316 544
3 450 340 467
3 450 467 468
3 450 468 449
3 450 451 340
3 337 449 468
3 337 470 449
3 455 318 317
3 455 317 453
3 455 319 318
3 455 320 319
3 455 321 320
3 455 456 321
3 460 322 323
3 460 323 549
3 460 462 324
3 460 325 322
3 460 324 325
3 546 463 459
3 546 459 547
3 326 327 328
3 326 328 329
3 326 329 327
3 330 332 331
3 330 334 333
3 330 333 332
3 330 331 335
3 330 336 334
3 330 335 472
3 330 472 336
3 556 337 468
3 556 470 337
3 556 558 472
3 674 675 564
3 338 339 559
3 338 340 339
3 338 341 340
3 338 343 342
3 338 344 343
3 338 559 344
3 338 555 341
3 338 342 555
3 562 346 345
3 562 473 346
3 562 345 662
3 349 347 348
3 349 439 347
3 567 566 499
3 567 349 570
3 567 499 439
3 567 439 349
3 569 348 476
3 569 349 348
3 569 570 349
3 573 477 350
3 573 350 680
3 501 350 351
3 501 680 350
3 501 677 680
3 501 351 502
3 352 354 353
3 352 358 354
3 352 353 358
3 481 356 355
3 481 355 479
3 481 483 356
3 357 358 480
3 357 480 479
3 357 359 358
3 357 479 359
3 360 362 361
3 360 363 362
3 360 361 363
3 364 490 575
3 364 489 490
3 364 575 489
3 485 488 365
3 485 365 486
3 581 588 576
3 581 576 492
3 581 492 582
3 585 586 576
3 589 592 498
3 589 677 592
3 500 366 592
3 500 367 366
3 500 502 367
3 368 778 777
3 368 777 369
3 368 369 370
3 368 370 371
3 368 372 778
3 368 371 372
3 373 811 812
3 373 812 374
3 373 374 375
3 373 375 376
3 373 808 811
3 373 376 808
3 377 378 552
3 377 379 378
3 377 552 379
3 380 392 388
3 380 381 392
3 380 388 382
3 380 382 381
3 391 389 383
3 391 384 387
3 391 383 385
3 391 385 384
3 386 387 388
3 386 390 389
3 386 391 387
3 386 389 391
3 386 388 392
3 386 392 390
3 506 394 505
3 506 504 394
3 393 395 394
3 393 504 395
3 393 394 504
3 693 396 510
3 693 513 396
3 508 505 594
3 397 407 398
3 397 404 407
3 397 398 399
3 397 399 404
3 400 401 407
3 400 407 408
3 400 402 401
3 400 403 402
3 400 408 414
3 400 414 403
3 412 409 404
3 412 404 405
3 412 405 413
3 406 408 407
3 406 510 408
3 406 407 409
3 406 410 510
3 406 411 410
3 406 409 412
3 406 413 411
3 406 412 413
3 511 634 417
3 514 416 414
3 514 414 513
3 512 415 416
3 512 417 415
3 512 416 514
3 512 511 417
3 515 641 418
3 515 419 698
3 515 418 419
3 517 602 420
3 517 420 518
3 597 602 519
3 637 647 604
3 711 421 712
3 711 642 421
3 422 601 423
3 422 424 601
3 422 423 425
3 422 425 424
3 426 427 428
3 426 428 429
3 426 430 427
3 426 429 430
3 434 745 743
3 434 743 639
3 434 639 435
3 431 432 745
3 431 433 432
3 431 745 434
3 431 435 433
3 431 434 435
3 725 522 717
3 436 717 522
3 436 719 717
3 436 437 438
3 436 522 437
3 436 438 440
3 436 440 719
3 648 439 649
3 648 440 439
3 648 719 440
3 441 724 523
3 651 441 523
3 651 442 724
3 651 724 441
3 620 526 442
3 620 442 651
3 528 443 525
3 528 529 443
3 608 670 444
3 608 444 534
3 659 660 445
3 659 445 537
3 539 446 540
3 539 535 446
3 616 447 670
3 616 617 532
3 616 532 533
3 616 544 447
3 616 533 544
3 619 654 622
3 619 620 654
3 543 621 622
3 543 622 544
3 448 449 563
3 448 450 449
3 448 451 450
3 448 675 451
3 448 564 675
3 448 563 564
3 452 453 454
3 452 455 453
3 452 456 455
3 452 457 456
3 452 454 457
3 458 549 459
3 458 460 549
3 458 459 461
3 458 461 462
3 458 462 460
3 548 464 463
3 548 463 546
3 548 465 464
3 548 466 465
3 548 550 466
3 554 467 555
3 554 468 467
3 554 556 468
3 469 471 470
3 469 470 556
3 469 472 471
3 469 556 472
3 731 674 564
3 561 474 473
3 561 473 562
3 561 563 474
3 475 570 572
3 475 572 567
3 475 567 570
3 571 569 476
3 571 573 572
3 571 476 477
3 571 477 573
3 593 677 501
3 678 573 680
3 478 479 480
3 478 481 479
3 478 480 482
3 478 482 483
3 478 483 481
3 484 485 486
3 484 487 488
3 484 488 485
3 484 489 487
3 484 490 489
3 484 492 491
3 484 491 490
3 484 493 492
3 484 486 493
3 496 494 574
3 496 579 495
3 496 495 494
3 687 496 574
3 687 579 496
3 628 583 689
3 587 576 588
3 587 585 576
3 497 589 498
3 497 752 589
3 497 498 499
3 497 499 566
3 497 566 752
3 753 677 589
3 591 500 592
3 591 593 501
3 591 501 502
3 591 502 500
3 692 508 594
3 692 693 508
3 503 509 504
3 503 508 509
3 503 505 508
3 503 506 505
3 503 504 506
3 507 509 508
3 507 508 693
3 507 510 509
3 507 693 510
3 695 634 511
3 695 511 512
3 695 513 693
3 695 514 513
3 695 512 514
3 736 641 515
3 736 515 698
3 516 519 602
3 516 602 517
3 516 518 519
3 516 517 518
3 702 519 641
3 702 597 519
3 520 521 599
3 520 599 604
3 520 604 521
3 600 636 637
3 600 637 604
3 816 714 807
3 816 521 604
3 816 788 521
3 726 724 522
3 726 522 725
3 722 793 789
3 722 523 724
3 721 649 793
3 721 793 722
3 606 651 523
3 606 523 722
3 606 722 789
3 606 789 524
3 606 524 654
3 607 620 651
3 607 654 620
3 531 525 526
3 531 526 620
3 531 620 621
3 531 528 525
3 527 529 528
3 527 530 529
3 527 528 531
3 527 617 530
3 527 621 542
3 527 531 621
3 527 532 617
3 527 542 533
3 527 533 532
3 672 670 608
3 609 534 538
3 609 608 534
3 655 536 537
3 655 537 535
3 655 657 536
3 655 535 539
3 661 536 657
3 661 537 536
3 661 659 537
3 613 538 611
3 613 609 538
3 665 539 540
3 665 655 539
3 669 665 540
3 669 540 617
3 541 542 621
3 541 621 543
3 541 544 542
3 541 543 544
3 545 546 547
3 545 548 546
3 545 547 549
3 545 550 548
3 545 549 551
3 545 552 550
3 545 551 552
3 553 554 555
3 553 556 554
3 553 555 557
3 553 557 558
3 553 558 556
3 623 559 624
3 623 611 559
3 623 626 611
3 560 561 562
3 560 562 662
3 560 563 561
3 560 662 731
3 560 564 563
3 560 731 564
3 565 567 572
3 565 572 681
3 565 681 567
3 733 752 566
3 733 566 567
3 733 567 681
3 568 570 569
3 568 569 571
3 568 572 570
3 568 571 572
3 679 678 680
3 732 681 572
3 732 572 573
3 732 573 678
3 578 577 579
3 580 687 574
3 580 574 575
3 580 575 576
3 580 576 586
3 690 583 577
3 690 689 583
3 690 577 578
3 690 579 687
3 690 578 579
3 627 580 586
3 627 687 580
3 631 581 582
3 631 588 581
3 631 582 583
3 631 583 628
3 584 585 587
3 584 586 585
3 584 587 686
3 584 627 586
3 584 686 627
3 630 587 588
3 630 686 587
3 630 588 631
3 751 589 752
3 751 753 589
3 590 591 592
3 590 593 591
3 590 592 677
3 590 677 593
3 633 692 594
3 633 594 595
3 633 595 596
3 633 596 634
3 640 641 736
3 741 640 736
3 740 636 741
3 700 636 600
3 700 741 636
3 700 602 597
3 700 597 702
3 598 604 599
3 598 600 604
3 598 599 601
3 598 601 602
3 598 602 700
3 598 700 600
3 603 604 647
3 713 603 647
3 713 816 604
3 713 604 603
3 643 642 711
3 716 725 717
3 605 652 651
3 605 651 606
3 605 654 652
3 605 606 654
3 653 607 651
3 653 654 607
3 614 672 608
3 614 608 609
3 614 609 613
3 614 656 667
3 658 667 656
3 729 674 731
3 610 611 626
3 610 613 611
3 610 626 625
3 610 625 613
3 612 613 625
3 612 729 656
3 612 625 729
3 612 656 614
3 612 614 613
3 664 665 672
3 664 614 667
3 664 672 614
3 615 616 670
3 615 670 669
3 615 617 616
3 615 669 617
3 671 665 669
3 671 672 665
3 618 620 619
3 618 621 620
3 618 619 622
3 618 622 621
3 676 623 624
3 676 625 626
3 676 626 623
3 676 729 625
3 676 624 675
3 748 680 677
3 735 681 732
3 685 687 627
3 685 627 686
3 688 628 689
3 688 684 628
3 683 628 684
3 683 631 628
3 683 686 632
3 629 686 630
3 629 630 631
3 629 632 686
3 629 631 683
3 629 683 632
3 694 633 634
3 694 692 633
3 694 634 695
3 635 636 740
3 635 647 637
3 635 637 636
3 635 646 647
3 635 740 646
3 638 646 740
3 638 740 756
3 638 704 646
3 638 756 704
3 697 698 639
3 697 639 743
3 701 640 741
3 701 641 640
3 701 702 641
3 755 704 756
3 645 646 704
3 645 704 644
3 705 644 704
3 705 643 644
3 705 642 643
3 705 706 642
3 710 644 643
3 710 645 644
3 710 643 711
3 710 647 646
3 710 646 645
3 710 713 647
3 718 719 648
3 718 648 649
3 718 649 721
3 723 725 716
3 723 718 721
3 723 716 718
3 650 651 652
3 650 653 651
3 650 652 654
3 650 654 653
3 666 657 655
3 666 658 657
3 666 655 665
3 666 667 658
3 728 656 729
3 728 661 657
3 728 658 656
3 728 657 658
3 730 660 659
3 730 659 661
3 730 662 660
3 730 661 728
3 730 731 662
3 663 665 664
3 663 666 665
3 663 664 667
3 663 667 666
3 668 669 670
3 668 671 669
3 668 670 672
3 668 672 671
3 673 675 674
3 673 676 675
3 673 674 729
3 673 729 676
3 749 677 753
3 749 748 677
3 770 678 679
3 770 679 760
3 770 760 769
3 770 732 678
3 775 760 679
3 775 679 680
3 775 680 748
3 734 733 681
3 734 681 735
3 734 759 733
3 682 683 684
3 682 685 686
3 682 686 683
3 682 687 685
3 682 688 689
3 682 684 688
3 682 689 690
3 682 690 687
3 691 693 692
3 691 692 694
3 691 695 693
3 691 694 695
3 696 736 698
3 696 738 736
3 737 736 738
3 742 738 696
3 742 697 743
3 742 698 697
3 742 696 698
3 699 741 700
3 699 701 741
3 699 700 702
3 699 702 701
3 744 745 708
3 703 704 755
3 703 705 704
3 703 706 705
3 703 707 706
3 703 708 707
3 703 744 708
3 703 755 744
3 709 710 711
3 709 711 712
3 709 816 713
3 709 713 710
3 709 712 714
3 709 714 816
3 715 716 717
3 715 718 716
3 715 717 719
3 715 719 718
3 720 721 722
3 720 723 721
3 720 722 724
3 720 725 723
3 720 724 726
3 720 726 725
3 727 728 729
3 727 730 728
3 727 729 731
3 727 731 730
3 767 732 770
3 767 735 732
3 773 752 733
3 773 733 759
3 750 749 753
3 766 759 734
3 766 734 735
3 766 735 767
3 739 741 736
3 739 736 737
3 758 737 738
3 758 738 742
3 758 739 737
3 758 756 740
3 758 740 741
3 758 741 739
3 757 742 743
3 757 758 742
3 757 744 755
3 757 743 745
3 757 745 744
3 762 769 760
3 768 769 762
3 768 762 761
3 746 773 759
3 746 759 761
3 746 772 773
3 746 761 772
3 747 773 775
3 747 775 748
3 747 748 749
3 747 749 750
3 747 751 752
3 747 752 773
3 747 753 751
3 747 750 753
3 754 755 756
3 754 757 755
3 754 756 758
3 754 758 757
3 765 761 759
3 765 768 761
3 765 759 766
3 763 760 775
3 763 772 761
3 763 762 760
3 763 761 762
3 774 763 775
3 774 772 763
3 764 765 766
3 764 766 767
3 764 769 768
3 764 768 765
3 764 770 769
3 764 767 770
3 771 773 772
3 771 772 774
3 771 775 773
3 771 774 775
3 776 777 778
3 776 778 779
3 780 782 781
3 780 783 782
3 784 786 785
3 784 785 787
3 784 781 782
3 784 782 786
3 788 789 790
3 788 791 789
3 792 793 794
3 792 794 795
3 796 787 785
3 796 785 797
3 798 800 799
3 798 801 800
3 802 790 789
3 802 789 803
3 802 793 792
3 802 803 793
3 804 777 776
3 804 805 777
3 804 796 797
3 804 797 805
3 806 798 799
3 806 807 798
3 808 809 810
3 808 810 811
3 812 811 810
3 812 810 813
3 812 783 780
3 812 813 783
3 814 800 801
3 814 801 815
3 816 807 806
3 816 806 817
3 816 791 788
3 816 817 791
