ply
format ascii 1.0
comment PCL generated
element vertex 719
property float x
property float y
property float z
element face 1434
property list uchar int vertex_indices
end_header
-0.015619 0.01606 -0.046613 
0.016399 -0.013626 0.044135 
0.015619 -0.01606 0.046613 
-0.013743 0.015866 -0.048379 
-0.013775 0.016944 -0.046613 
0.013743 0.015866 -0.048379 
-0.015415 0.013533 -0.04822 
-0.015607 0.015109 -0.04784 
-0.012364 -0.015209 -0.048837 
-0.015619 0.01606 0.046613 
0.015619 0.01606 0.046613 
0.013855 0.013644 0.048868 
0.011452 0.013548 0.048987 
0.012364 0.015209 0.048837 
0.013743 0.015866 0.048379 
0.013855 -0.013644 0.048868 
0.012364 -0.015209 0.048837 
0.015898 -0.016347 0.044135 
0.015898 0.016347 0.044135 
0.016487 -0.013698 0.040661 
0.016497 0.011057 -0.040661 
0.013775 0.016944 -0.046613 
0.016399 -0.013626 -0.044135 
-0.015997 0.016449 0.038294 
-0.016497 0.0061019 -0.040661 
-0.016511 0.0085351 -0.038294 
-0.016125 0.013469 -0.046546 
-0.016409 -0.01134 -0.044135 
-0.016511 -0.011066 -0.038294 
-0.016399 -0.013626 -0.044135 
-0.016487 -0.013698 -0.040661 
0.016399 0.013626 0.044135 
0.016487 0.013698 0.040661 
0.016125 0.013469 0.046546 
0.015415 -0.013533 0.04822 
0.015607 -0.015109 0.04784 
-0.013855 0.013644 0.048868 
-0.011452 0.013548 0.048987 
-0.012364 0.015209 0.048837 
-0.013743 0.015866 0.048379 
0.013835 -0.011178 0.0489 
0.013835 0.011178 0.0489 
-0.016108 -0.011243 0.046669 
-0.015607 0.015109 0.04784 
-0.015415 0.013533 0.04822 
-0.01545 -0.0086948 0.048216 
-0.015504 -0.011208 0.04815 
0.011357 -0.011102 0.049014 
0.011452 -0.013548 0.048987 
0.012364 -0.015209 -0.048837 
-0.015619 -0.01606 0.046613 
0.013743 -0.015866 0.048379 
-0.015898 -0.016347 0.044135 
0.015997 -0.016449 0.038294 
0.016001 -0.016453 0.036019 
0.015983 -0.016435 0.040661 
0.016505 -0.013714 0.036019 
0.016501 -0.01371 0.038294 
0.016105 0.0022178 -0.046691 
0.013855 -0.013644 -0.048868 
0.015415 -0.013533 -0.04822 
0.016003 0.016454 -0.031765 
0.015983 0.016435 -0.040661 
0.015619 0.01606 -0.046613 
0.015607 0.015109 -0.04784 
0.016108 0.011243 -0.046669 
0.015619 -0.01606 -0.046613 
0.013743 -0.015866 -0.048379 
-0.016002 0.016454 -0.033842 
-0.016515 0.0085373 -0.036019 
-0.016506 -0.013715 0.033842 
-0.015474 0.0061285 -0.048187 
-0.01545 0.0086948 -0.048216 
-0.013835 -0.011178 -0.0489 
0.012364 0.015209 -0.048837 
-0.012364 0.015209 -0.048837 
-0.013855 0.013644 -0.048868 
-0.013835 0.011178 -0.0489 
-0.016108 0.011243 -0.046669 
-0.016511 0.0061071 -0.038294 
-0.016497 -0.0085279 -0.040661 
-0.016497 -0.0061019 -0.040661 
-0.016497 -0.011057 -0.040661 
-0.016409 -0.0087804 -0.044135 
-0.016409 -0.0060694 -0.044135 
-0.015415 -0.013533 -0.04822 
-0.013855 -0.013644 -0.048868 
-0.016506 -0.013715 -0.031765 
-0.015983 -0.016435 -0.040661 
0.016125 -0.013469 0.046546 
0.016409 0.01134 0.044135 
0.015607 0.015109 0.04784 
0.01545 0.0086948 0.048216 
0.015415 0.013533 0.04822 
0.016108 0.011243 0.046669 
0.015504 0.011208 0.04815 
0.016105 0.0022178 0.046691 
-0.013835 0.011178 0.0489 
0.013693 0.0020572 0.048919 
0.013693 -0.0020572 0.048919 
0.011357 0.011102 0.049014 
0.013757 0.0087178 0.048912 
0.013757 -0.0087178 0.048912 
0.016003 -0.016455 0.026132 
0.016003 -0.016454 0.031765 
0.016002 -0.016454 0.033842 
0.016003 -0.016455 0.028849 
-0.016399 -0.013626 0.044135 
-0.016125 -0.013469 0.046546 
-0.016125 0.013469 0.046546 
-0.016121 0.0061722 0.046613 
-0.016108 0.011243 0.046669 
-0.016105 0.0022178 0.046691 
-0.016105 -0.0022178 0.046691 
-0.016121 -0.0061722 0.046613 
-0.015474 -0.0021641 0.048187 
-0.015504 0.011208 0.04815 
-0.015474 0.0061285 0.048187 
-0.015474 -0.0061285 0.048187 
-0.01545 0.0086948 0.048216 
0.011276 -0.0086537 0.049015 
0.011276 0.0086537 0.049015 
0.011168 0.0018659 0.049016 
-0.0092269 -0.010937 0.049017 
-0.011357 0.011102 0.049014 
-0.013855 -0.013644 0.048868 
-0.011452 -0.013548 0.048987 
-0.012364 -0.015209 0.048837 
-0.015415 -0.013533 0.04822 
-0.013743 -0.015866 0.048379 
-0.015607 -0.015109 0.04784 
0.015898 -0.016347 -0.044135 
-0.016501 -0.01371 0.038294 
-0.016515 -0.011069 0.036019 
-0.016505 -0.013714 0.036019 
-0.016511 -0.011066 0.038294 
-0.016487 -0.013698 0.040661 
-0.015983 -0.016435 0.040661 
-0.015997 -0.016449 0.038294 
-0.016001 -0.016453 0.036019 
-0.016487 0.013698 0.040661 
-0.015983 0.016435 0.040661 
-0.016399 0.013626 0.044135 
-0.015898 0.016347 0.044135 
0.016507 -0.013715 0.026132 
0.016501 0.01371 0.038294 
0.016515 0.011069 0.036019 
0.016511 0.011066 0.038294 
0.015997 0.016449 0.038294 
0.015983 0.016435 0.040661 
0.016125 -0.013469 -0.046546 
0.015607 -0.015109 -0.04784 
0.016121 -0.0035985 -0.046613 
0.016121 0.0061722 -0.046613 
0.013757 -0.0087178 -0.048912 
0.011357 -0.011102 -0.049014 
0.015474 -0.0061285 -0.048187 
0.015504 -0.011208 -0.04815 
0.016487 -0.013698 -0.040661 
0.016409 -0.01134 -0.044135 
0.016517 0.01107 -0.031765 
0.016506 0.013715 -0.033842 
0.016001 0.016453 -0.036019 
0.015997 0.016449 -0.038294 
0.016002 0.016454 -0.033842 
0.016515 0.011069 -0.036019 
0.016505 0.013714 -0.036019 
0.016517 0.01107 -0.033842 
0.016501 0.01371 -0.038294 
0.016511 0.011066 -0.038294 
0.016399 0.013626 -0.044135 
0.015898 0.016347 -0.044135 
0.016487 0.013698 -0.040661 
0.016125 0.013469 -0.046546 
0.016409 0.01134 -0.044135 
0.016511 -0.011066 -0.038294 
-0.016001 0.016453 -0.036019 
-0.015997 0.016449 -0.038294 
-0.016505 0.013714 -0.036019 
-0.016511 0.011066 -0.038294 
-0.016515 0.011069 -0.036019 
-0.016003 0.016454 -0.031765 
-0.016517 0.01107 -0.031765 
-0.016517 0.01107 -0.033842 
-0.016506 0.013715 -0.031765 
-0.016506 0.013715 -0.033842 
-0.016511 0.011066 0.038294 
-0.016517 -0.01107 0.028849 
-0.016506 -0.013715 0.031765 
-0.016517 -0.01107 0.026132 
-0.016517 0.0085379 0.033842 
-0.016517 -0.01107 0.031765 
-0.016517 -0.01107 0.033842 
-0.013693 -0.0020572 -0.048919 
-0.013757 -0.0087178 -0.048912 
-0.013693 0.0020572 -0.048919 
-0.013757 0.0087178 -0.048912 
-0.015474 -0.0021641 -0.048187 
-0.015474 0.0021641 -0.048187 
-0.015474 -0.0061285 -0.048187 
-0.01545 -0.0086948 -0.048216 
-0.016108 -0.011243 -0.046669 
-0.015504 -0.011208 -0.04815 
-0.015504 0.011208 -0.04815 
-0.016121 -0.0035985 -0.046613 
-0.016121 0.0061722 -0.046613 
-0.016121 -0.0061722 -0.046613 
-0.016133 -0.0087546 -0.046552 
-0.016105 -0.0022178 -0.046691 
-0.016105 0.0022178 -0.046691 
-0.016409 0.0060694 -0.044135 
-0.016133 0.0087546 -0.046552 
-0.016409 0.0087804 -0.044135 
-0.016497 0.0085279 -0.040661 
-0.016511 -0.0085351 -0.038294 
-0.016002 -0.016454 0.033842 
-0.015619 -0.01606 -0.046613 
-0.015898 -0.016347 -0.044135 
-0.016125 -0.013469 -0.046546 
-0.015607 -0.015109 -0.04784 
-0.013743 -0.015866 -0.048379 
-0.016003 -0.016454 -0.031765 
-0.016505 -0.013714 -0.036019 
-0.016501 -0.01371 -0.038294 
-0.015997 -0.016449 -0.038294 
-0.016002 -0.016454 -0.033842 
0.016409 -0.01134 0.044135 
0.015474 -0.0061285 0.048187 
0.01545 -0.0086948 0.048216 
0.015504 -0.011208 0.04815 
0.015474 0.0061285 0.048187 
0.016121 -0.0061722 0.046613 
0.016108 -0.011243 0.046669 
0.016105 -0.0022178 0.046691 
0.016121 0.0061722 0.046613 
-0.013757 -0.0087178 0.048912 
-0.013757 0.0087178 0.048912 
-0.013693 0.0020572 0.048919 
-0.013693 -0.0020572 0.048919 
-0.013835 -0.011178 0.0489 
-0.011357 -0.011102 0.049014 
0.014114 -0.017361 0.023656 
0.016507 -0.013715 0.023656 
-0.016409 -0.01134 0.044135 
-0.016409 0.01134 0.044135 
-0.016497 0.011057 0.040661 
0.0092269 -0.010937 0.049017 
0.011168 -0.0018659 0.049016 
0.011238 -0.0061739 0.049015 
-0.016497 0.0061019 0.040661 
-0.016511 0.0061071 0.038294 
-0.016511 0.0085351 0.038294 
0.016507 -0.013715 0.016271 
0.016517 -0.01107 0.033842 
0.016506 -0.013715 0.033842 
0.016506 -0.013715 0.031765 
0.016507 -0.013715 0.028849 
0.016506 0.013715 0.033842 
0.016506 0.013715 0.031765 
0.016505 0.013714 0.036019 
0.016511 0.0085351 0.038294 
0.016497 0.011057 0.040661 
0.016409 0.0087804 0.044135 
0.016515 -0.011069 0.036019 
0.016511 -0.011066 0.038294 
0.016497 -0.011057 0.040661 
-0.014114 0.017361 -0.023656 
-0.016003 0.016455 -0.028849 
0.016001 0.016453 0.036019 
0.016121 -0.0061722 -0.046613 
0.016105 -0.0022178 -0.046691 
0.016108 -0.011243 -0.046669 
0.013693 0.0020572 -0.048919 
0.013693 -0.0020572 -0.048919 
0.013835 0.011178 -0.0489 
0.013855 0.013644 -0.048868 
0.013757 0.0087178 -0.048912 
0.013835 -0.011178 -0.0489 
0.015415 0.013533 -0.04822 
0.01545 -0.0086948 -0.048216 
0.011357 0.011102 -0.049014 
0.011452 0.013548 -0.048987 
0.015474 0.0061285 -0.048187 
0.01545 0.0086948 -0.048216 
0.015504 0.011208 -0.04815 
0.015474 0.0021641 -0.048187 
0.016497 -0.011057 -0.040661 
0.016409 -0.0087804 -0.044135 
0.016507 0.013715 -0.028849 
0.016506 0.013715 -0.031765 
0.016003 0.016455 -0.028849 
0.016517 -0.01107 -0.033842 
0.016515 -0.011069 -0.036019 
-0.016487 0.013698 -0.040661 
-0.016501 0.01371 -0.038294 
-0.015983 0.016435 -0.040661 
-0.015898 0.016347 -0.044135 
-0.016399 0.013626 -0.044135 
-0.016497 0.011057 -0.040661 
-0.016409 0.01134 -0.044135 
-0.016511 -0.0061071 0.038294 
-0.016515 -0.0085373 0.036019 
-0.016517 -0.01107 -0.033842 
-0.016515 -0.0085373 -0.036019 
-0.016515 -0.011069 -0.036019 
-0.016506 -0.013715 -0.033842 
-0.016517 -0.01107 -0.031765 
-0.016517 -0.0085379 -0.033842 
-0.016515 -0.0061086 -0.036019 
-0.016517 -0.0085382 -0.026132 
-0.016517 -0.0061093 -0.026132 
-0.016517 -0.0085382 -0.028849 
-0.016003 -0.016454 0.031765 
-0.016517 -0.0061093 0.026132 
-0.016517 -0.0085382 0.026132 
-0.016517 -0.0085382 0.023656 
-0.016517 -0.0061093 0.028849 
-0.016517 -0.0085381 0.031765 
-0.016517 -0.0085382 0.028849 
-0.016517 -0.0085379 0.033842 
-0.016517 -0.01107 -0.028849 
0.014114 -0.017361 -0.023656 
-0.016507 -0.013715 -0.028849 
-0.016001 -0.016453 -0.036019 
-0.016409 0.0060694 0.044135 
-0.016409 0.0087804 0.044135 
-0.016497 0.0085279 0.040661 
-0.016133 0.0087546 0.046552 
0.0069296 -0.0082385 0.049018 
0.008677 -0.0016735 0.049018 
0.00883 -0.0085809 0.049018 
0.008677 0.0016735 0.049018 
0.016517 -0.01107 -0.031765 
0.016506 -0.013715 -0.033842 
0.016505 -0.013714 -0.036019 
0.015997 -0.016449 -0.038294 
0.015983 -0.016435 -0.040661 
0.016501 -0.01371 -0.038294 
0.016001 -0.016453 -0.036019 
0.016517 -0.0085381 -0.031765 
0.016517 -0.0085381 0.031765 
0.016517 -0.0085379 0.033842 
0.016517 -0.01107 0.031765 
0.016517 -0.01107 0.028849 
0.016507 0.013715 0.028849 
0.016517 0.01107 -0.028849 
0.016515 0.0085373 0.036019 
0.016511 0.0061071 0.038294 
0.016497 0.0061019 0.040661 
0.016409 0.0060694 0.044135 
0.016497 0.0085279 0.040661 
0.016497 -0.0061019 0.040661 
0.016511 -0.0085351 0.038294 
-0.016003 0.016455 -0.026132 
-0.016507 0.013715 -0.028849 
0.016003 0.016455 -0.026132 
0.016003 0.016455 0.028849 
0.016003 0.016454 0.031765 
0.016002 0.016454 0.033842 
0.016507 0.013715 -0.021367 
0.016507 0.013715 -0.026132 
0.016409 0.0060694 -0.044135 
0.016409 0.0087804 -0.044135 
-0.016003 0.016454 0.031765 
-0.016517 0.01107 0.031765 
-0.016515 0.0085373 0.036019 
-0.016515 0.0061086 -0.036019 
-0.016517 0.0085379 -0.033842 
-0.016507 -0.013715 0.028849 
0.0092269 -0.010937 -0.049017 
-0.011452 -0.013548 -0.048987 
0.011452 -0.013548 -0.048987 
-0.016003 -0.016455 -0.028849 
-0.016003 -0.016455 -0.026132 
-0.014114 -0.017361 -0.023656 
0.016409 -0.0060694 0.044135 
0.016409 -0.0087804 0.044135 
0.016497 -0.0085279 0.040661 
-0.016497 -0.0085279 0.040661 
-0.016409 -0.0087804 0.044135 
-0.016497 -0.011057 0.040661 
-0.016497 -0.0061019 0.040661 
-0.016511 -0.0085351 0.038294 
-0.016409 -0.0060694 0.044135 
-0.016133 -0.0087546 0.046552 
-0.00883 0.0085809 0.049018 
-0.0062361 0.0036277 0.049018 
-0.008677 0.0016735 0.049018 
0.0062361 0.0036277 0.049018 
0.00883 0.0085809 0.049018 
-0.0092269 0.010937 0.049017 
0.0092269 0.010937 0.049017 
-0.008677 -0.0016735 0.049018 
-0.011276 0.0086537 0.049015 
-0.011238 0.006174 0.049015 
-0.011168 0.0018659 0.049016 
0.016003 -0.016454 -0.031765 
0.016002 -0.016454 -0.033842 
0.016506 -0.013715 -0.031765 
0.016517 0.0061093 -0.026132 
0.016517 0.0085382 -0.028849 
0.016517 -0.0061093 -0.026132 
0.016517 -0.0061093 -0.028849 
0.016517 -0.0085382 -0.023656 
0.016517 -0.0085382 -0.026132 
0.016517 -0.0085382 -0.028849 
0.016517 -0.01107 -0.028849 
0.016507 -0.013715 -0.028849 
0.016515 -0.0085373 0.036019 
0.016003 0.016455 0.026132 
0.014114 0.017361 -0.023656 
0.016497 0.0061019 -0.040661 
0.016497 0.0085279 -0.040661 
0.016409 -0.0060694 -0.044135 
0.016515 -0.0085373 -0.036019 
0.016515 0.0061086 -0.036019 
0.016515 0.0085373 -0.036019 
0.016517 0.0085379 -0.033842 
0.016511 0.0085351 -0.038294 
-0.014114 0.017361 0.023656 
-0.016501 0.01371 0.038294 
-0.016515 0.011069 0.036019 
-0.016517 0.0061093 0.026132 
-0.016517 0.0085382 0.023656 
-0.016517 0.0085382 0.026132 
-0.016517 0.0085382 0.028849 
-0.016507 -0.013715 0.026132 
-0.016507 -0.013715 0.021367 
-0.016003 -0.016455 0.028849 
-0.016517 -0.0085382 -0.023656 
0.011168 -0.0018659 -0.049016 
0.016003 -0.016455 -0.028849 
0.016003 -0.016455 -0.026132 
-0.011238 -0.0061739 0.049015 
-0.011243 0.0036069 0.049015 
-0.011168 -0.0018659 0.049016 
-0.011276 -0.0086537 0.049015 
-0.00883 -0.0085809 0.049018 
0.016517 0.01107 0.031765 
0.016517 0.01107 0.033842 
0.016517 0.01107 0.028849 
0.016507 0.013715 0.026132 
0.016515 0.0061086 0.036019 
0.014114 0.017361 0.023656 
0.016517 0.01107 0.023656 
0.016507 0.013715 0.023656 
0.016517 0.01107 0.026132 
0.016517 0.0085382 0.023656 
0.016497 -0.0061019 -0.040661 
0.016497 -0.0085279 -0.040661 
0.016515 -0.0061086 -0.036019 
0.016511 -0.0085351 -0.038294 
-0.016507 0.013715 0.026132 
-0.016003 0.016455 0.026132 
-0.016003 0.016455 0.028849 
-0.016507 0.013715 0.028849 
-0.016507 0.013715 0.021367 
-0.016517 0.01107 0.026132 
-0.016517 0.01107 0.028849 
-0.016506 0.013715 0.033842 
-0.016001 0.016453 0.036019 
-0.016002 0.016454 0.033842 
-0.016505 0.013714 0.036019 
-0.016506 0.013715 0.031765 
-0.016517 0.01107 0.033842 
-0.016003 -0.016455 0.026132 
-0.016517 -0.01107 0.023656 
-0.016507 -0.013715 0.0066124 
0.0069296 -0.0082385 -0.049018 
0.00883 -0.0085809 -0.049018 
0.008677 -0.0016735 -0.049018 
0.011238 -0.0061739 -0.049015 
0.011276 -0.0086537 -0.049015 
0.016517 -0.0061093 0.028849 
0.016517 -0.0061093 0.026132 
0.016517 -0.0085382 0.028849 
0.016517 0.0061093 0.028849 
0.016517 0.0085382 0.028849 
0.016517 0.0061093 0.026132 
0.016517 0.0085382 0.026132 
-0.016507 0.013715 -0.021367 
-0.016517 0.01107 -0.026132 
-0.016517 0.01107 -0.023656 
-0.016507 0.013715 -0.026132 
-0.008677 -0.0016735 -0.049018 
0.011238 0.0061739 -0.049015 
0.011276 0.0086537 -0.049015 
0.011168 0.0018659 -0.049016 
0.011243 -0.0036069 -0.049015 
-0.0062361 0.0036277 -0.049018 
0.008677 0.0016735 -0.049018 
-0.008677 0.0016735 -0.049018 
-0.0092269 0.010937 -0.049017 
-0.011357 0.011102 -0.049014 
-0.00883 0.0085809 -0.049018 
-0.011452 0.013548 -0.048987 
0.0092269 0.010937 -0.049017 
0.00883 0.0085809 -0.049018 
-0.011276 -0.0086537 -0.049015 
-0.011276 0.0086537 -0.049015 
-0.011168 0.0018659 -0.049016 
-0.011168 -0.0018659 -0.049016 
-0.011357 -0.011102 -0.049014 
-0.0092269 -0.010937 -0.049017 
-0.00883 -0.0085809 -0.049018 
-0.016517 0.0085382 -0.028849 
-0.016517 0.0085381 -0.031765 
-0.016517 0.0061093 -0.028849 
-0.016517 0.01107 -0.028849 
-0.016517 0.01107 -0.016271 
-0.016517 0.01107 0.016271 
-0.016517 0.01107 0.023656 
-0.016507 0.013715 0.016271 
0.014022 0.017248 0.044135 
-0.014097 0.01734 0.040661 
0.014097 0.01734 0.040661 
-0.014022 0.017248 0.044135 
0.014097 0.01734 -0.040661 
-0.014097 0.01734 -0.040661 
-0.014022 0.017248 -0.044135 
0.014022 0.017248 -0.044135 
0.013775 0.016944 0.046613 
-0.013775 0.016944 0.046613 
0.013775 -0.016944 -0.046613 
-0.014022 -0.017248 -0.044135 
0.014022 -0.017248 -0.044135 
-0.013775 -0.016944 -0.046613 
-0.014114 0.017361 -0.033842 
0.014114 0.017361 -0.033842 
0.014113 0.017359 -0.036019 
-0.014113 0.017359 -0.036019 
0.014109 0.017355 -0.038294 
-0.014109 0.017355 -0.038294 
-0.014113 -0.017359 0.036019 
0.014109 -0.017355 0.038294 
-0.014109 -0.017355 0.038294 
0.014113 -0.017359 0.036019 
-0.014114 -0.017361 0.033842 
0.014114 -0.017361 0.033842 
0.014097 -0.01734 -0.040661 
-0.014097 -0.01734 -0.040661 
-0.014109 -0.017355 -0.038294 
0.014109 -0.017355 -0.038294 
-0.013775 -0.016944 0.046613 
-0.014022 -0.017248 0.044135 
0.014022 -0.017248 0.044135 
0.013775 -0.016944 0.046613 
-0.014097 -0.01734 0.040661 
0.014097 -0.01734 0.040661 
0.014114 0.017361 -0.031765 
-0.014114 0.017361 -0.031765 
-0.014114 0.017361 -0.028849 
0.014114 0.017361 -0.028849 
-0.016409 0.003537 -0.044135 
-0.016497 -0.0035559 -0.040661 
-0.016497 0.0035559 -0.040661 
-0.016409 -0.003537 -0.044135 
0.016003 -0.016455 0.023656 
0.014114 -0.017361 -0.021367 
0.014114 -0.017361 0.021367 
0.016003 -0.016455 -0.023656 
0.016507 -0.013715 -0.0066124 
0.014109 0.017355 0.038294 
-0.014109 0.017355 0.038294 
-0.016511 -0.0035589 -0.038294 
-0.016511 0.0035589 -0.038294 
-0.016515 -0.0035598 -0.036019 
-0.016515 0.0035598 -0.036019 
-0.014114 -0.017361 -0.031765 
0.014114 -0.017361 -0.031765 
0.014114 -0.017361 -0.033842 
-0.014114 -0.017361 -0.033842 
-0.014114 -0.017361 0.031765 
0.014114 -0.017361 0.031765 
0.014113 0.017359 0.036019 
-0.014113 0.017359 0.036019 
0.014114 0.017361 0.033842 
-0.014114 0.017361 0.033842 
0.016409 0.003537 -0.044135 
0.016409 -0.003537 -0.044135 
0.016133 -0.0087546 -0.046552 
0.016133 0.0087546 -0.046552 
-0.016511 -0.0035589 0.038294 
-0.016511 0.0035589 0.038294 
-0.016497 0.0035559 0.040661 
-0.016497 -0.0035559 0.040661 
-0.016517 -0.0061092 0.031765 
-0.016517 -0.0035602 0.028849 
-0.016517 0.0035602 0.028849 
-0.016517 0.0085381 0.031765 
-0.016517 0.0022281 0.033842 
-0.016517 -0.0022281 0.033842 
-0.016507 -0.013715 -0.026132 
-0.016517 -0.01107 -0.026132 
-0.016517 -0.01107 -0.023656 
-0.016507 -0.013715 -0.023656 
-0.014114 -0.017361 -0.021367 
-0.014114 -0.017361 0.021367 
0.014114 -0.017361 -0.026132 
-0.014114 -0.017361 -0.026132 
-0.016003 -0.016455 -0.023656 
-0.016003 -0.016455 0.021367 
-0.014113 -0.017359 -0.036019 
0.014113 -0.017359 -0.036019 
0.016409 -0.003537 0.044135 
0.016133 -0.0087546 0.046552 
0.016133 0.0087546 0.046552 
0.016409 0.003537 0.044135 
0.016517 -0.0061092 -0.031765 
0.016517 0.0022281 -0.033842 
0.016517 0.0085381 -0.031765 
0.016517 -0.0085379 -0.033842 
0.016517 -0.01107 -0.0066124 
0.016507 -0.013715 -0.023656 
0.016517 -0.01107 -0.023656 
0.016517 0.0035602 -0.026132 
0.016517 0.0022282 -0.023656 
0.016517 -0.0061093 -0.023656 
0.016517 -0.0035602 -0.026132 
0.016517 -0.0085382 0.023656 
0.016517 -0.0085382 0.026132 
0.016517 -0.01107 0.026132 
0.016517 -0.01107 0.023656 
0.016497 0.0035559 0.040661 
0.016497 -0.0035559 0.040661 
0.016511 -0.0035589 0.038294 
0.016511 0.0035589 0.038294 
0.014114 0.017361 0.021367 
0.014114 0.017361 -0.021367 
-0.014114 0.017361 0.021367 
-0.014114 0.017361 -0.021367 
0.014114 0.017361 -0.026132 
-0.014114 0.017361 -0.026132 
0.014114 0.017361 0.031765 
-0.014114 0.017361 0.031765 
-0.014114 0.017361 0.028849 
0.014114 0.017361 0.028849 
0.016517 0.01107 -0.023656 
0.016517 0.0085382 -0.023656 
0.016517 0.0085382 -0.026132 
0.016517 0.01107 -0.026132 
-0.016003 0.016455 0.023656 
-0.016003 0.016455 -0.023656 
-0.016515 0.0035598 0.036019 
-0.016515 -0.0035598 0.036019 
-0.016517 0.0035602 0.026132 
-0.016517 -0.0035602 0.026132 
-0.016517 0.0022281 -0.033842 
-0.016517 -0.0022281 -0.033842 
-0.016517 0.0061092 -0.031765 
-0.016517 -0.0085381 -0.031765 
-0.016409 -0.003537 0.044135 
-0.016409 0.003537 0.044135 
0.016517 -0.0035602 -0.028849 
0.016517 0.0035602 -0.028849 
0.016003 0.016455 0.023656 
0.016003 0.016455 -0.023656 
0.016507 0.013715 0.0066124 
0.016517 0.0035602 0.023656 
0.016517 -0.0061093 0.023656 
0.016517 -0.0035602 0.026132 
0.016517 0.0035602 0.026132 
0.016517 -0.0085382 0.021367 
0.016517 -0.0085382 -0.016271 
0.016517 0.0061093 -0.023656 
0.016517 0.0085382 -0.021367 
0.016517 0.0085382 0.016271 
0.016517 0.0061093 0.023656 
0.016517 -0.01107 0.011136 
0.016517 -0.01107 -0.026132 
0.016507 -0.013715 -0.026132 
0.014114 0.017361 0.026132 
-0.014114 0.017361 0.026132 
0.016517 0.01107 0.016271 
0.016517 0.01107 -0.0084397 
0.016497 -0.0035559 -0.040661 
0.016497 0.0035559 -0.040661 
0.016511 0.0035589 -0.038294 
0.016511 -0.0035589 -0.038294 
-0.016517 0.0035602 0.023656 
-0.016517 -0.0085382 -0.016271 
-0.016517 -0.0061093 -0.023656 
-0.016517 0.0085382 -0.021367 
-0.016517 0.0085382 0.021367 
-0.016517 0.0061093 0.023656 
-0.016517 0.0061093 -0.023656 
-0.016517 -0.0061093 0.023656 
-0.016517 -0.0022282 0.023656 
-0.016517 -0.0022282 -0.023656 
-0.016517 -0.0085382 0.016271 
-0.016517 0.0035602 -0.026132 
-0.016517 -0.0035602 -0.026132 
-0.014114 -0.017361 0.028849 
0.014114 -0.017361 0.028849 
0.014114 -0.017361 -0.028849 
-0.014114 -0.017361 -0.028849 
0.016517 -0.0035602 0.028849 
0.016517 0.0035602 0.028849 
0.016517 0.0085381 0.031765 
0.016517 -0.0061092 0.031765 
0.016517 -0.0022281 0.033842 
0.016517 0.0085379 0.033842 
0.016515 0.0035598 0.036019 
0.016515 -0.0035598 0.036019 
0.016515 -0.0035598 -0.036019 
0.016515 0.0035598 -0.036019 
-0.016517 0.0061093 -0.026132 
-0.016517 0.0085382 -0.026132 
-0.016517 0.0085382 -0.023656 
-0.016517 0.0035602 -0.028849 
-0.016517 -0.0035602 -0.028849 
-0.014114 -0.017361 0.026132 
0.014114 -0.017361 0.026132 
-0.016517 -0.01107 0.0084397 
-0.016517 -0.01107 -0.016271 
-0.014114 -0.017361 0.023656 
-0.016003 -0.016455 0.023656 
-0.016517 0.01107 -0.011136 
-0.016517 0.01107 -0.0066124 
3 18 149 515
3 519 4 296
3 76 6 7
3 26 297 296
3 3 75 76
3 3 76 7
3 130 128 46
3 107 52 108
3 107 136 52
3 21 519 520
3 21 4 519
3 151 59 60
3 518 519 296
3 9 109 43
3 77 6 76
3 0 26 296
3 0 7 26
3 0 296 4
3 0 4 3
3 0 3 7
3 299 297 26
3 203 7 6
3 29 27 218
3 29 30 27
3 522 516 9
3 513 18 515
3 13 14 38
3 13 38 37
3 13 37 12
3 40 47 48
3 1 17 19
3 1 89 17
3 1 19 226
3 1 226 89
3 2 89 35
3 2 17 89
3 2 35 51
3 2 51 546
3 2 546 545
3 2 545 17
3 50 129 130
3 50 108 52
3 50 130 108
3 548 17 545
3 261 147 145
3 5 275 74
3 5 64 275
3 5 74 75
3 5 75 3
3 5 3 4
3 5 4 21
3 278 275 64
3 362 20 412
3 63 64 5
3 63 5 21
3 181 550 68
3 176 530 532
3 176 532 177
3 295 177 532
3 295 532 518
3 295 518 296
3 133 192 70
3 133 70 134
3 143 9 516
3 143 516 514
3 143 514 141
3 143 109 9
3 143 142 109
3 23 420 141
3 72 6 77
3 72 203 6
3 371 59 49
3 207 218 27
3 213 179 298
3 78 203 209
3 78 26 7
3 78 7 203
3 8 220 86
3 8 86 370
3 8 49 220
3 8 370 371
3 8 371 49
3 555 24 213
3 555 79 24
3 120 47 121
3 33 31 18
3 229 34 35
3 39 38 14
3 39 14 522
3 39 9 43
3 39 522 9
3 10 14 91
3 10 33 18
3 10 91 33
3 521 522 14
3 521 14 10
3 521 18 513
3 521 10 18
3 97 124 37
3 97 44 119
3 97 119 239
3 100 391 121
3 100 12 391
3 100 41 12
3 100 121 47
3 390 37 124
3 390 12 37
3 390 391 12
3 389 121 391
3 11 12 41
3 11 13 12
3 11 41 93
3 11 14 13
3 11 93 91
3 11 91 14
3 15 35 34
3 15 51 35
3 15 16 51
3 15 34 40
3 15 48 16
3 15 40 48
3 99 100 47
3 538 54 536
3 42 46 113
3 42 108 130
3 42 130 46
3 42 384 108
3 111 43 109
3 45 128 239
3 45 239 119
3 45 46 128
3 127 16 48
3 127 129 51
3 127 51 16
3 523 526 220
3 544 50 52
3 137 138 535
3 137 52 136
3 534 536 54
3 55 17 548
3 55 19 17
3 55 548 534
3 55 57 19
3 148 149 145
3 148 145 268
3 32 261 145
3 32 145 149
3 32 149 18
3 32 18 31
3 265 226 19
3 265 19 57
3 265 57 264
3 527 68 550
3 527 530 176
3 527 176 68
3 157 279 156
3 157 151 60
3 157 60 279
3 150 159 22
3 281 74 275
3 284 278 64
3 284 64 65
3 284 65 58
3 284 58 157
3 418 412 20
3 153 65 581
3 153 58 65
3 169 418 20
3 168 172 62
3 168 20 172
3 168 169 20
3 174 20 362
3 174 172 20
3 174 362 581
3 531 62 517
3 171 62 172
3 171 520 517
3 171 517 62
3 171 21 520
3 171 63 21
3 158 22 159
3 131 150 22
3 131 22 158
3 558 321 560
3 267 550 181
3 251 186 365
3 301 192 133
3 460 420 23
3 460 577 461
3 575 577 460
3 563 141 514
3 563 23 141
3 563 460 23
3 563 575 460
3 25 180 179
3 25 179 213
3 25 24 79
3 25 213 24
3 69 180 25
3 69 25 79
3 317 318 187
3 650 320 311
3 73 86 85
3 73 85 200
3 73 370 86
3 73 502 370
3 73 72 77
3 73 200 72
3 198 72 200
3 202 200 85
3 83 207 27
3 212 298 299
3 212 213 298
3 211 26 78
3 211 299 26
3 211 212 299
3 214 554 81
3 214 303 308
3 214 304 303
3 214 28 304
3 82 27 30
3 82 28 214
3 82 83 27
3 223 30 88
3 223 82 30
3 223 28 82
3 223 304 28
3 217 30 29
3 217 88 30
3 217 29 218
3 217 526 524
3 217 524 540
3 217 540 88
3 225 87 305
3 541 88 540
3 90 31 33
3 90 32 31
3 90 261 32
3 606 90 33
3 94 33 91
3 94 606 33
3 228 34 229
3 228 41 40
3 228 40 34
3 92 93 41
3 92 41 228
3 232 35 89
3 232 229 35
3 36 37 38
3 36 97 37
3 36 44 97
3 36 38 39
3 36 43 44
3 36 39 43
3 237 240 124
3 247 389 329
3 102 47 40
3 102 99 47
3 102 40 41
3 101 41 100
3 101 102 41
3 103 106 693
3 103 256 106
3 105 54 538
3 105 254 54
3 105 255 254
3 56 54 254
3 56 57 54
3 114 42 113
3 114 384 42
3 327 111 109
3 327 652 384
3 116 111 112
3 116 43 111
3 116 113 46
3 116 112 113
3 116 117 119
3 116 44 43
3 116 119 44
3 118 45 119
3 118 46 45
3 118 116 46
3 246 47 120
3 246 48 47
3 246 123 48
3 246 437 123
3 126 127 48
3 126 48 123
3 126 123 240
3 126 240 239
3 539 525 131
3 67 220 49
3 67 523 220
3 67 59 151
3 67 49 59
3 543 129 50
3 543 50 544
3 543 51 129
3 543 546 51
3 135 301 133
3 245 420 186
3 585 300 381
3 547 137 535
3 547 544 52
3 547 52 137
3 139 134 70
3 139 70 215
3 139 533 535
3 139 535 138
3 139 537 533
3 139 215 537
3 53 54 57
3 53 57 55
3 53 534 54
3 53 55 534
3 663 614 403
3 663 403 617
3 146 145 147
3 358 258 357
3 263 254 253
3 263 56 254
3 263 264 57
3 263 57 56
3 551 550 267
3 549 164 528
3 549 552 290
3 270 157 58
3 270 58 153
3 580 159 150
3 580 287 159
3 580 153 581
3 277 59 371
3 277 60 59
3 277 279 60
3 155 371 369
3 155 277 371
3 283 278 284
3 416 167 417
3 61 289 164
3 61 290 289
3 61 164 549
3 61 549 290
3 160 167 289
3 160 289 345
3 163 168 62
3 163 62 531
3 173 64 63
3 173 63 171
3 173 65 64
3 173 581 65
3 173 174 581
3 66 525 523
3 66 131 525
3 66 67 151
3 66 523 67
3 66 151 150
3 66 150 131
3 334 291 333
3 334 337 175
3 332 333 291
3 178 68 176
3 178 185 68
3 178 180 185
3 184 181 68
3 184 68 185
3 183 185 180
3 183 180 69
3 250 251 365
3 464 589 190
3 464 190 365
3 366 69 79
3 367 183 69
3 367 69 366
3 188 215 70
3 188 312 215
3 189 314 315
3 189 187 318
3 189 318 314
3 191 317 187
3 191 70 192
3 191 188 70
3 680 681 429
3 306 320 650
3 306 305 87
3 194 502 73
3 71 203 72
3 71 72 198
3 71 202 203
3 71 198 202
3 199 200 202
3 196 77 493
3 196 493 195
3 196 73 77
3 196 194 73
3 495 75 74
3 495 74 281
3 495 76 75
3 495 77 76
3 495 493 77
3 201 218 207
3 201 207 206
3 84 556 207
3 84 207 83
3 84 554 556
3 205 78 209
3 205 211 78
3 553 207 556
3 553 211 207
3 566 214 308
3 565 79 555
3 565 366 79
3 565 567 366
3 80 214 81
3 80 82 214
3 80 83 82
3 80 84 83
3 80 81 554
3 80 554 84
3 222 305 304
3 222 304 223
3 222 225 305
3 322 320 306
3 322 306 87
3 573 105 538
3 573 693 106
3 219 202 85
3 219 218 201
3 219 201 202
3 219 86 220
3 219 85 86
3 221 87 225
3 221 322 87
3 224 223 88
3 224 88 541
3 605 89 226
3 605 232 89
3 262 90 606
3 262 261 90
3 230 92 228
3 95 96 94
3 95 230 229
3 95 94 91
3 95 92 230
3 95 91 93
3 95 93 92
3 234 94 96
3 234 606 94
3 233 229 232
3 233 96 95
3 233 95 229
3 233 234 96
3 236 97 239
3 236 124 97
3 236 237 124
3 238 240 237
3 331 329 389
3 122 121 389
3 122 389 247
3 98 100 99
3 98 101 100
3 98 99 102
3 98 102 101
3 561 560 613
3 712 103 693
3 557 103 712
3 144 256 103
3 144 242 622
3 144 557 242
3 144 103 557
3 104 255 105
3 104 106 256
3 104 256 255
3 104 573 106
3 104 105 573
3 243 107 108
3 243 108 384
3 243 136 107
3 243 380 136
3 244 109 142
3 244 327 109
3 110 111 327
3 110 112 111
3 110 327 384
3 110 113 112
3 110 384 114
3 110 114 113
3 115 117 116
3 115 116 118
3 115 119 117
3 115 118 119
3 392 437 329
3 248 246 120
3 248 120 121
3 248 121 122
3 248 122 247
3 436 240 123
3 436 123 437
3 393 390 124
3 393 124 240
3 393 240 436
3 125 126 239
3 125 127 126
3 125 239 128
3 125 129 127
3 125 130 129
3 125 128 130
3 336 542 539
3 336 539 131
3 336 131 158
3 336 158 337
3 382 300 301
3 382 301 135
3 382 135 380
3 382 381 300
3 132 133 134
3 132 135 133
3 132 136 380
3 132 380 135
3 132 137 136
3 132 138 137
3 132 139 138
3 132 134 139
3 140 420 245
3 140 141 420
3 140 244 142
3 140 245 244
3 140 143 141
3 140 142 143
3 326 186 251
3 326 245 186
3 611 332 291
3 611 339 332
3 621 475 343
3 621 144 622
3 621 343 256
3 621 256 144
3 344 258 440
3 344 440 441
3 344 357 258
3 439 146 346
3 439 346 701
3 259 145 146
3 259 268 145
3 259 146 439
3 259 358 268
3 260 146 147
3 260 346 146
3 260 147 261
3 408 341 700
3 408 263 253
3 408 253 341
3 562 148 268
3 562 515 149
3 562 149 148
3 576 268 358
3 271 580 150
3 271 157 270
3 271 151 157
3 271 150 151
3 152 270 153
3 152 153 580
3 152 580 270
3 280 155 486
3 280 273 155
3 472 486 155
3 472 155 369
3 154 155 273
3 154 277 155
3 154 273 276
3 154 276 277
3 285 279 283
3 285 156 279
3 285 157 156
3 285 284 157
3 286 337 158
3 286 175 337
3 286 158 159
3 286 159 287
3 451 175 286
3 360 640 345
3 610 417 167
3 610 167 160
3 610 160 345
3 161 164 289
3 161 166 164
3 161 289 167
3 161 167 166
3 162 168 163
3 162 166 168
3 162 164 166
3 162 529 528
3 162 528 164
3 162 531 529
3 162 163 531
3 165 166 167
3 165 167 416
3 165 169 168
3 165 168 166
3 165 418 169
3 165 416 418
3 170 171 172
3 170 173 171
3 170 172 174
3 170 174 173
3 292 291 334
3 292 334 175
3 292 175 451
3 406 332 339
3 398 333 332
3 413 287 580
3 413 580 579
3 294 176 177
3 294 178 176
3 294 177 295
3 294 298 179
3 294 179 180
3 294 180 178
3 354 267 181
3 354 181 184
3 182 506 508
3 182 367 506
3 182 183 367
3 182 508 354
3 182 354 184
3 182 184 185
3 182 185 183
3 583 250 365
3 583 584 250
3 421 365 186
3 421 464 365
3 421 186 420
3 307 308 303
3 649 506 367
3 310 429 681
3 310 681 691
3 310 691 311
3 467 600 601
3 467 595 600
3 368 191 187
3 368 188 191
3 368 187 189
3 368 189 426
3 368 312 188
3 686 646 687
3 466 189 315
3 466 426 189
3 590 190 589
3 590 365 190
3 319 191 192
3 319 317 191
3 319 301 591
3 319 192 301
3 316 314 318
3 593 311 320
3 193 502 194
3 193 493 502
3 193 195 493
3 193 196 195
3 193 194 196
3 197 202 198
3 197 199 202
3 197 198 200
3 197 200 199
3 208 201 206
3 208 202 201
3 208 209 203
3 208 203 202
3 204 211 205
3 204 206 207
3 204 207 211
3 204 208 206
3 204 205 209
3 204 209 208
3 210 212 211
3 210 211 553
3 210 213 212
3 210 553 555
3 210 555 213
3 564 554 214
3 564 214 566
3 568 225 571
3 568 221 225
3 572 537 215
3 572 215 312
3 216 217 218
3 216 218 219
3 216 526 217
3 216 220 526
3 216 219 220
3 372 322 221
3 372 221 568
3 323 222 223
3 323 223 224
3 323 225 222
3 323 571 225
3 323 224 541
3 376 605 226
3 376 226 265
3 376 265 377
3 349 606 607
3 349 262 606
3 227 228 229
3 227 229 230
3 227 230 228
3 231 232 605
3 231 233 232
3 231 234 233
3 231 605 606
3 231 606 234
3 235 237 236
3 235 238 237
3 235 236 239
3 235 239 240
3 235 240 238
3 388 331 389
3 241 559 557
3 241 712 559
3 241 557 712
3 252 557 561
3 252 242 557
3 252 622 242
3 379 243 384
3 379 380 243
3 325 327 244
3 325 244 245
3 325 245 326
3 330 437 246
3 330 247 329
3 330 248 247
3 330 246 248
3 387 329 331
3 387 392 329
3 395 435 437
3 338 603 542
3 338 570 603
3 338 337 334
3 249 251 250
3 249 326 251
3 249 250 584
3 249 584 326
3 668 622 252
3 668 252 561
3 699 700 341
3 342 341 253
3 342 253 254
3 342 254 255
3 342 256 343
3 342 255 256
3 356 357 344
3 438 440 258
3 438 258 439
3 257 439 258
3 257 259 439
3 257 258 358
3 257 358 259
3 620 475 621
3 405 406 339
3 347 346 260
3 347 260 348
3 350 260 261
3 350 348 260
3 350 261 262
3 350 262 349
3 352 264 263
3 352 263 408
3 352 265 264
3 352 377 265
3 266 642 630
3 266 630 632
3 266 632 642
3 353 642 632
3 353 267 354
3 353 551 267
3 353 632 551
3 574 562 268
3 574 268 576
3 634 461 577
3 634 363 461
3 634 454 363
3 634 635 454
3 269 270 580
3 269 271 270
3 269 580 271
3 272 276 273
3 272 273 280
3 272 280 276
3 274 281 275
3 274 280 281
3 274 276 280
3 274 277 276
3 274 275 278
3 274 278 283
3 274 279 277
3 274 283 279
3 496 280 486
3 496 495 281
3 496 281 280
3 282 283 284
3 282 284 285
3 282 285 283
3 449 451 286
3 449 286 287
3 449 287 413
3 355 360 290
3 355 656 360
3 355 290 552
3 359 656 657
3 359 360 656
3 359 657 674
3 288 345 289
3 288 360 345
3 288 289 290
3 288 290 360
3 609 417 610
3 414 611 291
3 414 291 292
3 414 292 451
3 293 294 295
3 293 296 297
3 293 295 296
3 293 298 294
3 293 297 299
3 293 299 298
3 644 591 301
3 582 300 585
3 582 301 300
3 582 644 301
3 364 589 464
3 364 458 589
3 425 589 458
3 425 457 424
3 425 458 457
3 425 588 589
3 302 303 304
3 302 307 303
3 302 304 305
3 302 305 306
3 302 650 307
3 302 306 650
3 648 307 650
3 648 566 308
3 648 308 307
3 710 650 311
3 710 311 691
3 309 310 311
3 309 429 310
3 309 311 593
3 309 594 429
3 309 593 594
3 428 312 368
3 428 572 312
3 689 315 686
3 689 466 315
3 313 646 686
3 313 314 316
3 313 315 314
3 313 686 315
3 313 587 646
3 313 316 587
3 427 426 466
3 427 466 467
3 427 467 601
3 586 587 316
3 586 318 317
3 586 316 318
3 586 317 319
3 586 319 591
3 592 600 595
3 592 320 322
3 592 593 320
3 598 321 558
3 598 560 321
3 598 432 560
3 373 599 600
3 373 600 592
3 373 322 372
3 373 592 322
3 602 571 323
3 602 323 541
3 383 379 384
3 324 325 326
3 324 584 652
3 324 326 584
3 324 652 327
3 324 327 325
3 328 329 437
3 328 330 329
3 328 437 330
3 386 331 388
3 386 387 331
3 407 432 431
3 407 332 406
3 407 398 332
3 397 570 338
3 397 569 570
3 397 333 398
3 397 334 333
3 397 338 334
3 335 336 337
3 335 337 338
3 335 542 336
3 335 338 542
3 608 339 611
3 608 405 339
3 608 402 405
3 612 614 663
3 612 663 668
3 612 668 561
3 340 699 341
3 340 341 342
3 340 475 699
3 340 343 475
3 340 342 343
3 409 636 356
3 409 344 441
3 409 356 344
3 615 664 616
3 638 665 664
3 619 659 620
3 404 405 402
3 400 654 610
3 400 610 345
3 400 615 654
3 400 640 639
3 400 345 640
3 442 347 626
3 442 346 347
3 442 701 346
3 623 626 347
3 623 347 348
3 623 349 607
3 623 348 350
3 623 350 349
3 625 352 408
3 625 624 352
3 351 624 377
3 351 377 352
3 351 352 624
3 483 642 353
3 483 353 354
3 483 354 508
3 631 355 552
3 631 656 355
3 633 357 356
3 633 356 636
3 633 358 357
3 633 576 358
3 676 418 677
3 637 359 674
3 637 674 665
3 637 640 360
3 637 360 359
3 637 665 638
3 705 677 418
3 361 578 581
3 361 581 362
3 361 362 412
3 361 412 676
3 361 676 578
3 463 363 454
3 463 461 363
3 463 364 464
3 463 458 364
3 643 583 365
3 643 365 590
3 511 424 457
3 645 588 425
3 647 366 567
3 647 367 366
3 647 649 367
3 688 691 681
3 465 368 426
3 465 428 368
3 469 369 504
3 471 469 430
3 471 472 369
3 471 369 469
3 503 504 369
3 503 370 502
3 503 371 370
3 503 369 371
3 695 372 568
3 695 599 373
3 695 373 372
3 374 599 596
3 374 596 600
3 374 600 599
3 375 604 605
3 375 605 376
3 375 376 377
3 375 624 604
3 375 377 624
3 378 379 383
3 378 380 379
3 378 585 381
3 378 383 585
3 378 381 382
3 378 382 380
3 651 585 383
3 651 384 652
3 651 383 384
3 385 387 386
3 385 388 389
3 385 386 388
3 385 391 390
3 385 389 391
3 385 394 395
3 385 395 437
3 385 390 393
3 385 393 394
3 385 437 392
3 385 392 387
3 434 393 436
3 434 394 393
3 434 435 395
3 434 395 394
3 670 432 407
3 670 613 560
3 670 560 432
3 396 431 569
3 396 569 397
3 396 397 398
3 396 398 407
3 396 407 431
3 653 402 608
3 653 618 402
3 479 440 477
3 655 445 657
3 655 441 445
3 655 409 441
3 399 664 615
3 399 639 638
3 399 638 664
3 399 400 639
3 399 615 400
3 658 667 661
3 474 475 620
3 474 659 660
3 474 620 659
3 662 659 619
3 662 619 622
3 662 622 668
3 401 618 617
3 401 617 403
3 401 403 404
3 401 402 618
3 401 404 402
3 669 403 614
3 669 404 403
3 669 406 405
3 669 405 404
3 669 407 406
3 669 670 407
3 703 408 700
3 703 625 408
3 480 642 483
3 671 636 409
3 671 409 655
3 410 628 656
3 410 631 628
3 410 656 631
3 673 674 657
3 673 657 445
3 411 412 418
3 411 676 412
3 411 418 676
3 675 413 579
3 675 449 413
3 675 678 451
3 450 611 414
3 450 414 451
3 415 416 417
3 415 417 609
3 415 609 705
3 415 418 416
3 415 705 418
3 453 672 641
3 453 635 672
3 453 454 635
3 419 629 641
3 419 672 629
3 419 641 672
3 455 463 454
3 455 458 463
3 462 420 460
3 462 421 420
3 462 464 421
3 423 424 511
3 423 511 683
3 423 683 684
3 679 645 684
3 422 684 645
3 422 424 423
3 422 423 684
3 422 425 424
3 422 645 425
3 708 685 682
3 716 465 426
3 716 427 601
3 716 426 427
3 692 428 465
3 692 572 428
3 714 680 429
3 714 429 594
3 714 594 595
3 714 595 467
3 470 490 469
3 487 471 430
3 487 430 469
3 694 569 431
3 694 431 432
3 694 432 598
3 433 435 434
3 433 434 436
3 433 437 435
3 433 436 437
3 696 474 660
3 698 440 438
3 698 477 440
3 698 439 701
3 698 438 439
3 478 661 667
3 478 697 661
3 447 667 666
3 447 478 667
3 447 479 478
3 447 666 673
3 446 440 479
3 446 441 440
3 446 479 447
3 446 445 441
3 702 701 442
3 702 442 626
3 512 511 456
3 512 641 642
3 512 456 641
3 512 642 480
3 482 480 483
3 482 708 682
3 482 707 708
3 443 655 627
3 443 627 671
3 443 671 655
3 484 504 494
3 484 490 470
3 484 470 504
3 497 490 494
3 497 469 490
3 497 487 469
3 497 496 486
3 500 494 504
3 444 673 445
3 444 445 446
3 444 447 673
3 444 446 447
3 448 451 449
3 448 675 451
3 448 449 675
3 704 611 450
3 704 451 678
3 704 450 451
3 452 454 453
3 452 455 454
3 452 641 456
3 452 453 641
3 452 456 511
3 452 511 457
3 452 457 458
3 452 458 455
3 459 460 461
3 459 462 460
3 459 461 463
3 459 463 464
3 459 464 462
3 706 690 685
3 711 465 716
3 711 692 465
3 713 466 689
3 713 467 466
3 713 714 467
3 468 469 504
3 468 504 470
3 468 470 469
3 488 471 487
3 488 486 472
3 488 472 471
3 473 475 474
3 473 474 696
3 473 696 699
3 473 699 475
3 476 698 697
3 476 477 698
3 476 697 478
3 476 479 477
3 476 478 479
3 509 512 480
3 509 480 482
3 509 482 682
3 481 508 707
3 481 707 482
3 481 483 508
3 481 482 483
3 491 490 484
3 491 484 494
3 485 497 486
3 485 487 497
3 485 486 488
3 485 488 487
3 499 494 500
3 499 502 493
3 501 500 504
3 507 709 690
3 507 690 706
3 507 649 709
3 715 597 711
3 715 711 716
3 489 494 490
3 489 490 491
3 489 491 494
3 492 499 493
3 492 494 499
3 492 493 495
3 492 495 496
3 492 496 497
3 492 497 494
3 498 499 500
3 498 500 501
3 498 502 499
3 498 503 502
3 498 504 503
3 498 501 504
3 505 506 649
3 505 649 507
3 505 508 506
3 505 707 508
3 505 706 707
3 505 507 706
3 717 512 509
3 717 718 512
3 717 509 682
3 510 718 683
3 510 683 511
3 510 511 512
3 510 512 718
3 513 515 514
3 513 514 516
3 517 519 518
3 517 520 519
3 521 513 516
3 521 516 522
3 523 525 524
3 523 524 526
3 527 528 529
3 527 529 530
3 531 530 529
3 531 532 530
3 531 517 518
3 531 518 532
3 533 534 535
3 533 536 534
3 537 536 533
3 537 538 536
3 539 524 525
3 539 540 524
3 539 541 540
3 539 542 541
3 543 544 545
3 543 545 546
3 547 535 534
3 547 534 548
3 547 545 544
3 547 548 545
3 549 528 527
3 549 527 550
3 549 550 551
3 549 551 552
3 553 554 555
3 553 556 554
3 557 559 558
3 557 558 560
3 557 560 561
3 562 514 515
3 562 563 514
3 564 555 554
3 564 565 555
3 564 566 567
3 564 567 565
3 568 570 569
3 568 571 570
3 572 538 537
3 572 573 538
3 574 563 562
3 574 575 563
3 574 576 577
3 574 577 575
3 578 579 580
3 578 580 581
3 582 584 583
3 582 585 584
3 586 588 587
3 586 589 588
3 586 591 590
3 586 590 589
3 592 594 593
3 592 595 594
3 596 558 559
3 596 559 597
3 596 599 598
3 596 598 558
3 596 601 600
3 596 597 601
3 602 570 571
3 602 603 570
3 602 541 542
3 602 542 603
3 604 606 605
3 604 607 606
3 608 609 610
3 608 611 609
3 612 561 613
3 612 613 614
3 615 616 617
3 615 617 618
3 619 620 621
3 619 621 622
3 623 607 604
3 623 604 624
3 625 623 624
3 625 626 623
3 627 630 629
3 627 628 630
3 631 552 551
3 631 551 632
3 631 630 628
3 631 632 630
3 633 635 634
3 633 636 635
3 633 577 576
3 633 634 577
3 637 638 639
3 637 639 640
3 641 629 630
3 641 630 642
3 643 582 583
3 643 644 582
3 643 590 591
3 643 591 644
3 645 587 588
3 645 646 587
3 647 567 566
3 647 566 648
3 647 650 649
3 647 648 650
3 651 584 585
3 651 652 584
3 653 608 610
3 653 610 654
3 653 615 618
3 653 654 615
3 655 657 656
3 655 628 627
3 655 656 628
3 658 661 660
3 658 660 659
3 662 663 617
3 662 664 665
3 662 665 666
3 662 666 667
3 662 616 664
3 662 617 616
3 662 658 659
3 662 667 658
3 662 668 663
3 669 614 613
3 669 613 670
3 671 635 636
3 671 672 635
3 671 627 629
3 671 629 672
3 673 666 665
3 673 665 674
3 675 579 578
3 675 578 676
3 675 676 677
3 675 677 678
3 679 681 680
3 679 683 682
3 679 684 683
3 679 682 685
3 679 686 687
3 679 685 688
3 679 689 686
3 679 680 689
3 679 688 681
3 679 646 645
3 679 687 646
3 690 688 685
3 690 691 688
3 692 573 572
3 692 693 573
3 694 568 569
3 694 695 568
3 694 598 599
3 694 599 695
3 696 660 661
3 696 661 697
3 698 696 697
3 698 699 696
3 698 700 699
3 698 701 700
3 702 700 701
3 702 703 700
3 702 626 625
3 702 625 703
3 704 609 611
3 704 705 609
3 704 678 677
3 704 677 705
3 706 685 708
3 706 708 707
3 709 691 690
3 709 710 691
3 709 649 650
3 709 650 710
3 711 597 559
3 711 559 712
3 711 693 692
3 711 712 693
3 713 689 680
3 713 680 714
3 715 601 597
3 715 716 601
3 717 682 683
3 717 683 718
