ply
format ascii 1.0
comment PCL generated
element vertex 768
property float x
property float y
property float z
element face 1532
property list uchar int vertex_indices
end_header
-0.023833 0.021739 0.021866 
0.024086 0.020981 -0.018716 
0.02366 0.023833 -0.018716 
0.02366 0.023833 0.018716 
-0.020165 0.025186 0.016019 
-0.02366 0.023833 0.018716 
-0.023443 0.023614 0.021866 
-0.020154 0.025173 0.018716 
-0.018595 0.02382 -0.023356 
-0.021376 -0.02111 -0.023749 
-0.018155 -0.021799 -0.023849 
0.024144 -0.013764 -0.008821 
0.020002 -0.024982 -0.021775 
0.023443 -0.023614 -0.021866 
0.022882 -0.02305 -0.023054 
0.024099 0.020992 -0.016019 
-0.023673 0.023846 0.016019 
-0.024099 0.020993 0.013646 
-0.020002 0.024982 0.021775 
-0.023077 0.02105 0.023196 
-0.022882 0.02305 0.023054 
-0.018595 0.02382 0.023356 
-0.017181 0.022935 0.023736 
-0.019272 0.024871 0.022236 
0.023833 0.021739 0.021866 
0.020165 0.025186 -0.016019 
0.020154 0.025173 -0.018716 
0.023673 0.023846 -0.016019 
0.020165 0.025186 0.016019 
0.023673 0.023846 0.013646 
0.023673 0.023846 0.016019 
0.020154 0.025173 0.018716 
-0.020002 0.024982 -0.021775 
0.020002 0.024982 -0.021775 
0.023443 0.023614 -0.021866 
0.018595 0.02382 -0.023356 
0.024086 0.020981 0.018716 
0.024099 0.020992 0.016019 
0.017181 -0.022935 -0.023736 
-0.017181 -0.022935 -0.023736 
0.018595 -0.02382 -0.023356 
0.021376 -0.02111 -0.023749 
0.018155 -0.021799 -0.023849 
0.017181 0.022935 -0.023736 
0.021376 0.02111 -0.023749 
0.019272 -0.024871 -0.022236 
0.023833 -0.021739 -0.021866 
0.023177 0.016229 -0.023167 
0.023077 -0.02105 -0.023196 
0.023673 0.023846 -0.013646 
0.020165 0.025187 -0.013646 
0.024141 0.018302 -0.016019 
0.024099 0.020993 -0.013646 
0.024131 0.016149 -0.018716 
0.024128 0.018293 -0.018716 
-0.021376 -0.02111 0.023749 
-0.017181 -0.022935 0.023736 
-0.024099 0.020992 0.016019 
-0.023673 0.023846 0.01118 
-0.020165 0.025187 0.013646 
-0.023673 0.023846 0.013646 
-0.020165 0.025187 -0.013646 
-0.023673 0.023846 -0.008821 
-0.023673 0.023846 -0.013646 
-0.023673 0.023846 -0.01118 
-0.02366 0.023833 -0.018716 
-0.023673 0.023846 -0.016019 
-0.023443 0.023614 -0.021866 
-0.020154 0.025173 -0.018716 
-0.020165 0.025186 -0.016019 
-0.020154 -0.025173 -0.018716 
-0.024086 -0.020981 0.018716 
-0.02366 -0.023833 -0.018716 
-0.023106 0.018618 0.02322 
0.020002 0.024982 0.021775 
0.019272 0.024871 0.022236 
0.023443 0.023614 0.021866 
-0.020166 0.025187 -0.01118 
0.018887 0.025212 -0.01118 
-0.018887 0.025212 -0.01118 
-0.018887 0.025212 -0.013646 
0.018887 0.025212 -0.013646 
-0.018887 0.025212 -0.008821 
0.020166 0.025187 -0.01118 
0.020165 0.025187 0.013646 
-0.023077 0.02105 -0.023196 
-0.023833 0.021739 -0.021866 
-0.022882 0.02305 -0.023054 
-0.022406 0.02257 -0.023457 
0.023077 0.02105 -0.023196 
0.022882 0.02305 -0.023054 
0.023833 0.021739 -0.021866 
0.024144 -0.016158 0.008821 
0.024144 -0.016158 -0.008821 
0.024142 -0.018303 0.008821 
-0.022882 -0.02305 0.023054 
-0.023077 -0.02105 0.023196 
-0.023833 -0.021739 0.021866 
-0.018595 -0.02382 0.023356 
0.021192 0.0036461 0.023821 
0.018595 -0.02382 0.023356 
-0.018741 -0.0061793 -0.023928 
-0.018702 -0.011214 -0.023928 
-0.018767 -0.0087017 -0.023927 
0.02122 -0.01372 -0.023817 
0.021312 -0.018638 -0.023808 
0.024144 -0.013764 -0.01118 
0.024144 -0.016158 -0.01118 
0.024144 -0.016158 -0.013646 
0.023106 0.018618 -0.02322 
0.02391 -0.011167 -0.021866 
0.02391 -0.006264 -0.021867 
0.023896 -0.016165 -0.021921 
0.02391 -0.01363 -0.021866 
0.02391 0.011167 -0.021866 
0.02391 0.01363 -0.021866 
0.023896 0.016165 -0.021921 
0.02391 0.006264 -0.021867 
0.023177 -0.016229 -0.023167 
0.024099 0.020993 0.01118 
0.018155 -0.021799 0.023849 
-0.018155 -0.021799 0.023849 
0.017181 -0.022935 0.023736 
0.021376 -0.02111 0.023749 
-0.024086 0.020981 0.018716 
-0.024144 0.013763 0.016019 
-0.024141 0.018302 0.016019 
-0.024142 0.018303 0.013646 
-0.024131 -0.016149 0.018716 
-0.024128 -0.018293 0.018716 
-0.024131 0.01127 0.018716 
-0.024131 -0.01127 0.018716 
-0.024131 -0.013756 0.018716 
-0.023673 0.023846 0.008821 
-0.024099 0.020992 -0.016019 
-0.024086 0.020981 -0.018716 
-0.024131 0.013756 -0.018716 
-0.024131 0.016149 -0.018716 
-0.024128 0.018293 -0.018716 
-0.020165 -0.025186 0.016019 
-0.02391 -0.01363 -0.021866 
-0.02391 -0.011167 -0.021866 
-0.024131 -0.01127 -0.018716 
-0.024131 0.01127 -0.018716 
-0.016368 -0.013536 0.023937 
-0.016368 0.013536 0.023937 
-0.016272 0.0061577 0.023937 
-0.013854 0.011091 0.023937 
-0.02391 0.011167 0.021866 
-0.023896 0.016165 0.021921 
-0.02391 0.01363 0.021866 
-0.02391 -0.011167 0.021866 
-0.023896 -0.016165 0.021921 
-0.02391 0.003878 0.021867 
-0.02391 -0.01363 0.021866 
-0.023915 -0.018806 0.021822 
-0.023123 -0.011212 0.023221 
-0.023123 0.011212 0.023221 
-0.023177 -0.016229 0.023167 
-0.023106 -0.018618 0.02322 
-0.023177 0.016229 0.023167 
-0.018155 0.021799 0.023849 
0.016265 0.021096 0.023895 
-0.016265 0.021096 0.023895 
0.018155 0.021799 0.023849 
0.015619 0.01926 0.023931 
0.018887 0.025212 -0.008821 
-0.020166 0.025187 0.01118 
0.023673 0.023846 0.008821 
0.023673 0.023846 0.01118 
0.021192 -0.0036461 -0.023821 
0.016265 -0.021096 -0.023895 
-0.016265 -0.021096 -0.023895 
-0.023896 -0.016165 -0.021921 
0.016265 0.021096 -0.023895 
-0.02122 -0.01372 -0.023817 
0.023673 -0.023846 -0.008821 
0.020154 -0.025173 -0.018716 
0.02366 -0.023833 -0.018716 
0.020165 -0.025186 -0.016019 
0.024144 -0.013764 -0.0062712 
0.024099 -0.020992 0.016019 
0.024099 -0.020993 0.013646 
0.020154 -0.025173 0.018716 
0.020002 -0.024982 0.021775 
0.019272 -0.024871 0.022236 
-0.019272 -0.024871 0.022236 
0.02122 0.01372 0.023817 
0.018898 0.018571 0.023922 
0.023106 0.018618 0.02322 
0.023077 0.02105 0.023196 
0.021376 0.02111 0.023749 
0.022882 0.02305 0.023054 
0.018595 0.02382 0.023356 
0.017181 0.022935 0.023736 
0.021198 0.011198 0.02382 
0.022406 -0.02257 0.023457 
0.023095 0.0086615 0.023235 
0.022406 0.02257 0.023457 
-0.016269 0.0036054 -0.023937 
-0.016137 0.0022192 -0.023937 
-0.016254 0.011225 -0.023937 
0.021198 -0.011198 -0.02382 
0.021218 -0.008691 -0.023818 
0.021218 0.008691 -0.023818 
0.021312 0.018638 -0.023808 
0.024086 -0.020981 -0.018716 
0.023095 -0.0086615 -0.023235 
0.023095 0.0086615 -0.023235 
0.023123 0.011212 -0.023221 
0.023123 -0.011212 -0.023221 
0.022406 0.02257 -0.023457 
0.022406 -0.02257 -0.023457 
0.023106 -0.018618 -0.02322 
0.024142 0.018303 0.0062712 
0.024142 0.018303 -0.0062712 
0.024099 0.020993 -0.0062712 
0.024099 0.020993 0.008821 
0.024144 0.013764 -0.013646 
0.024144 0.016157 -0.016019 
0.024144 -0.011276 -0.01118 
-0.015619 -0.01926 0.023931 
-0.016265 -0.021096 0.023895 
0.016265 -0.021096 0.023895 
-0.016429 -0.016069 0.023936 
-0.024144 0.011276 0.016019 
-0.024131 0.0039139 0.018716 
-0.024144 0.013764 0.013646 
-0.024131 0.016149 0.018716 
-0.024144 0.016157 0.016019 
-0.024131 0.013756 0.018716 
-0.024128 0.018293 0.018716 
-0.023915 0.018806 0.021822 
-0.024099 0.020993 -0.013646 
-0.024099 0.020993 0.01118 
-0.024144 -0.016157 0.016019 
-0.024099 -0.020992 0.016019 
-0.024141 -0.018302 0.016019 
-0.024086 -0.020981 -0.018716 
-0.024144 -0.0063254 -0.013646 
-0.024144 -0.0063253 -0.016019 
0.018898 -0.018571 0.023922 
0.02122 -0.01372 0.023817 
-0.016254 -0.011225 0.023937 
-0.016269 -0.0036054 0.023937 
-0.02122 -0.01372 0.023817 
-0.018898 -0.018571 0.023922 
-0.021376 0.02111 0.023749 
-0.021312 -0.018638 0.023808 
0.024128 -0.018293 0.018716 
0.024128 0.018293 0.018716 
0.023833 -0.021739 0.021866 
0.02366 -0.023833 0.018716 
0.024086 -0.020981 0.018716 
0.023443 -0.023614 0.021866 
0.023077 -0.02105 0.023196 
0.022882 -0.02305 0.023054 
-0.0096734 0.012913 0.023937 
0.020166 0.025187 0.01118 
0.016254 -0.011225 -0.023937 
-0.014211 -0.018555 -0.023934 
-0.015619 -0.01926 -0.023931 
-0.018749 -0.013726 -0.023927 
-0.018898 -0.018571 -0.023922 
0.02122 0.01372 -0.023817 
0.021198 0.011198 -0.02382 
0.021192 0.0036461 -0.023821 
-0.022882 -0.02305 -0.023054 
-0.023077 -0.02105 -0.023196 
-0.022406 -0.02257 -0.023457 
-0.023833 -0.021739 -0.021866 
-0.023443 -0.023614 -0.021866 
-0.018595 -0.02382 -0.023356 
-0.019272 -0.024871 -0.022236 
-0.020002 -0.024982 -0.021775 
-0.023095 -0.0086615 -0.023235 
-0.023106 -0.018618 -0.02322 
-0.02122 0.01372 -0.023817 
-0.021312 0.018638 -0.023808 
-0.018749 0.013726 -0.023927 
-0.018741 0.0061793 -0.023928 
-0.018702 0.011214 -0.023928 
-0.018155 0.021799 -0.023849 
0.018155 0.021799 -0.023849 
-0.017181 0.022935 -0.023736 
-0.016265 0.021096 -0.023895 
-0.021376 0.02111 -0.023749 
-0.018898 0.018571 -0.023922 
-0.021218 -0.008691 -0.023818 
-0.021218 0.008691 -0.023818 
-0.021312 -0.018638 -0.023808 
0.024144 0.011276 0.01118 
0.020165 -0.025187 0.013646 
0.020165 -0.025186 0.016019 
0.023673 -0.023846 0.013646 
0.023673 -0.023846 0.016019 
-0.020154 -0.025173 0.018716 
-0.020002 -0.024982 0.021775 
-0.02366 -0.023833 0.018716 
-0.023443 -0.023614 0.021866 
0.021218 -0.008691 0.023818 
0.021192 -0.0036461 0.023821 
0.021198 -0.011198 0.02382 
0.021218 0.008691 0.023818 
0.021312 -0.018638 0.023808 
0.021312 0.018638 0.023808 
0.016429 0.016069 0.023936 
0.014211 -0.018555 0.023934 
0.015619 -0.01926 0.023931 
-0.014211 -0.018555 0.023934 
0.013211 -0.016629 0.023937 
0.023123 -0.011212 0.023221 
0.023106 -0.018618 0.02322 
0.023177 -0.016229 0.023167 
0.023095 -0.0086615 0.023235 
0.023123 0.011212 0.023221 
0.023177 0.016229 0.023167 
-0.016429 0.016069 -0.023936 
-0.015619 0.01926 -0.023931 
-0.014211 0.018555 -0.023934 
0.024131 -0.016149 -0.018716 
0.024142 -0.018303 -0.01118 
0.023673 -0.023846 -0.016019 
0.024141 -0.018302 -0.016019 
0.024099 -0.020992 -0.016019 
0.024128 -0.018293 -0.018716 
0.024142 -0.018303 -0.013646 
0.024144 -0.016157 -0.016019 
0.023915 -0.018806 -0.021822 
0.024144 0.016158 0.01118 
0.024144 0.013764 0.01118 
0.024142 0.018303 0.013646 
0.024142 0.018303 0.01118 
0.024099 0.020993 0.013646 
0.024141 0.018302 0.016019 
0.024144 0.013764 -0.008821 
0.024144 0.016158 -0.008821 
0.024144 0.016158 -0.0062712 
0.024144 0.016158 0.008821 
0.024144 0.013764 0.0062712 
0.024144 0.011276 -0.016019 
0.024131 0.013756 -0.018716 
0.024144 0.013763 -0.016019 
0.024144 -0.011276 -0.016019 
0.024144 -0.013763 -0.016019 
0.024144 -0.013764 -0.013646 
0.024144 -0.011276 -0.013646 
0.024131 -0.01127 -0.018716 
0.024131 -0.013756 -0.018716 
-0.013937 -0.013547 0.023937 
-0.013211 -0.016629 0.023937 
-0.024144 0.011276 0.01118 
-0.024144 -0.011276 0.01118 
-0.024144 -0.013764 0.013646 
-0.024144 -0.011276 0.013646 
-0.024144 -0.013763 0.016019 
-0.024144 -0.011276 0.016019 
-0.024099 0.020993 -0.01118 
-0.024144 0.016158 0.01118 
-0.024144 0.016158 0.013646 
-0.024142 0.018303 -0.013646 
-0.024144 0.016157 -0.016019 
-0.024141 0.018302 -0.016019 
-0.023673 -0.023846 -0.016019 
-0.020165 -0.025186 -0.016019 
-0.020166 -0.025187 -0.01118 
-0.020165 -0.025187 -0.013646 
-0.024099 -0.020993 -0.013646 
-0.023673 -0.023846 -0.013646 
-0.024099 -0.020992 -0.016019 
-0.024131 -0.016149 -0.018716 
-0.024141 -0.018302 -0.016019 
-0.024128 -0.018293 -0.018716 
-0.016137 0.0022192 0.023937 
-0.016254 0.011225 0.023937 
-0.016137 -0.0022192 0.023937 
-0.0115 0.010966 0.023937 
-0.0115 -0.010966 0.023937 
0.0087204 0.011211 0.023937 
-0.0087204 0.011211 0.023937 
-0.018749 -0.013726 0.023927 
-0.021198 -0.011198 0.02382 
-0.018898 0.018571 0.023922 
0.024131 -0.016149 0.018716 
0.024131 0.016149 0.018716 
0.018749 0.013726 0.023927 
0.010912 0.013863 0.023937 
-0.010912 0.013863 0.023937 
0.0096734 0.012913 0.023937 
0.0115 0.010966 0.023937 
-0.015619 0.01926 0.023931 
-0.016272 -0.0061577 -0.023937 
-0.016368 0.013536 -0.023937 
-0.01851 -0.0023755 -0.02393 
-0.018509 0.0023755 -0.02393 
-0.02391 0.011167 -0.021866 
-0.023896 0.016165 -0.021921 
-0.02391 -0.003878 -0.021867 
-0.02391 0.01363 -0.021866 
-0.023123 0.011212 -0.023221 
-0.023123 -0.011212 -0.023221 
-0.023095 0.0086615 -0.023235 
-0.023106 0.018618 -0.02322 
-0.023177 0.016229 -0.023167 
-0.023177 -0.016229 -0.023167 
-0.021198 0.011198 -0.02382 
0.020165 -0.025187 -0.013646 
-0.016137 -0.0022192 -0.023937 
-0.013211 -0.016629 -0.023937 
-0.016254 -0.011225 -0.023937 
-0.016368 -0.013536 -0.023937 
-0.016429 -0.016069 -0.023936 
0.016137 0.0022192 -0.023937 
0.016137 -0.0022192 -0.023937 
0.024144 0.011276 -0.01118 
0.024144 0.013764 -0.01118 
0.024144 0.011276 -0.013646 
0.024131 0.0088923 -0.018716 
0.024131 0.01127 -0.018716 
0.023915 0.018806 -0.021822 
-0.024144 0.013764 -0.0038825 
-0.024144 0.013764 -0.0062712 
-0.024144 0.013764 0.01118 
-0.024144 0.0088972 0.013646 
-0.024144 0.011276 0.013646 
-0.024144 0.013763 -0.016019 
-0.024144 0.011276 -0.016019 
-0.023673 -0.023846 -0.01118 
-0.023673 -0.023846 -0.008821 
-0.024142 -0.018303 -0.01118 
-0.024099 -0.020993 -0.01118 
-0.024142 -0.018303 -0.013646 
-0.024099 -0.020993 -0.008821 
-0.024144 -0.013764 0.01118 
-0.024144 -0.013764 0.008821 
-0.024142 -0.018303 0.013646 
-0.024144 -0.016158 0.013646 
-0.024144 -0.016158 0.01118 
-0.024144 -0.013763 -0.016019 
-0.024144 -0.011276 -0.016019 
-0.024131 -0.013756 -0.018716 
-0.024144 -0.016157 -0.016019 
-0.024144 -0.013764 -0.01118 
-0.024144 -0.011276 -0.01118 
-0.024144 -0.013764 -0.008821 
-0.024144 -0.011276 -0.013646 
-0.024144 -0.013764 -0.013646 
-0.024144 -0.016158 -0.01118 
-0.024144 -0.016158 -0.013646 
0.0115 -0.010966 0.023937 
-0.0096734 -0.012913 0.023937 
-0.010912 -0.013863 0.023937 
0.011953 -0.015702 0.023937 
-0.011953 -0.015702 0.023937 
-0.018767 -0.0087017 0.023927 
-0.018741 -0.0061793 0.023928 
-0.018702 -0.011214 0.023928 
-0.018855 -0.016069 0.023926 
-0.018509 0.0023755 0.02393 
-0.018509 -0.0023755 0.02393 
-0.02122 0.01372 0.023817 
0.024144 0.013763 0.016019 
0.024144 0.016157 0.016019 
0.024144 0.013764 0.013646 
0.024144 0.016158 0.013646 
0.024144 0.011276 0.013646 
0.024144 0.0063254 0.013646 
0.024144 -0.016158 0.013646 
0.024144 -0.016157 0.016019 
0.024144 -0.016158 0.01118 
0.024142 -0.018303 0.01118 
0.024142 -0.018303 0.013646 
0.024141 -0.018302 0.016019 
0.024144 -0.013763 0.016019 
0.024131 -0.013756 0.018716 
0.02391 -0.01363 0.021866 
0.02391 0.011167 0.021866 
0.023896 0.016165 0.021921 
0.02391 0.01363 0.021866 
0.018767 0.0087017 0.023927 
0.018741 0.0061793 0.023928 
0.018855 -0.016069 0.023926 
0.018749 -0.013726 0.023927 
0.018855 0.016069 0.023926 
0.018702 0.011214 0.023928 
0.018509 -0.0023755 0.02393 
0.018702 -0.011214 0.023928 
0.016429 -0.016069 0.023936 
0.018741 -0.0061793 0.023928 
0.01851 0.0023755 0.02393 
-0.013211 0.016629 0.023937 
0.013211 0.016629 0.023937 
0.014211 0.018555 0.023934 
-0.014211 0.018555 0.023934 
-0.011953 0.015702 0.023937 
0.011953 0.015702 0.023937 
-0.013937 0.013547 0.023937 
0.016429 -0.016069 -0.023936 
0.014211 -0.018555 -0.023934 
0.015619 -0.01926 -0.023931 
0.018749 -0.013726 -0.023927 
0.018898 -0.018571 -0.023922 
0.013211 -0.016629 -0.023937 
-0.021192 -0.0036461 -0.023821 
-0.018855 0.016069 -0.023926 
-0.018855 -0.016069 -0.023926 
-0.021192 0.0036461 -0.023821 
-0.021198 -0.011198 -0.02382 
0.020166 -0.025187 0.01118 
0.016368 0.013536 0.023937 
-0.013937 0.013547 -0.023937 
0.0087204 -0.011211 -0.023937 
-0.0087204 -0.011211 -0.023937 
0.018741 0.0061793 -0.023928 
0.018509 -0.0023755 -0.02393 
0.018702 -0.011214 -0.023928 
0.018741 -0.0061793 -0.023928 
0.018767 -0.0087017 -0.023927 
0.018767 0.0087017 -0.023927 
0.018855 -0.016069 -0.023926 
0.018702 0.011214 -0.023928 
0.018749 0.013726 -0.023927 
0.018855 0.016069 -0.023926 
0.015619 0.01926 -0.023931 
0.018898 0.018571 -0.023922 
0.014211 0.018555 -0.023934 
0.011953 0.015702 -0.023937 
0.013211 0.016629 -0.023937 
-0.011953 0.015702 -0.023937 
-0.013211 0.016629 -0.023937 
0.013854 -0.011091 -0.023937 
-0.0096734 0.012913 -0.023937 
-0.010912 0.013863 -0.023937 
-0.024144 0.016158 0.0062712 
-0.024144 0.016158 -0.013646 
-0.024144 0.013764 -0.013646 
-0.024144 0.011276 -0.01118 
-0.024144 0.011276 -0.013646 
-0.023673 -0.023846 0.013646 
-0.024099 -0.020993 0.013646 
-0.023673 -0.023846 0.016019 
-0.020165 -0.025187 0.013646 
0.0087204 -0.011211 0.023937 
-0.0087204 -0.011211 0.023937 
0.010912 -0.013863 0.023937 
-0.018749 0.013726 0.023927 
-0.018741 0.0061793 0.023928 
-0.018702 0.011214 0.023928 
-0.016429 0.016069 0.023936 
-0.021192 0.0036461 0.023821 
-0.018855 0.016069 0.023926 
-0.021218 0.008691 0.023818 
-0.021312 0.018638 0.023808 
-0.021218 -0.008691 0.023818 
-0.021198 0.011198 0.02382 
-0.021192 -0.0036461 0.023821 
0.024131 0.01127 0.018716 
0.024131 0.013756 0.018716 
0.024144 0.011276 0.016019 
0.024131 0.0063219 0.018716 
0.023915 0.018806 0.021822 
0.024131 0.0088923 0.018716 
0.024131 -0.0088923 0.018716 
0.024131 -0.01127 0.018716 
0.02391 -0.0088108 0.021866 
0.02391 -0.003878 0.021867 
0.023915 -0.018806 0.021822 
0.02391 -0.011167 0.021866 
0.023896 -0.016165 0.021921 
0.013937 -0.013547 -0.023937 
0.024144 -0.011276 0.013646 
0.024144 -0.011276 0.016019 
0.024144 -0.013764 0.013646 
0.024144 -0.011276 0.01118 
0.024144 -0.013764 0.01118 
0.016272 -0.0061577 0.023937 
0.016368 -0.013536 0.023937 
0.016137 0.0022192 0.023937 
0.016269 -0.0036054 0.023937 
0.016254 0.011225 0.023937 
0.013937 0.013547 0.023937 
0.016254 -0.011225 0.023937 
0.016137 -0.0022192 0.023937 
0.013937 -0.013547 0.023937 
-0.010912 -0.013863 -0.023937 
-0.013937 -0.013547 -0.023937 
-0.0096734 -0.012913 -0.023937 
-0.011953 -0.015702 -0.023937 
0.011953 -0.015702 -0.023937 
0.010912 -0.013863 -0.023937 
0.0096734 -0.012913 -0.023937 
0.016368 0.013536 -0.023937 
0.016272 0.0061577 -0.023937 
0.016254 0.011225 -0.023937 
0.013937 0.013547 -0.023937 
0.016429 0.016069 -0.023936 
0.016272 -0.0061577 -0.023937 
0.016368 -0.013536 -0.023937 
0.018509 0.0023755 -0.02393 
0.0115 -0.010966 -0.023937 
-0.023673 -0.023846 0.008821 
-0.023673 -0.023846 0.01118 
0.0087204 0.011211 -0.023937 
0.010912 0.013863 -0.023937 
-0.0087204 0.011211 -0.023937 
0.0115 0.010966 -0.023937 
-0.020166 -0.025187 0.01118 
-0.018766 0.025051 -0.021497 
-0.019272 0.024871 -0.022236 
0.019272 0.024871 -0.022236 
0.018766 0.025051 -0.021497 
0.020071 0.025068 -0.02122 
-0.020071 0.025068 -0.02122 
-0.018876 -0.025198 -0.018716 
0.018886 -0.025212 -0.016019 
0.018876 -0.025198 -0.018716 
-0.018886 -0.025212 -0.016019 
0.018887 0.025212 0.013646 
0.018886 0.025212 0.016019 
-0.018886 0.025212 0.016019 
-0.018887 0.025212 0.013646 
0.018876 0.025198 -0.018716 
-0.018876 0.025198 -0.018716 
-0.018886 0.025212 -0.016019 
0.018886 0.025212 -0.016019 
-0.020071 -0.025068 -0.02122 
0.020071 -0.025068 -0.02122 
-0.020166 0.025187 0.008821 
-0.020166 0.025187 -0.008821 
-0.018887 0.025212 -0.0062712 
-0.018887 0.025212 0.0062712 
-0.018766 0.025051 0.021497 
0.018766 0.025051 0.021497 
0.020071 0.025068 0.02122 
-0.020071 0.025068 0.02122 
0.018887 0.025212 0.01118 
-0.018887 0.025212 0.01118 
0.018876 0.025198 0.018716 
-0.018876 0.025198 0.018716 
-0.018887 -0.025212 -0.013646 
0.018887 -0.025212 -0.013646 
0.018886 -0.025212 0.016019 
-0.018876 -0.025198 0.018716 
0.018876 -0.025198 0.018716 
-0.018886 -0.025212 0.016019 
0.023673 -0.023846 0.0062712 
0.023673 -0.023846 -0.0062712 
0.024099 -0.020993 -0.0062712 
-0.022406 -0.02257 0.023457 
-0.023095 -0.0086615 0.023235 
-0.023095 0.0086615 0.023235 
-0.022406 0.02257 0.023457 
-0.018766 -0.025051 -0.021497 
0.018766 -0.025051 -0.021497 
0.023673 0.023846 -0.01118 
0.024099 0.020993 -0.01118 
0.024099 0.020993 -0.008821 
0.023673 0.023846 -0.008821 
0.024142 0.018303 -0.013646 
0.024142 0.018303 -0.01118 
0.024144 0.016158 -0.01118 
0.024144 0.016158 -0.013646 
-0.023673 0.023846 0.0062712 
-0.023673 0.023846 -0.0062712 
-0.024131 0.0039139 -0.018716 
-0.023915 -0.018806 -0.021822 
-0.024131 -0.0039139 -0.018716 
-0.023915 0.018806 -0.021822 
0.018887 0.025212 -0.0062712 
0.018887 0.025212 0.0062712 
0.020166 0.025187 0.008821 
0.020166 0.025187 -0.008821 
0.023673 0.023846 -0.0062712 
0.023673 0.023846 0.0062712 
-0.018887 -0.025212 0.013646 
0.018887 -0.025212 0.013646 
0.023673 -0.023846 0.008821 
0.024099 -0.020993 0.008821 
0.024099 -0.020993 0.01118 
0.023673 -0.023846 0.01118 
0.018887 0.025212 0.008821 
-0.018887 0.025212 0.008821 
0.020166 -0.025187 0.008821 
0.020166 -0.025187 -0.008821 
-0.020071 -0.025068 0.02122 
0.020071 -0.025068 0.02122 
0.018766 -0.025051 0.021497 
-0.018766 -0.025051 0.021497 
0.024099 -0.020993 -0.013646 
0.023673 -0.023846 -0.01118 
0.023673 -0.023846 -0.013646 
0.024099 -0.020993 -0.01118 
0.024144 0.0063254 -0.01118 
0.024144 0.011276 0.0062712 
0.024144 0.011276 -0.0062712 
0.024144 -0.011276 -0.0062712 
0.024144 -0.0063254 -0.01118 
0.024144 -0.0063254 0.01118 
0.024144 -0.011276 0.0062712 
0.024144 0.0063254 0.01118 
0.024144 0.008897 -0.016019 
0.024131 -0.0039139 -0.018716 
0.024144 -0.008897 -0.016019 
0.024131 0.0063219 -0.018716 
0.024144 0.0063254 -0.013646 
-0.024144 -0.0063254 0.01118 
-0.024144 0.0063254 -0.01118 
-0.024144 0.011276 -0.0062712 
-0.024144 -0.011276 -0.0062712 
-0.024144 -0.011276 0.0062712 
-0.024144 -0.0063254 -0.01118 
-0.024144 0.011276 0.0062712 
-0.024144 0.0063254 0.01118 
-0.024144 0.0063254 0.013646 
-0.024144 -0.003916 0.016019 
-0.024144 -0.008897 0.016019 
-0.024144 -0.0088972 0.013646 
-0.024099 0.020993 -0.008821 
-0.024099 0.020993 0.008821 
-0.024142 0.018303 0.01118 
-0.024142 0.018303 -0.01118 
-0.0089361 0.008538 0.023937 
0.0089361 -0.008538 0.023937 
0.0089361 0.008538 0.023937 
-0.0089361 -0.008538 0.023937 
0.018887 -0.025212 0.01118 
-0.018887 -0.025212 0.01118 
0.018887 -0.025212 -0.01118 
-0.018887 -0.025212 -0.01118 
-0.024144 -0.013764 -0.0062712 
-0.024144 -0.016158 0.008821 
-0.024144 -0.016158 -0.008821 
-0.024144 -0.013764 0.0062712 
0.024131 -0.0039139 0.018716 
0.024144 0.0063253 0.016019 
0.024144 -0.008897 0.016019 
0.024131 0.0039139 0.018716 
0.018887 -0.025212 -0.008821 
-0.018887 -0.025212 -0.008821 
0.020166 -0.025187 -0.01118 
-0.0115 -0.010966 -0.023937 
-0.0089361 0.008538 -0.023937 
-0.0115 0.010966 -0.023937 
-0.0089361 -0.008538 -0.023937 
-0.024144 0.013764 -0.01118 
-0.024144 0.016158 -0.008821 
-0.024144 0.016158 -0.01118 
-0.024144 0.013764 -0.008821 
-0.024142 -0.018303 0.008821 
-0.024142 -0.018303 0.0038825 
-0.024142 -0.018303 0.01118 
-0.024099 -0.020993 0.01118 
-0.024099 -0.020993 0.008821 
-0.023673 -0.023846 0.0062712 
-0.023673 -0.023846 -0.0062712 
-0.020166 -0.025187 -0.008821 
-0.020166 -0.025187 0.008821 
-0.024099 -0.020993 0.0062712 
0.018887 -0.025212 0.0062712 
0.018887 -0.025212 -0.0062712 
0.024144 -0.0063254 0.013646 
0.024144 -0.003916 0.013646 
0.0089361 0.008538 -0.023937 
0.0089361 -0.008538 -0.023937 
-0.018887 -0.025212 0.0062712 
-0.018887 -0.025212 -0.0062712 
-0.018887 -0.025212 0.008821 
0.018887 -0.025212 0.008821 
3 6 5 0
3 6 634 5
3 19 0 232
3 71 155 129
3 272 45 273
3 54 1 15
3 54 419 1
3 124 0 5
3 124 232 0
3 20 21 23
3 20 6 0
3 20 0 19
3 247 161 22
3 96 159 155
3 164 22 161
3 7 619 4
3 7 5 634
3 7 4 5
3 87 608 8
3 35 284 8
3 35 608 609
3 35 8 608
3 43 284 35
3 364 70 616
3 263 290 175
3 613 616 70
3 40 45 272
3 11 180 93
3 11 93 107
3 321 107 93
3 3 633 76
3 3 31 633
3 3 30 31
3 28 31 30
3 28 618 31
3 24 560 36
3 24 3 76
3 24 36 3
3 24 190 560
3 2 34 611
3 2 15 1
3 2 27 15
3 2 26 27
3 2 611 26
3 178 626 13
3 12 13 626
3 109 419 47
3 91 1 419
3 91 34 2
3 91 2 1
3 695 220 696
3 695 180 11
3 37 3 36
3 37 30 3
3 333 37 334
3 333 29 30
3 333 30 37
3 52 15 27
3 59 619 620
3 59 4 619
3 16 5 4
3 16 4 59
3 16 124 5
3 16 57 124
3 68 622 612
3 68 623 622
3 18 634 6
3 18 6 20
3 18 20 23
3 158 155 159
3 149 160 232
3 97 96 155
3 97 155 71
3 97 298 299
3 97 71 298
3 193 21 22
3 193 23 21
3 624 623 80
3 638 7 634
3 638 619 7
3 32 607 608
3 32 612 607
3 32 608 87
3 88 8 284
3 88 87 8
3 88 290 269
3 88 269 401
3 33 609 610
3 33 610 611
3 33 611 34
3 621 26 611
3 621 624 26
3 83 166 671
3 211 44 43
3 211 43 35
3 211 212 105
3 647 691 321
3 679 182 294
3 185 256 100
3 9 269 290
3 9 263 10
3 9 290 263
3 39 10 42
3 39 272 269
3 39 269 9
3 39 9 10
3 41 501 105
3 41 42 501
3 41 105 212
3 505 263 175
3 172 42 10
3 172 10 263
3 205 524 44
3 205 44 211
3 205 211 105
3 625 70 72
3 625 613 70
3 625 72 271
3 625 271 274
3 653 45 12
3 653 12 626
3 106 11 107
3 106 220 695
3 106 695 11
3 14 212 48
3 14 40 212
3 14 45 40
3 14 12 45
3 14 13 12
3 46 48 328
3 46 178 13
3 46 13 14
3 46 14 48
3 111 419 328
3 116 47 419
3 118 47 116
3 118 116 112
3 118 112 328
3 169 29 333
3 119 169 333
3 49 52 27
3 49 27 50
3 51 219 54
3 51 54 15
3 51 15 52
3 341 418 419
3 459 144 145
3 246 248 55
3 127 17 234
3 127 57 17
3 167 620 636
3 167 59 620
3 60 16 59
3 60 234 17
3 60 17 57
3 60 57 16
3 69 623 68
3 86 667 135
3 270 271 72
3 136 137 667
3 240 666 142
3 631 18 23
3 631 634 18
3 496 548 145
3 153 232 155
3 152 155 158
3 152 149 153
3 152 158 160
3 152 160 149
3 73 19 232
3 73 232 160
3 651 73 650
3 651 19 73
3 651 20 19
3 651 21 20
3 651 22 21
3 651 247 22
3 189 560 190
3 189 316 560
3 306 483 188
3 306 188 165
3 194 22 164
3 194 193 22
3 75 23 193
3 75 632 631
3 75 631 23
3 192 24 76
3 192 190 24
3 192 75 193
3 81 50 624
3 81 83 50
3 81 624 80
3 25 26 624
3 25 624 50
3 25 27 26
3 25 50 27
3 84 617 618
3 84 618 28
3 84 29 169
3 84 28 30
3 84 30 29
3 637 31 618
3 637 633 31
3 67 612 32
3 67 32 87
3 67 87 86
3 173 140 141
3 402 88 401
3 278 290 88
3 90 33 34
3 90 609 33
3 90 34 91
3 90 35 609
3 90 211 35
3 646 691 647
3 406 690 689
3 406 322 690
3 406 640 614
3 94 321 93
3 94 647 321
3 678 470 182
3 678 182 679
3 250 36 560
3 250 37 36
3 250 334 37
3 253 181 249
3 56 98 100
3 56 100 122
3 648 56 55
3 648 98 56
3 648 55 248
3 648 159 96
3 648 649 159
3 648 248 651
3 186 100 98
3 186 185 100
3 296 644 642
3 296 139 644
3 191 164 188
3 191 194 164
3 102 393 262
3 102 280 393
3 394 393 280
3 38 39 42
3 38 212 40
3 38 40 272
3 38 272 39
3 38 41 212
3 38 42 41
3 103 262 505
3 103 505 280
3 171 501 42
3 171 42 172
3 523 174 524
3 283 284 43
3 283 43 44
3 283 44 524
3 283 524 174
3 264 524 205
3 652 625 274
3 652 274 273
3 652 273 45
3 652 45 653
3 108 107 321
3 206 46 328
3 206 178 46
3 206 322 178
3 209 109 47
3 209 47 118
3 113 328 112
3 115 116 419
3 117 111 112
3 117 112 116
3 117 419 111
3 213 48 212
3 213 328 48
3 213 118 328
3 338 337 215
3 217 216 673
3 217 169 119
3 654 655 52
3 654 52 49
3 654 671 657
3 654 83 671
3 654 50 83
3 654 49 50
3 659 52 655
3 659 655 656
3 659 215 337
3 659 656 216
3 659 216 215
3 658 219 51
3 658 661 219
3 658 51 52
3 658 52 659
3 53 54 219
3 53 219 341
3 53 419 54
3 53 341 419
3 458 145 548
3 458 459 145
3 121 222 246
3 121 246 55
3 121 55 56
3 121 223 222
3 121 56 122
3 708 710 443
3 126 124 57
3 126 57 127
3 226 155 232
3 58 59 167
3 58 60 59
3 58 167 627
3 58 627 133
3 58 234 60
3 58 133 234
3 77 79 80
3 77 64 628
3 61 80 623
3 61 623 69
3 61 77 80
3 61 66 63
3 61 69 66
3 61 63 64
3 61 64 77
3 62 663 628
3 62 628 64
3 357 62 64
3 357 663 62
3 233 63 66
3 233 66 134
3 233 64 63
3 233 357 64
3 362 233 134
3 65 86 135
3 65 134 66
3 65 135 134
3 65 67 86
3 65 612 67
3 65 68 612
3 65 66 69
3 65 69 68
3 363 72 70
3 363 70 364
3 236 298 71
3 236 71 129
3 236 129 237
3 541 644 139
3 238 270 72
3 238 72 363
3 238 363 369
3 536 706 707
3 536 537 706
3 439 142 440
3 439 240 142
3 143 136 667
3 426 425 136
3 426 136 143
3 349 243 144
3 349 451 450
3 150 149 232
3 154 155 152
3 157 73 160
3 157 650 73
3 566 253 249
3 312 255 566
3 312 566 313
3 163 164 161
3 163 390 165
3 385 483 306
3 74 633 632
3 74 632 75
3 74 76 633
3 74 192 76
3 74 75 192
3 82 629 166
3 82 628 629
3 82 77 628
3 82 79 77
3 78 80 79
3 78 81 80
3 78 82 166
3 78 79 82
3 78 166 83
3 78 83 81
3 258 635 617
3 258 617 84
3 258 84 169
3 261 172 263
3 498 261 260
3 397 173 141
3 85 86 87
3 85 87 88
3 85 88 402
3 85 667 86
3 85 402 667
3 403 667 402
3 504 280 505
3 504 287 317
3 318 319 317
3 318 317 287
3 289 290 278
3 286 88 284
3 286 278 88
3 286 287 278
3 89 90 91
3 89 419 109
3 89 91 419
3 89 109 211
3 89 211 90
3 176 689 691
3 176 691 646
3 179 322 406
3 179 406 614
3 92 469 470
3 92 94 93
3 92 470 94
3 92 574 469
3 92 93 180
3 92 180 574
3 677 470 678
3 677 647 94
3 677 94 470
3 677 645 647
3 462 334 250
3 252 181 253
3 95 648 96
3 95 97 299
3 95 96 97
3 95 299 297
3 95 297 186
3 95 98 648
3 95 186 98
3 183 685 643
3 183 643 641
3 183 252 685
3 686 185 186
3 305 191 188
3 99 195 483
3 99 483 301
3 99 301 195
3 304 241 123
3 196 122 100
3 196 123 122
3 196 100 256
3 196 256 255
3 196 304 123
3 196 255 312
3 196 305 304
3 101 102 262
3 101 280 102
3 101 262 103
3 101 103 280
3 391 407 409
3 104 105 501
3 104 202 105
3 104 501 519
3 104 519 202
3 203 205 105
3 203 105 202
3 326 108 321
3 326 327 108
3 345 106 107
3 345 107 108
3 345 220 106
3 345 108 327
3 208 211 109
3 208 109 209
3 110 112 111
3 110 113 112
3 110 111 328
3 110 328 113
3 114 116 115
3 114 117 116
3 114 115 419
3 114 419 117
3 210 209 118
3 210 118 213
3 672 216 656
3 672 673 216
3 672 656 657
3 672 657 671
3 332 217 119
3 332 119 333
3 339 338 330
3 168 169 217
3 168 217 673
3 218 661 660
3 218 219 661
3 336 660 659
3 336 659 337
3 120 121 122
3 120 223 121
3 120 122 123
3 120 123 241
3 120 241 223
3 224 349 144
3 224 457 246
3 224 380 457
3 224 456 380
3 224 144 459
3 224 459 456
3 308 241 487
3 308 223 241
3 235 132 355
3 235 237 129
3 433 354 352
3 433 352 709
3 225 230 125
3 716 354 715
3 227 125 359
3 227 225 125
3 227 424 225
3 747 707 421
3 719 127 234
3 719 359 127
3 231 124 126
3 231 232 124
3 229 125 230
3 229 359 125
3 229 231 126
3 229 127 359
3 229 126 127
3 128 129 155
3 128 155 132
3 128 235 129
3 128 132 235
3 356 355 132
3 356 715 354
3 130 232 230
3 130 226 232
3 130 230 225
3 130 225 226
3 131 132 155
3 131 155 226
3 131 356 132
3 131 226 715
3 131 715 356
3 662 133 627
3 662 234 133
3 720 357 233
3 138 134 135
3 138 362 134
3 138 667 137
3 138 135 667
3 361 137 136
3 361 136 425
3 361 138 137
3 361 362 138
3 368 369 363
3 540 298 236
3 540 139 296
3 540 296 298
3 540 541 139
3 732 709 708
3 665 270 238
3 665 140 173
3 665 370 440
3 665 141 140
3 665 440 142
3 665 667 397
3 665 397 141
3 665 142 666
3 664 426 143
3 664 143 667
3 664 666 240
3 664 240 426
3 374 496 145
3 374 145 146
3 244 144 243
3 244 145 144
3 244 146 145
3 244 374 146
3 147 376 496
3 147 496 349
3 147 349 376
3 377 376 349
3 377 349 450
3 377 543 724
3 377 450 543
3 148 153 149
3 148 149 150
3 148 232 153
3 148 150 232
3 151 152 153
3 151 154 152
3 151 153 155
3 151 155 154
3 156 649 650
3 156 650 157
3 156 158 159
3 156 159 649
3 156 160 158
3 156 157 160
3 382 548 390
3 382 161 247
3 382 163 161
3 382 390 163
3 736 560 566
3 568 316 313
3 568 313 566
3 254 685 252
3 315 316 189
3 315 189 197
3 162 164 163
3 162 163 165
3 162 188 164
3 162 165 188
3 484 306 489
3 484 385 306
3 492 306 165
3 492 165 390
3 668 166 629
3 668 671 166
3 681 630 627
3 681 167 636
3 681 627 167
3 670 168 673
3 670 258 169
3 670 169 168
3 170 266 202
3 170 519 266
3 170 202 519
3 499 501 171
3 499 261 498
3 499 171 172
3 499 172 261
3 408 498 260
3 275 401 269
3 275 269 276
3 268 276 269
3 268 270 665
3 268 665 276
3 396 667 403
3 396 173 397
3 404 665 173
3 404 276 665
3 404 173 396
3 404 396 403
3 277 278 287
3 277 287 504
3 281 394 280
3 281 317 394
3 285 174 523
3 285 523 318
3 285 283 174
3 285 318 287
3 507 175 290
3 507 505 175
3 683 176 646
3 683 689 176
3 674 644 541
3 674 541 606
3 177 178 322
3 177 322 179
3 177 626 178
3 177 615 626
3 177 614 615
3 177 179 614
3 698 180 695
3 698 574 180
3 472 468 249
3 472 249 181
3 472 181 182
3 471 182 470
3 471 472 182
3 676 645 677
3 295 181 252
3 295 294 182
3 295 182 181
3 295 252 183
3 293 183 641
3 293 295 183
3 184 185 686
3 184 686 685
3 184 685 254
3 184 256 185
3 184 254 256
3 687 186 297
3 687 686 186
3 187 195 305
3 187 305 188
3 187 483 195
3 187 188 483
3 198 197 189
3 198 189 190
3 198 305 196
3 198 191 305
3 198 190 192
3 198 192 193
3 198 193 194
3 198 194 191
3 303 305 195
3 303 195 301
3 310 487 583
3 242 241 304
3 242 304 302
3 314 196 312
3 314 315 197
3 314 197 198
3 314 198 196
3 596 259 413
3 596 597 259
3 200 510 407
3 200 201 510
3 392 317 510
3 392 510 201
3 392 394 317
3 199 407 391
3 199 200 407
3 199 201 200
3 199 391 392
3 199 392 201
3 204 205 203
3 265 202 266
3 265 203 202
3 265 204 203
3 265 264 205
3 265 205 204
3 325 206 328
3 324 322 206
3 324 206 325
3 344 345 327
3 344 327 348
3 701 328 419
3 207 208 209
3 207 209 210
3 207 212 211
3 207 211 208
3 207 213 212
3 207 210 213
3 693 291 699
3 693 694 339
3 693 330 291
3 693 339 330
3 214 338 215
3 214 332 338
3 214 215 216
3 214 216 217
3 214 217 332
3 464 463 330
3 415 218 660
3 415 416 218
3 342 219 218
3 342 341 219
3 342 218 416
3 346 220 345
3 346 696 220
3 346 704 696
3 346 702 704
3 350 349 224
3 350 224 309
3 221 308 309
3 221 246 222
3 221 222 223
3 221 223 308
3 221 224 246
3 221 309 224
3 712 424 351
3 436 235 355
3 714 225 424
3 714 715 226
3 714 226 225
3 422 351 424
3 422 424 227
3 422 227 359
3 228 229 230
3 228 231 229
3 228 230 232
3 228 232 231
3 360 233 362
3 360 720 233
3 718 719 234
3 718 234 662
3 533 719 720
3 533 747 421
3 365 639 728
3 435 237 235
3 435 235 436
3 539 540 236
3 539 236 237
3 539 237 435
3 434 433 709
3 434 709 732
3 371 431 448
3 371 369 431
3 371 238 369
3 372 665 238
3 372 370 665
3 372 238 371
3 445 443 710
3 445 240 439
3 239 710 706
3 239 445 710
3 239 706 537
3 239 240 445
3 239 537 426
3 239 426 240
3 481 487 241
3 481 482 487
3 481 301 483
3 481 302 301
3 481 241 242
3 481 242 302
3 375 243 349
3 375 244 243
3 375 349 496
3 375 374 244
3 449 583 580
3 379 257 376
3 379 388 257
3 553 248 381
3 245 248 246
3 245 381 248
3 245 246 457
3 245 457 381
3 455 380 456
3 550 548 382
3 552 382 247
3 552 247 651
3 552 651 248
3 552 248 553
3 383 566 249
3 383 249 468
3 384 250 560
3 384 462 250
3 477 560 316
3 477 316 568
3 565 566 560
3 565 477 568
3 251 252 253
3 251 254 252
3 251 253 566
3 251 566 255
3 251 255 256
3 251 256 254
3 480 385 484
3 387 495 494
3 387 257 388
3 387 494 496
3 387 496 376
3 387 376 257
3 491 306 492
3 491 580 306
3 491 495 580
3 680 670 669
3 680 635 258
3 680 258 670
3 516 500 515
3 569 259 597
3 569 599 530
3 569 413 259
3 411 408 260
3 411 260 261
3 411 505 262
3 411 263 505
3 411 261 263
3 411 262 393
3 522 518 521
3 522 519 518
3 522 524 264
3 522 264 265
3 522 266 519
3 522 265 266
3 267 268 269
3 267 271 270
3 267 270 268
3 267 269 272
3 267 272 273
3 267 273 274
3 267 274 271
3 398 667 396
3 400 275 276
3 400 276 404
3 400 401 275
3 405 277 504
3 405 507 289
3 405 289 278
3 405 278 277
3 279 280 504
3 279 281 280
3 279 504 317
3 279 317 281
3 282 284 283
3 282 283 285
3 282 286 284
3 282 287 286
3 282 285 287
3 288 290 289
3 288 507 290
3 288 289 507
3 738 765 755
3 738 755 365
3 738 365 728
3 682 645 676
3 682 676 679
3 682 679 508
3 739 406 689
3 739 689 683
3 726 674 606
3 697 699 761
3 465 699 291
3 465 463 558
3 465 330 463
3 465 291 330
3 292 641 675
3 292 293 641
3 292 675 508
3 292 679 294
3 292 508 679
3 292 294 295
3 292 295 293
3 684 296 642
3 684 687 297
3 684 298 296
3 684 299 298
3 684 297 299
3 300 301 302
3 300 303 301
3 300 302 304
3 300 304 305
3 300 305 303
3 509 489 306
3 509 306 580
3 576 583 487
3 452 310 583
3 452 350 310
3 307 309 308
3 307 350 309
3 307 310 350
3 307 308 487
3 307 487 310
3 311 312 313
3 311 314 312
3 311 315 314
3 311 313 316
3 311 316 315
3 598 514 597
3 529 510 317
3 529 317 319
3 525 319 318
3 525 318 523
3 525 529 319
3 525 527 529
3 763 512 743
3 320 348 327
3 320 327 325
3 320 328 348
3 320 325 328
3 688 321 691
3 688 326 321
3 688 690 322
3 688 322 324
3 323 324 325
3 323 327 326
3 323 325 327
3 323 326 688
3 323 688 324
3 347 701 702
3 347 348 328
3 347 328 701
3 703 701 419
3 692 696 704
3 692 704 416
3 329 338 332
3 329 332 464
3 329 330 338
3 329 464 330
3 331 464 332
3 331 333 334
3 331 332 333
3 331 334 462
3 331 462 464
3 335 660 336
3 335 415 660
3 335 336 337
3 335 337 338
3 335 338 339
3 335 339 694
3 335 694 415
3 700 416 704
3 340 418 341
3 340 341 342
3 340 700 418
3 340 342 416
3 340 416 700
3 343 345 344
3 343 346 345
3 343 702 346
3 343 347 702
3 343 344 348
3 343 348 347
3 453 451 349
3 453 349 350
3 453 350 452
3 711 712 351
3 711 351 422
3 705 709 352
3 705 352 354
3 705 354 716
3 705 716 712
3 713 712 716
3 353 433 437
3 353 437 436
3 353 354 433
3 353 436 355
3 353 355 356
3 353 356 354
3 717 357 720
3 717 663 357
3 358 359 719
3 358 719 533
3 358 422 359
3 358 533 422
3 534 720 360
3 534 362 361
3 534 360 362
3 534 361 425
3 366 363 364
3 366 368 363
3 366 639 365
3 366 616 639
3 366 364 616
3 427 430 368
3 427 365 755
3 427 368 366
3 427 366 365
3 367 369 368
3 367 368 430
3 367 431 369
3 367 430 431
3 749 432 757
3 441 440 370
3 441 371 448
3 441 370 372
3 441 372 371
3 373 496 374
3 373 375 496
3 373 374 375
3 389 449 580
3 389 723 449
3 722 449 723
3 722 724 543
3 721 379 376
3 721 377 724
3 721 376 377
3 721 723 379
3 378 379 723
3 378 388 379
3 378 723 389
3 378 389 388
3 454 457 380
3 454 380 455
3 547 458 548
3 555 381 457
3 555 457 550
3 555 553 381
3 460 550 382
3 460 382 552
3 474 566 383
3 474 383 468
3 474 468 473
3 557 384 560
3 557 462 384
3 475 568 566
3 478 560 477
3 479 483 385
3 479 385 480
3 486 487 482
3 386 495 387
3 386 387 388
3 386 580 495
3 386 389 580
3 386 388 389
3 493 390 548
3 493 492 390
3 517 519 500
3 517 500 516
3 502 498 408
3 502 408 587
3 410 391 409
3 410 392 391
3 410 411 393
3 410 393 394
3 410 394 392
3 395 396 397
3 395 398 396
3 395 397 667
3 395 667 398
3 399 401 400
3 399 402 401
3 399 403 402
3 399 404 403
3 399 400 404
3 506 405 504
3 506 507 405
3 725 508 675
3 727 640 406
3 727 406 739
3 573 698 697
3 573 574 698
3 466 761 699
3 466 699 465
3 579 509 580
3 581 582 583
3 581 583 576
3 585 407 510
3 585 587 408
3 585 409 407
3 585 410 409
3 585 408 411
3 585 411 410
3 592 412 593
3 592 596 413
3 592 413 412
3 594 593 412
3 594 569 530
3 594 412 413
3 594 413 569
3 532 742 510
3 528 603 532
3 528 510 529
3 528 532 510
3 741 742 604
3 511 763 599
3 511 512 763
3 511 599 590
3 414 694 692
3 414 415 694
3 414 416 415
3 414 692 416
3 417 700 703
3 417 418 700
3 417 419 418
3 417 703 419
3 420 707 711
3 420 421 707
3 420 711 422
3 420 533 421
3 420 422 533
3 423 713 714
3 423 714 424
3 423 424 712
3 423 712 713
3 746 720 534
3 535 534 425
3 535 425 426
3 535 426 537
3 428 427 755
3 428 430 427
3 754 432 430
3 754 430 428
3 754 757 432
3 754 428 755
3 429 749 731
3 429 731 447
3 429 431 430
3 429 448 431
3 429 447 448
3 429 430 432
3 429 432 749
3 730 437 433
3 730 433 434
3 730 434 732
3 750 539 435
3 750 751 539
3 750 436 437
3 750 435 436
3 750 437 730
3 601 539 751
3 601 606 541
3 601 756 606
3 729 444 731
3 729 732 708
3 729 708 444
3 438 439 440
3 438 440 441
3 438 445 439
3 438 446 445
3 438 441 448
3 438 448 446
3 442 708 443
3 442 444 708
3 442 443 445
3 442 445 446
3 442 447 731
3 442 731 444
3 442 448 447
3 442 446 448
3 544 449 722
3 544 543 450
3 544 583 449
3 544 450 451
3 544 452 583
3 544 451 453
3 544 453 452
3 546 454 455
3 546 455 456
3 546 550 457
3 546 457 454
3 546 458 547
3 546 459 458
3 546 456 459
3 554 550 460
3 554 460 552
3 561 736 558
3 461 462 557
3 461 557 558
3 461 558 463
3 461 463 464
3 461 464 462
3 734 558 736
3 734 465 558
3 734 466 465
3 734 761 466
3 733 736 566
3 563 566 474
3 467 473 468
3 467 572 473
3 467 469 574
3 467 574 572
3 467 470 469
3 467 471 470
3 467 468 472
3 467 472 471
3 571 473 572
3 571 474 473
3 571 563 474
3 567 568 475
3 567 475 566
3 476 477 565
3 476 478 477
3 476 565 560
3 476 560 478
3 488 479 480
3 488 482 481
3 488 481 483
3 488 483 479
3 488 486 482
3 488 480 484
3 488 484 489
3 485 487 486
3 485 576 487
3 485 488 489
3 485 486 488
3 485 489 509
3 485 509 576
3 490 491 492
3 490 492 493
3 490 494 495
3 490 495 491
3 490 493 548
3 490 548 496
3 490 496 494
3 497 498 502
3 497 499 498
3 497 569 597
3 497 502 569
3 497 500 519
3 497 519 501
3 497 501 499
3 497 515 500
3 497 597 514
3 497 514 515
3 588 502 587
3 588 569 502
3 503 504 505
3 503 506 504
3 503 505 507
3 503 507 506
3 767 682 508
3 767 508 725
3 737 765 738
3 737 759 765
3 737 683 759
3 578 576 509
3 578 509 579
3 740 743 512
3 740 510 742
3 740 585 510
3 586 511 590
3 586 512 511
3 586 740 512
3 513 598 520
3 513 514 598
3 513 515 514
3 513 516 515
3 513 517 516
3 513 521 518
3 513 520 521
3 513 518 519
3 513 519 517
3 595 520 598
3 595 521 520
3 595 522 521
3 595 523 524
3 595 524 522
3 595 525 523
3 595 527 525
3 595 594 527
3 526 527 594
3 526 594 603
3 526 603 528
3 526 529 527
3 526 528 529
3 605 530 599
3 605 594 530
3 605 603 594
3 531 603 604
3 531 532 603
3 531 604 742
3 531 742 532
3 745 747 533
3 745 533 720
3 745 720 746
3 744 746 534
3 744 534 535
3 744 536 707
3 744 707 747
3 744 537 536
3 744 535 537
3 748 750 730
3 748 749 757
3 748 757 752
3 538 540 539
3 538 539 601
3 538 541 540
3 538 601 541
3 753 751 752
3 753 752 757
3 542 722 543
3 542 543 544
3 542 544 722
3 545 550 546
3 545 546 547
3 545 548 550
3 545 547 548
3 549 555 550
3 549 550 554
3 549 554 555
3 551 552 553
3 551 554 552
3 551 553 555
3 551 555 554
3 556 558 557
3 556 561 558
3 556 557 560
3 556 560 561
3 559 560 736
3 559 561 560
3 559 736 561
3 562 735 733
3 562 571 735
3 562 563 571
3 562 733 566
3 562 566 563
3 564 566 565
3 564 567 566
3 564 565 568
3 564 568 567
3 589 569 588
3 589 590 599
3 589 599 569
3 758 682 767
3 760 697 761
3 570 735 571
3 570 760 735
3 570 571 572
3 570 697 760
3 570 573 697
3 570 572 574
3 570 574 573
3 575 581 576
3 575 576 578
3 575 578 581
3 577 578 579
3 577 579 580
3 577 582 581
3 577 581 578
3 577 580 583
3 577 583 582
3 584 585 740
3 584 740 586
3 584 587 585
3 584 588 587
3 584 589 588
3 584 586 590
3 584 590 589
3 591 592 593
3 591 593 594
3 591 594 595
3 591 597 596
3 591 596 592
3 591 598 597
3 591 595 598
3 762 599 763
3 762 605 599
3 762 741 604
3 600 753 756
3 600 756 601
3 600 601 751
3 600 751 753
3 602 604 603
3 602 762 604
3 602 603 605
3 602 605 762
3 766 756 764
3 766 726 606
3 766 606 756
3 607 609 608
3 607 610 609
3 611 610 607
3 611 607 612
3 613 615 614
3 613 614 616
3 617 619 618
3 617 620 619
3 621 611 612
3 621 612 622
3 621 622 623
3 621 623 624
3 625 615 613
3 625 626 615
3 627 629 628
3 627 630 629
3 631 632 633
3 631 633 634
3 635 620 617
3 635 636 620
3 637 618 619
3 637 619 638
3 637 634 633
3 637 638 634
3 639 616 614
3 639 614 640
3 641 643 642
3 641 642 644
3 645 646 647
3 648 650 649
3 648 651 650
3 652 626 625
3 652 653 626
3 654 656 655
3 654 657 656
3 658 659 660
3 658 660 661
3 662 627 628
3 662 628 663
3 664 665 666
3 664 667 665
3 668 629 630
3 668 630 669
3 670 668 669
3 670 671 668
3 670 672 671
3 670 673 672
3 674 641 644
3 674 675 641
3 676 677 678
3 676 678 679
3 680 636 635
3 680 681 636
3 680 669 630
3 680 630 681
3 682 646 645
3 682 683 646
3 684 642 643
3 684 643 685
3 684 685 686
3 684 686 687
3 688 689 690
3 688 691 689
3 692 694 693
3 692 695 696
3 692 697 698
3 692 698 695
3 692 693 699
3 692 699 697
3 700 702 701
3 700 701 703
3 700 704 702
3 705 707 706
3 705 708 709
3 705 710 708
3 705 706 710
3 705 712 711
3 705 711 707
3 713 715 714
3 713 716 715
3 717 719 718
3 717 720 719
3 717 662 663
3 717 718 662
3 721 722 723
3 721 724 722
3 725 675 674
3 725 674 726
3 727 639 640
3 727 728 639
3 729 731 730
3 729 730 732
3 733 735 734
3 733 734 736
3 737 728 727
3 737 738 728
3 737 739 683
3 737 727 739
3 740 742 741
3 740 741 743
3 744 745 746
3 744 747 745
3 748 730 731
3 748 731 749
3 748 751 750
3 748 752 751
3 753 754 755
3 753 755 756
3 753 757 754
3 758 683 682
3 758 759 683
3 760 734 735
3 760 761 734
3 762 743 741
3 762 763 743
3 764 759 758
3 764 765 759
3 764 756 755
3 764 755 765
3 766 725 726
3 766 767 725
3 766 764 758
3 766 758 767
