ply
format ascii 1.0
comment PCL generated
element vertex 771
property float x
property float y
property float z
element face 1538
property list uchar int vertex_indices
end_header
0.023757 0.006732 0.031493 
-0.0091951 0.024547 0.029171 
-0.0039177 0.0288 0.029171 
0.01283 -0.017076 0.0318 
-0.0079635 0.021259 0.031812 
0.020524 0.01412 0.025506 
0.020561 0.014146 0.021435 
0.020524 -0.01412 -0.025506 
0.020195 -0.013894 -0.029171 
-0.020195 -0.013894 -0.029171 
-0.019041 -0.0131 -0.031136 
0.0091951 0.024547 0.029171 
0.0069866 -0.018651 0.031983 
-0.020524 0.01412 0.025506 
0.0039177 0.0288 0.029171 
0.00014906 0.031209 0.029171 
-0.00014906 0.031209 0.029171 
-0.020524 -0.01412 -0.025506 
0.0032432 -0.023841 0.031915 
0.0079635 -0.021259 0.031812 
0.0074948 -0.020008 0.031942 
0.019041 -0.0131 0.031136 
0.023757 -0.006732 0.031493 
-0.013832 0.018411 0.031136 
-0.01283 0.017076 0.0318 
-0.019041 0.0131 0.031136 
-0.0087486 0.023355 0.031021 
-0.01467 0.019526 0.029171 
-0.020195 0.013894 0.029171 
-0.0035763 0.02629 0.031545 
-0.00012728 0.030433 0.030534 
-0.003812 0.028023 0.030589 
0.01467 0.019526 -0.029171 
0.0093448 0.024946 0.025506 
0.01493 0.019872 0.023395 
0.020553 0.01414 0.023395 
0.014909 0.019844 0.025506 
0.023757 -0.006732 -0.031493 
0.019041 -0.0131 -0.031136 
0.020553 -0.01414 -0.023395 
0.020524 -0.01412 0.025506 
0.0039815 -0.029269 0.025506 
0.014937 -0.019882 0.018793 
0.01493 -0.019872 0.023395 
0.0087486 -0.023355 -0.031021 
0.0091951 -0.024547 -0.029171 
0.01467 -0.019526 -0.029171 
-0.01467 -0.019526 -0.029171 
-0.013536 -0.0093128 -0.032005 
-0.0093448 -0.024946 -0.025506 
-0.014909 -0.019844 -0.025506 
0.013832 0.018411 0.031136 
0.0087486 0.023355 0.031021 
0.01467 0.019526 0.029171 
0.020195 0.013894 0.029171 
0.019041 0.0131 0.031136 
0.0060846 -0.016243 0.032006 
0.010647 -0.014171 0.031996 
0.016289 -0.011207 0.031938 
0.011895 -0.015832 0.031941 
0.017833 -0.012269 0.031768 
0.0032432 0.023841 0.031915 
0.0079635 0.021259 0.031812 
-0.0001253 0.026233 0.031892 
-0.0032432 0.023841 0.031915 
0.018799 0.0053272 0.031996 
0.021223 -0.0060141 0.031925 
0.018799 -0.0053272 0.031996 
0.01283 0.017076 0.0318 
0.0074948 0.020008 0.031942 
-0.003812 0.028023 -0.030589 
-0.020195 0.013894 -0.029171 
-0.0039891 0.029325 -0.015731 
-0.0048592 -0.012972 -0.032009 
-0.011717 -0.0080614 -0.032008 
-0.0079635 -0.021259 0.031812 
-0.0074948 -0.020008 0.031942 
-0.0032432 -0.023841 0.031915 
0.0035763 -0.02629 0.031545 
0.0001253 -0.026233 0.031892 
-0.0001253 -0.026233 0.031892 
-0.00014369 -0.02869 0.031488 
-0.017833 0.012269 0.031768 
0.00010652 -0.021253 0.032004 
0.00051729 -0.018628 0.032008 
0.0026092 -0.019181 0.032006 
0.0028934 -0.02127 0.031992 
0.00010857 -0.023778 0.031983 
-0.00010857 -0.023778 0.031983 
0.00014369 0.02869 0.031488 
0.0001253 0.026233 0.031892 
0.0035763 0.02629 0.031545 
-0.00014369 0.02869 0.031488 
0.00012728 0.030433 0.030534 
0.003812 0.028023 0.030589 
0.020524 0.01412 -0.025506 
0.020195 0.013894 -0.029171 
0.020561 0.014146 -0.021435 
0.0039871 0.029311 0.023395 
0.0039815 0.029269 0.025506 
0.020563 0.014147 0.015731 
0.020563 0.014147 0.018793 
0.020563 0.014147 0.01316 
0.014937 0.019882 0.018793 
0.023757 0.006732 -0.031493 
0.019041 0.0131 -0.031136 
0.013832 -0.018411 -0.031136 
0.017833 -0.012269 -0.031768 
0.0093581 -0.024982 -0.023395 
0.01493 -0.019872 -0.023395 
0.0093448 -0.024946 -0.025506 
0.014909 -0.019844 -0.025506 
0.0039815 -0.029269 -0.025506 
0.0039871 -0.029311 -0.023395 
0.0039886 -0.029321 -0.021435 
0.01467 -0.019526 0.029171 
0.0087486 -0.023355 0.031021 
0.013832 -0.018411 0.031136 
0.0091951 -0.024547 0.029171 
0.020195 -0.013894 0.029171 
0.014909 -0.019844 0.025506 
0.0093448 -0.024946 0.025506 
0.020561 -0.014146 0.021435 
0.020563 -0.014147 0.018793 
0.020553 -0.01414 0.023395 
0.016289 -0.011207 -0.031938 
0.021223 -0.0060141 -0.031925 
0.0035763 -0.02629 -0.031545 
0.0060846 -0.016243 -0.032006 
0.00051729 -0.018628 -0.032008 
0.00080932 -0.016262 -0.032008 
-0.00080932 -0.016262 -0.032008 
-0.0039871 -0.029311 -0.023395 
-0.0039815 -0.029269 -0.025506 
-0.0039886 -0.029321 -0.021435 
-0.0039891 0.029325 -0.018793 
0.013536 -0.0093128 0.032005 
0.014743 -0.010143 0.031997 
0.013536 0.0093128 0.032005 
-0.0074948 0.020008 0.031942 
0.016289 0.011207 0.031938 
0.021223 0.0060141 0.031925 
0.011895 0.015832 0.031941 
0.017833 0.012269 0.031768 
-0.013832 0.018411 -0.031136 
-0.019041 0.0131 -0.031136 
-0.0087486 0.023355 -0.031021 
-0.0035763 0.02629 -0.031545 
-0.020553 0.01414 0.023395 
-0.020563 0.014147 0.018793 
-0.020561 0.014146 0.021435 
-0.014937 0.019882 0.018793 
-0.014936 0.01988 0.021435 
-0.01493 0.019872 0.023395 
-0.0093448 0.024946 0.025506 
-0.014909 0.019844 0.025506 
-0.014937 0.019882 -0.018793 
-0.020563 0.014147 -0.018793 
-0.0093626 0.024994 -0.018793 
-0.020553 0.01414 -0.023395 
-0.020561 0.014146 -0.021435 
-0.020524 0.01412 -0.025506 
-0.020563 0.014147 -0.015731 
-0.0093616 0.024991 -0.021435 
-0.01493 0.019872 -0.023395 
-0.014936 0.01988 -0.021435 
-0.016253 -0.0046057 -0.032007 
-0.0079635 0.021259 -0.031812 
-0.01283 0.017076 -0.0318 
-0.021223 -0.0060141 -0.031925 
-0.00010652 -0.021253 0.032004 
-0.0028934 -0.02127 0.031992 
0.00012728 -0.030433 0.030534 
-0.00012728 -0.030433 0.030534 
0.0039177 -0.0288 0.029171 
0.003812 -0.028023 0.030589 
0.00014369 -0.02869 0.031488 
-0.01283 -0.017076 0.0318 
-0.0035763 -0.02629 0.031545 
-0.00012728 0.030433 -0.030534 
0.0091951 0.024547 -0.029171 
-0.00014906 0.031209 -0.029171 
0.01493 0.019872 -0.023395 
0.014909 0.019844 -0.025506 
0.014936 0.01988 -0.021435 
0.020553 0.01414 -0.023395 
0.020563 0.014147 0.011008 
0.0093616 0.024991 0.021435 
0.0093581 0.024982 0.023395 
0.014936 0.01988 0.021435 
0.0039886 0.029321 0.021435 
0.0093626 0.024994 0.018793 
0.014938 0.019882 0.015731 
0.0039891 0.029325 0.015731 
0.0039891 0.029325 0.018793 
0.0087486 0.023355 -0.031021 
0.013832 0.018411 -0.031136 
0.0026092 -0.019181 -0.032006 
0.00010652 -0.021253 -0.032004 
0.020563 -0.014147 -0.01316 
0.020563 -0.014147 -0.018793 
0.020561 -0.014146 -0.021435 
0.020563 -0.014147 -0.015731 
0.0039891 -0.029325 0.015731 
0.0039871 -0.029311 0.023395 
0.0093626 -0.024994 -0.018793 
0.0093616 -0.024991 -0.021435 
0.0039891 -0.029325 -0.018793 
0.014937 -0.019882 -0.018793 
0.014936 -0.01988 -0.021435 
0.014938 -0.019882 -0.015731 
0.0093628 -0.024994 -0.015731 
0.0039891 -0.029325 -0.015731 
0.0093628 -0.024994 0.015731 
0.014938 -0.019882 0.015731 
0.020563 -0.014147 0.015731 
-0.0065392 -0.0087036 -0.032009 
-0.01041 -0.0071619 -0.032009 
-0.0087368 -0.0060108 -0.032009 
-0.0042196 -0.011264 -0.032009 
-0.0006886 -0.013713 -0.032009 
0.013536 -0.0093128 -0.032005 
-0.0087486 -0.023355 -0.031021 
-0.0091951 -0.024547 -0.029171 
-0.016289 -0.011207 -0.031938 
-0.014743 -0.010143 -0.031997 
-0.00010857 -0.023778 -0.031983 
-0.0032432 -0.023841 -0.031915 
-0.0069866 -0.018651 -0.031983 
-0.0001253 -0.026233 -0.031892 
0.0001253 -0.026233 -0.031892 
0.00080932 -0.016262 0.032008 
0.00010857 0.023778 0.031983 
-0.00010857 0.023778 0.031983 
0.0069866 0.018651 0.031983 
0.014743 0.010143 0.031997 
-0.020563 -0.014147 -0.011008 
-0.020524 -0.01412 0.025506 
-0.020553 -0.01414 0.023395 
-0.020561 -0.014146 0.021435 
-0.020563 0.014147 0.01316 
-0.020563 0.014147 0.015731 
-0.0093628 0.024994 0.015731 
-0.0093626 0.024994 0.018793 
-0.014938 0.019882 0.015731 
-0.0093616 0.024991 0.021435 
-0.0039891 0.029325 0.018793 
-0.00015178 0.031778 0.01316 
-0.0039891 0.029325 0.015731 
-0.00015178 0.031778 0.015731 
0.00015178 0.031778 0.01316 
0.00015178 0.031778 0.015731 
-0.014938 0.019882 -0.015731 
-0.0093628 0.024994 -0.015731 
-0.0093448 0.024946 -0.025506 
-0.0093581 0.024982 -0.023395 
-0.0039177 0.0288 -0.029171 
-0.0091951 0.024547 -0.029171 
-0.014909 0.019844 -0.025506 
-0.01467 0.019526 -0.029171 
-0.016289 0.011207 -0.031938 
-0.017833 0.012269 -0.031768 
-0.021223 0.0060141 -0.031925 
-0.0048592 0.012972 -0.032009 
0.0065392 0.0087036 -0.032009 
0.0042196 0.011264 -0.032009 
0.0087368 0.0060108 -0.032009 
-0.0053352 0.014242 -0.032008 
-0.0060846 -0.016243 0.032006 
-0.019041 -0.0131 0.031136 
-0.020195 -0.013894 0.029171 
-0.013832 -0.018411 0.031136 
-0.017833 -0.012269 0.031768 
-0.016289 0.011207 0.031938 
-0.021223 0.0060141 0.031925 
-0.011895 0.015832 0.031941 
-0.0069866 0.018651 0.031983 
-0.0028934 0.02127 0.031992 
-0.016289 -0.011207 0.031938 
-0.021223 -0.0060141 0.031925 
-0.011895 -0.015832 0.031941 
-0.0069866 -0.018651 0.031983 
-0.010647 -0.014171 0.031996 
-0.0042196 -0.011264 0.032009 
-0.0006886 -0.013713 0.032009 
-0.00080932 -0.016262 0.032008 
-0.00051729 -0.018628 0.032008 
-0.0026092 -0.019181 0.032006 
0.0039891 0.029325 -0.018793 
0.0093616 0.024991 -0.021435 
-0.0039871 0.029311 -0.023395 
-0.0039815 0.029269 -0.025506 
-0.0039886 0.029321 -0.021435 
0.020563 0.014147 -0.015731 
0.020563 0.014147 -0.018793 
0.014937 0.019882 -0.018793 
0.0093626 0.024994 -0.018793 
0.0039891 0.029325 -0.015731 
0.0093628 0.024994 0.015731 
0.0039891 0.029325 0.01316 
0.0006886 -0.013713 -0.032009 
0.0053352 -0.014242 -0.032008 
0.0097078 -0.012921 -0.032006 
0.016253 -0.0046057 -0.032007 
0.00012728 0.030433 -0.030534 
0.003812 0.028023 -0.030589 
0.0028934 -0.02127 -0.031992 
0.010647 -0.014171 -0.031996 
0.014743 -0.010143 -0.031997 
0.00015178 -0.031778 0.015731 
0.0093616 -0.024991 0.021435 
0.0039886 -0.029321 0.021435 
0.0093581 -0.024982 0.023395 
0.014936 -0.01988 0.021435 
0.0093626 -0.024994 0.018793 
0.0039891 -0.029325 0.018793 
-0.0039891 -0.029325 -0.018793 
0.00015178 -0.031778 -0.01316 
-0.0039891 -0.029325 -0.015731 
0.020563 -0.014147 0.011008 
0.020563 -0.014147 0.01316 
0.01283 0.017076 -0.0318 
0.01041 0.0071619 -0.032009 
0.017584 -0.0049828 -0.032005 
0.018799 -0.0053272 -0.031996 
0.018799 0.0053272 -0.031996 
-0.003812 -0.028023 -0.030589 
-0.00014369 -0.02869 -0.031488 
-0.01283 -0.017076 -0.0318 
-0.011895 -0.015832 -0.031941 
-0.017833 -0.012269 -0.031768 
-0.013832 -0.018411 -0.031136 
-0.0074948 -0.020008 -0.031942 
-0.0079635 -0.021259 -0.031812 
-0.0035763 -0.02629 -0.031545 
-0.00010652 -0.021253 -0.032004 
-0.00051729 -0.018628 -0.032008 
-0.0028934 -0.02127 -0.031992 
-0.0053352 -0.014242 -0.032008 
-0.0087368 -0.0060108 0.032009 
0.0097078 -0.012921 0.032006 
0.0053352 -0.014242 0.032008 
0.011717 -0.0080614 0.032008 
0.0028934 0.02127 0.031992 
-0.020563 -0.014147 -0.015731 
-0.020563 -0.014147 -0.01316 
-0.0093628 -0.024994 -0.015731 
-0.003812 -0.028023 0.030589 
-0.0087486 -0.023355 0.031021 
-0.020563 -0.014147 0.015731 
-0.020563 -0.014147 0.018793 
-0.0039871 0.029311 0.023395 
-0.0093581 0.024982 0.023395 
-0.0039815 0.029269 0.025506 
-0.0039886 0.029321 0.021435 
-0.020563 0.014147 0.011008 
-0.0039891 0.029325 -0.01316 
-0.0138 0.0039105 -0.032008 
-0.016253 0.0046057 -0.032007 
-0.0138 -0.0039105 -0.032008 
-0.011717 0.0080614 -0.032008 
-0.011895 0.015832 -0.031941 
-0.0060846 0.016243 -0.032006 
-0.010647 0.014171 -0.031996 
-0.013536 0.0093128 -0.032005 
-0.014743 0.010143 -0.031997 
-0.0097078 0.012921 -0.032006 
-0.011321 -0.003208 -0.032009 
-0.0087368 0.0060108 -0.032009 
-0.011321 0.003208 -0.032009 
-0.01041 0.0071619 -0.032009 
-0.0042196 0.011264 -0.032009 
-0.0094955 0.0026908 -0.032009 
0.0048592 0.012972 -0.032009 
-0.0032432 0.023841 -0.031915 
-0.0074948 0.020008 -0.031942 
-0.0069866 0.018651 -0.031983 
-0.00010652 0.021253 -0.032004 
-0.00051729 0.018628 -0.032008 
-0.0026092 0.019181 -0.032006 
-0.0028934 0.02127 -0.031992 
-0.00051729 0.018628 0.032008 
-0.00010652 0.021253 0.032004 
0.00010652 0.021253 0.032004 
0.00051729 0.018628 0.032008 
-0.0048592 -0.012972 0.032009 
-0.0053352 -0.014242 0.032008 
0.0039886 0.029321 -0.021435 
0.014938 0.019882 -0.015731 
0.020563 0.014147 -0.01316 
0.020563 0.014147 -0.011008 
0.0093628 0.024994 -0.015731 
0.0039891 0.029325 -0.01316 
0.0138 0.0039105 -0.032008 
0.011321 0.003208 -0.032009 
0.0094955 0.0026908 -0.032009 
0.01041 -0.0071619 -0.032009 
0.011717 -0.0080614 -0.032008 
0.0048592 -0.012972 -0.032009 
0.0138 -0.0039105 -0.032008 
0.011321 -0.003208 -0.032009 
0.0087368 -0.0060108 -0.032009 
0.0065392 -0.0087036 -0.032009 
0.0042196 -0.011264 -0.032009 
0.0074948 -0.020008 -0.031942 
0.0069866 -0.018651 -0.031983 
0.011895 -0.015832 -0.031941 
0.0032432 -0.023841 -0.031915 
0.0079635 -0.021259 -0.031812 
0.00010857 -0.023778 -0.031983 
0.01283 -0.017076 -0.0318 
-0.00015178 -0.031778 -0.01316 
0.0039891 -0.029325 0.01316 
0.0039891 -0.029325 -0.01316 
0.020563 -0.014147 -0.011008 
0.016289 0.011207 -0.031938 
0.017833 0.012269 -0.031768 
0.021223 0.0060141 -0.031925 
0.00014369 0.02869 -0.031488 
0.0035763 0.02629 -0.031545 
-0.0001253 0.026233 -0.031892 
0.0079635 0.021259 -0.031812 
-0.00014369 0.02869 -0.031488 
-0.00014906 -0.031209 -0.029171 
-0.0039177 -0.0288 -0.029171 
0.00012728 -0.030433 -0.030534 
-0.00012728 -0.030433 -0.030534 
0.00014906 -0.031209 -0.029171 
0.0039177 -0.0288 -0.029171 
0.003812 -0.028023 -0.030589 
0.00014369 -0.02869 -0.031488 
-0.0060846 -0.016243 -0.032006 
-0.010647 -0.014171 -0.031996 
-0.0097078 -0.012921 -0.032006 
-0.0026092 -0.019181 -0.032006 
0.0053352 0.014242 0.032008 
0.00080932 0.016262 0.032008 
-0.0048592 0.012972 0.032009 
-0.00080932 0.016262 0.032008 
0.0048592 -0.012972 0.032009 
0.0060846 0.016243 0.032006 
0.010647 0.014171 0.031996 
0.0097078 0.012921 0.032006 
0.0026092 0.019181 0.032006 
-0.014938 -0.019882 -0.015731 
-0.01493 -0.019872 0.023395 
-0.0039886 -0.029321 0.021435 
-0.014937 -0.019882 0.018793 
-0.014936 -0.01988 0.021435 
-0.0093616 -0.024991 0.021435 
-0.020563 0.014147 -0.011008 
-0.020563 0.014147 -0.01316 
-0.0039891 0.029325 0.01316 
0.011895 0.015832 -0.031941 
0.011717 0.0080614 -0.032008 
0.016253 0.0046057 -0.032007 
0.017584 0.0049828 -0.032005 
0.013536 0.0093128 -0.032005 
-0.011321 -0.003208 0.032009 
-0.01041 -0.0071619 0.032009 
-0.011717 -0.0080614 0.032008 
-0.0053352 0.014242 0.032008 
-0.013536 0.0093128 0.032005 
-0.014743 0.010143 0.031997 
-0.013536 -0.0093128 0.032005 
-0.014743 -0.010143 0.031997 
-0.0097078 -0.012921 0.032006 
0.0039815 0.029269 -0.025506 
0.0039871 0.029311 -0.023395 
0.00014906 0.031209 -0.029171 
0.0039177 0.0288 -0.029171 
0.0093448 0.024946 -0.025506 
0.0093581 0.024982 -0.023395 
-0.0039891 -0.029325 -0.01316 
-0.00015178 -0.031778 0.015731 
0.0001253 0.026233 -0.031892 
0.0032432 0.023841 -0.031915 
-0.00010857 0.023778 -0.031983 
0.0074948 0.020008 -0.031942 
0.0138 -0.0039105 0.032008 
-0.0042196 0.011264 0.032009 
-0.014936 -0.01988 -0.021435 
-0.020553 -0.01414 -0.023395 
-0.01493 -0.019872 -0.023395 
-0.020561 -0.014146 -0.021435 
-0.020563 -0.014147 -0.018793 
-0.014937 -0.019882 -0.018793 
-0.0093581 -0.024982 -0.023395 
-0.0093616 -0.024991 -0.021435 
-0.0093626 -0.024994 -0.018793 
-0.014909 -0.019844 0.025506 
-0.01467 -0.019526 0.029171 
-0.0091951 -0.024547 0.029171 
-0.0093626 -0.024994 0.018793 
-0.0039891 -0.029325 0.015731 
-0.0039891 -0.029325 0.018793 
0.014743 0.010143 -0.031997 
-0.0138 0.0039105 0.032008 
-0.016253 0.0046057 0.032007 
-0.016253 -0.0046057 0.032007 
-0.0138 -0.0039105 0.032008 
-0.011717 0.0080614 0.032008 
-0.01041 0.0071619 0.032009 
-0.0060846 0.016243 0.032006 
-0.0026092 0.019181 0.032006 
-0.010647 0.014171 0.031996 
-0.0097078 0.012921 0.032006 
0.00010857 0.023778 -0.031983 
0.0069866 0.018651 -0.031983 
0.0048592 0.012972 0.032009 
0.011717 0.0080614 0.032008 
0.0138 0.0039105 0.032008 
0.0065392 -0.0087036 0.032009 
0.0042196 -0.011264 0.032009 
0.0006886 -0.013713 0.032009 
0.01041 -0.0071619 0.032009 
-0.0087368 0.0060108 0.032009 
-0.011321 0.003208 0.032009 
-0.0065392 0.0087036 0.032009 
-0.0006886 0.013713 0.032009 
-0.0039815 -0.029269 0.025506 
-0.0093581 -0.024982 0.023395 
-0.0039871 -0.029311 0.023395 
-0.0093448 -0.024946 0.025506 
-0.0039177 -0.0288 0.029171 
0.0026092 0.019181 -0.032006 
0.0028934 0.02127 -0.031992 
0.00010652 0.021253 -0.032004 
0.00051729 0.018628 -0.032008 
0.010647 0.014171 -0.031996 
0.0060846 0.016243 -0.032006 
0.0097078 0.012921 -0.032006 
0.0053352 0.014242 -0.032008 
0.0065392 0.0087036 0.032009 
0.01041 0.0071619 0.032009 
0.0042196 0.011264 0.032009 
0.0087368 0.0060108 0.032009 
0.0006886 0.013713 0.032009 
0.011321 0.003208 0.032009 
0.011321 -0.003208 0.032009 
-0.0093628 -0.024994 0.015731 
-0.014938 -0.019882 0.015731 
-0.020563 -0.014147 0.01316 
-0.020563 -0.014147 0.011008 
-0.0039891 -0.029325 0.01316 
0.025317 -0.0071742 0.030461 
0.025903 0.0073402 0.029171 
0.025903 -0.0073402 0.029171 
0.025317 0.0071742 0.030461 
0.026324 -0.0074597 0.025506 
0.026324 0.0074597 0.025506 
-0.023757 0.006732 -0.031493 
-0.025317 -0.0071742 -0.030461 
-0.023757 -0.006732 -0.031493 
-0.025317 0.0071742 -0.030461 
0.026362 -0.0074704 0.023395 
0.026362 0.0074704 0.023395 
0.0039891 0.029325 -0.011008 
0.00015178 0.031778 0.011008 
0.00015178 0.031778 -0.011008 
0.0039891 0.029325 0.011008 
-0.025903 0.0073402 -0.029171 
-0.025903 -0.0073402 -0.029171 
-0.026324 -0.0074597 -0.025506 
-0.026324 0.0074597 -0.025506 
0.026375 0.0074741 0.011008 
0.020563 0.014147 -0.0088196 
0.020563 0.014147 0.0088196 
0.026375 0.0074741 -0.011008 
0.026375 0.0074741 -0.01316 
0.026375 -0.0074741 -0.01316 
0.026375 -0.0074741 -0.011008 
0.026372 -0.0074731 0.021435 
0.026375 0.0074739 0.018793 
0.026372 0.0074731 0.021435 
0.026375 -0.0074739 0.018793 
0.00015178 0.031777 -0.018793 
-0.00015176 0.031774 -0.021435 
-0.00015178 0.031777 -0.018793 
0.00015176 0.031774 -0.021435 
-0.00015178 0.031778 0.0088196 
-0.00015178 0.031778 -0.011008 
-0.00015178 0.031778 0.011008 
-0.00015178 0.031778 -0.0088196 
0.025903 0.0073402 -0.029171 
0.025317 -0.0071742 -0.030461 
0.025903 -0.0073402 -0.029171 
0.025317 0.0071742 -0.030461 
0.026324 -0.0074597 -0.025506 
0.026324 0.0074597 -0.025506 
0.026362 0.0074704 -0.023395 
0.026362 -0.0074704 -0.023395 
0.026372 -0.0074731 -0.021435 
0.026372 0.0074731 -0.021435 
0.026375 0.0074739 -0.018793 
0.026375 -0.0074739 -0.018793 
0.026375 -0.0074741 0.015731 
0.026375 0.0074741 0.015731 
-0.026362 -0.0074704 -0.023395 
-0.026362 0.0074704 -0.023395 
-0.026362 -0.0074704 0.023395 
-0.026362 0.0074704 0.023395 
-0.026324 0.0074597 0.025506 
-0.026324 -0.0074597 0.025506 
-0.026372 0.0074731 0.021435 
-0.026372 -0.0074731 0.021435 
-0.026375 0.0074741 0.01316 
-0.026375 -0.0074741 0.01316 
-0.026375 -0.0074741 0.015731 
-0.026375 0.0074741 0.015731 
-0.026375 0.0074741 0.011008 
-0.026375 -0.0074741 0.011008 
0.0001517 0.031762 0.023395 
-0.0001517 0.031762 0.023395 
-0.00015149 0.031717 0.025506 
0.00015149 0.031717 0.025506 
-0.00015149 -0.031717 0.025506 
0.00014906 -0.031209 0.029171 
0.00015149 -0.031717 0.025506 
-0.00014906 -0.031209 0.029171 
0.0001517 -0.031762 0.023395 
-0.0001517 -0.031762 0.023395 
-0.023757 -0.006732 0.031493 
-0.025317 -0.0071742 0.030461 
-0.025317 0.0071742 0.030461 
-0.023757 0.006732 0.031493 
0.026375 0.0074741 -0.015731 
0.026375 -0.0074741 -0.015731 
0.026375 -0.0074741 0.011008 
-0.00015176 -0.031774 0.021435 
0.00015176 -0.031774 0.021435 
0.00015178 -0.031777 0.018793 
-0.00015178 -0.031777 0.018793 
-0.0001517 -0.031762 -0.023395 
0.0001517 -0.031762 -0.023395 
0.00015149 -0.031717 -0.025506 
-0.00015149 -0.031717 -0.025506 
0.00015176 -0.031774 -0.021435 
-0.00015176 -0.031774 -0.021435 
-0.026372 -0.0074731 -0.021435 
-0.026375 0.0074739 -0.018793 
-0.026372 0.0074731 -0.021435 
-0.026375 -0.0074739 -0.018793 
-0.026375 0.0074739 0.018793 
-0.026375 -0.0074739 0.018793 
-0.026375 0.0074741 -0.015731 
-0.026375 -0.0074741 -0.015731 
0.00015176 0.031774 0.021435 
0.00015178 0.031777 0.018793 
-0.00015178 0.031777 0.018793 
-0.00015176 0.031774 0.021435 
0.00015178 0.031778 -0.015731 
-0.00015178 0.031778 -0.015731 
0.014938 0.019882 0.011008 
0.014938 0.019882 -0.011008 
0.0093628 -0.024994 -0.01316 
0.0093628 -0.024994 -0.011008 
0.014938 -0.019882 -0.011008 
0.014938 -0.019882 -0.01316 
-0.025903 -0.0073402 0.029171 
-0.025903 0.0073402 0.029171 
-0.026375 0.0074741 -0.01316 
-0.026375 -0.0074741 -0.01316 
-0.0039891 0.029325 0.011008 
-0.0039891 0.029325 -0.011008 
-0.017584 0.0049828 -0.032005 
-0.018799 0.0053272 -0.031996 
-0.018799 -0.0053272 -0.031996 
-0.017584 -0.0049828 -0.032005 
-0.0001517 0.031762 -0.023395 
0.0001517 0.031762 -0.023395 
0.00015149 0.031717 -0.025506 
-0.00015149 0.031717 -0.025506 
0.00015178 0.031778 -0.01316 
-0.00015178 0.031778 -0.01316 
0.0093628 0.024994 0.0088196 
0.0093628 0.024994 -0.0088196 
0.0093628 0.024994 0.01316 
0.0093628 0.024994 0.011008 
0.014938 0.019882 0.01316 
0.00015178 -0.031778 0.0088196 
0.0039891 -0.029325 0.011008 
0.0039891 -0.029325 -0.011008 
0.00015178 -0.031778 -0.011008 
-0.00015178 -0.031777 -0.018793 
0.00015178 -0.031777 -0.018793 
0.00015178 -0.031778 -0.015731 
-0.00015178 -0.031778 -0.015731 
0.026375 -0.0074741 0.01316 
0.026375 0.0074741 0.01316 
0.016253 0.0046057 0.032007 
0.016253 -0.0046057 0.032007 
0.017584 -0.0049828 0.032005 
0.017584 0.0049828 0.032005 
-0.020563 -0.014147 0.0088196 
-0.026375 -0.0074741 -0.011008 
-0.020563 -0.014147 -0.0088196 
-0.020563 0.014147 0.0088196 
-0.020563 0.014147 -0.0088196 
-0.014938 0.019882 0.011008 
-0.014938 0.019882 -0.011008 
-0.026375 0.0074741 -0.011008 
-0.0093628 0.024994 -0.011008 
-0.014938 0.019882 -0.01316 
-0.0093628 0.024994 -0.01316 
-0.0093628 0.024994 0.0088196 
-0.0093628 0.024994 -0.0088196 
0.00080932 0.016262 -0.032008 
0.0006886 0.013713 -0.032009 
-0.0006886 0.013713 -0.032009 
-0.00080932 0.016262 -0.032008 
-0.017584 -0.0049828 0.032005 
-0.018799 -0.0053272 0.031996 
-0.018799 0.0053272 0.031996 
-0.017584 0.0049828 0.032005 
0.0093628 0.024994 -0.011008 
0.014938 0.019882 -0.01316 
0.0093628 0.024994 -0.01316 
0.0082222 -0.00233 -0.032009 
-0.0032883 -0.0087783 -0.032009 
-0.0082222 -0.00233 -0.032009 
0.00057809 -0.011173 -0.032009 
0.0032883 -0.0087783 -0.032009 
-0.0082222 0.00233 -0.032009 
0.0032883 0.0087783 -0.032009 
0.0082222 0.00233 -0.032009 
-0.00057809 -0.011173 -0.032009 
0.00057809 0.011173 -0.032009 
-0.00057809 0.011173 -0.032009 
-0.0032883 0.0087783 -0.032009 
-0.0093628 -0.024994 -0.011008 
-0.0093628 -0.024994 -0.01316 
-0.014938 -0.019882 -0.01316 
-0.014938 -0.019882 -0.011008 
-0.00015178 -0.031778 -0.011008 
-0.00015178 -0.031778 0.011008 
0.00015178 -0.031778 0.011008 
-0.00015178 -0.031778 -0.0088196 
0.0093628 -0.024994 0.011008 
0.0093628 -0.024994 0.01316 
0.014938 -0.019882 0.01316 
0.014938 -0.019882 0.011008 
0.0093628 -0.024994 -0.0088196 
0.0093628 -0.024994 0.0088196 
0.020563 -0.014147 -0.0088196 
0.020563 -0.014147 0.0088196 
-0.0093628 0.024994 0.011008 
-0.014938 0.019882 0.01316 
-0.0093628 0.024994 0.01316 
-0.00015178 -0.031778 0.01316 
0.00015178 -0.031778 0.01316 
-0.0039891 -0.029325 0.011008 
-0.0039891 -0.029325 -0.011008 
-0.014938 -0.019882 0.011008 
0.0082222 0.00233 0.032009 
-0.0082222 0.00233 0.032009 
-0.0032883 0.0087783 0.032009 
-0.0032883 -0.0087783 0.032009 
-0.00057809 -0.011173 0.032009 
-0.0082222 -0.00233 0.032009 
0.00057809 -0.011173 0.032009 
0.0032883 0.0087783 0.032009 
0.00057809 0.011173 0.032009 
-0.00057809 0.011173 0.032009 
0.0032883 -0.0087783 0.032009 
0.0082222 -0.00233 0.032009 
-0.0093628 -0.024994 0.0088196 
-0.0093628 -0.024994 -0.0088196 
-0.0093628 -0.024994 0.011008 
-0.014938 -0.019882 0.01316 
-0.0093628 -0.024994 0.01316 
3 545 548 22
3 0 22 548
3 0 66 22
3 9 563 562
3 552 553 10
3 552 10 9
3 552 9 562
3 119 547 545
3 549 547 119
3 549 119 40
3 330 10 553
3 330 553 169
3 551 169 553
3 55 0 548
3 141 66 0
3 154 155 27
3 154 2 353
3 331 10 330
3 17 563 9
3 60 22 66
3 82 275 24
3 139 64 4
3 139 24 275
3 139 4 24
3 299 560 558
3 299 558 250
3 8 111 46
3 588 8 586
3 120 40 119
3 145 551 554
3 261 551 145
3 62 68 91
3 62 91 90
3 63 4 64
3 53 36 33
3 143 141 0
3 143 0 55
3 69 68 62
3 153 148 155
3 28 602 660
3 28 660 624
3 28 27 155
3 601 602 148
3 31 30 2
3 15 14 615
3 16 614 353
3 16 353 2
3 16 615 614
3 16 15 615
3 16 2 30
3 1 154 27
3 1 2 154
3 1 31 2
3 1 27 26
3 1 26 31
3 420 147 422
3 19 3 20
3 19 79 78
3 19 78 3
3 12 57 86
3 59 20 3
3 59 12 20
3 59 3 60
3 117 3 78
3 117 60 3
3 87 12 86
3 87 20 12
3 25 625 82
3 25 624 625
3 25 28 624
3 29 24 4
3 29 4 63
3 29 31 26
3 573 101 6
3 573 6 574
3 96 587 105
3 96 105 32
3 180 32 195
3 471 32 180
3 100 101 573
3 100 573 597
3 569 389 568
3 593 185 97
3 189 6 101
3 54 546 550
3 54 550 5
3 54 548 546
3 54 5 36
3 54 36 53
3 54 55 548
3 35 550 556
3 35 5 550
3 35 556 574
3 35 574 6
3 35 36 5
3 35 6 189
3 99 14 33
3 99 615 14
3 106 8 46
3 106 38 8
3 104 126 417
3 104 105 587
3 37 126 104
3 196 195 32
3 196 32 105
3 585 586 8
3 585 8 38
3 585 38 37
3 585 104 587
3 585 37 104
3 591 39 588
3 7 588 39
3 7 8 588
3 7 39 111
3 7 111 8
3 209 39 201
3 636 427 635
3 110 46 111
3 112 428 110
3 112 635 427
3 112 427 428
3 50 17 9
3 424 636 133
3 424 133 49
3 424 49 223
3 47 9 10
3 47 10 331
3 47 50 9
3 47 223 49
3 47 49 50
3 135 578 577
3 11 14 94
3 11 33 14
3 11 53 33
3 52 94 91
3 52 11 94
3 52 53 11
3 137 67 692
3 137 57 12
3 137 12 59
3 137 66 67
3 232 90 63
3 71 161 258
3 71 561 564
3 71 564 161
3 71 554 561
3 71 145 554
3 662 345 695
3 662 646 345
3 236 695 345
3 236 696 695
3 152 148 153
3 13 155 148
3 13 28 155
3 13 148 602
3 13 602 28
3 604 601 148
3 613 353 614
3 246 650 649
3 93 94 14
3 93 14 15
3 93 16 30
3 93 15 16
3 485 642 484
3 482 563 17
3 482 50 483
3 482 17 50
3 48 668 433
3 666 667 169
3 18 79 19
3 18 19 20
3 18 87 79
3 18 20 87
3 21 119 545
3 21 117 119
3 21 545 22
3 21 22 60
3 21 60 117
3 116 117 78
3 77 88 76
3 281 76 88
3 274 82 625
3 280 177 76
3 280 76 281
3 23 82 24
3 23 25 82
3 23 24 29
3 23 29 26
3 23 26 27
3 23 27 28
3 23 28 25
3 231 286 84
3 341 231 84
3 85 86 57
3 85 57 56
3 85 341 84
3 92 29 63
3 92 63 90
3 92 93 30
3 92 30 31
3 92 31 29
3 584 587 96
3 584 96 589
3 183 32 471
3 183 96 32
3 288 579 576
3 390 654 566
3 390 566 568
3 390 568 389
3 102 100 597
3 689 102 597
3 689 565 102
3 590 589 185
3 590 185 593
3 594 97 294
3 594 593 97
3 594 294 293
3 188 33 36
3 188 99 33
3 103 189 101
3 34 36 35
3 34 35 189
3 34 188 36
3 34 189 188
3 107 126 37
3 107 125 126
3 107 38 106
3 107 37 38
3 592 201 39
3 592 39 591
3 592 595 201
3 109 111 39
3 109 39 209
3 124 40 120
3 124 120 43
3 124 555 549
3 124 549 40
3 124 572 555
3 414 657 658
3 634 112 113
3 634 635 112
3 685 637 207
3 685 207 212
3 114 207 637
3 114 206 207
3 114 634 113
3 114 637 634
3 214 123 42
3 214 42 314
3 41 121 174
3 41 620 204
3 41 618 620
3 41 617 618
3 41 174 617
3 118 174 121
3 312 41 204
3 312 121 41
3 312 43 120
3 312 120 121
3 313 314 42
3 313 42 123
3 313 43 312
3 313 124 43
3 45 46 110
3 45 110 428
3 45 428 429
3 220 73 219
3 220 131 73
3 220 300 130
3 220 130 131
3 430 127 429
3 44 429 127
3 44 127 106
3 44 45 429
3 44 106 46
3 44 46 45
3 197 301 302
3 333 229 334
3 222 331 334
3 222 47 331
3 222 223 47
3 224 330 169
3 225 48 433
3 225 667 668
3 225 668 48
3 225 169 667
3 225 224 169
3 487 49 133
3 487 134 488
3 487 483 50
3 487 50 49
3 356 581 674
3 72 652 578
3 72 578 135
3 72 674 652
3 72 356 674
3 51 53 52
3 51 55 54
3 51 54 53
3 51 68 143
3 51 143 55
3 51 91 68
3 51 52 91
3 340 56 57
3 340 57 137
3 340 85 56
3 340 341 85
3 58 66 137
3 58 137 59
3 58 60 66
3 58 59 60
3 61 90 232
3 61 232 69
3 61 62 90
3 61 69 62
3 233 63 64
3 233 232 63
3 233 64 139
3 65 141 235
3 65 235 693
3 65 66 141
3 65 67 66
3 65 692 67
3 65 693 692
3 142 68 69
3 142 143 68
3 234 69 232
3 234 142 69
3 234 235 142
3 598 563 482
3 70 257 256
3 70 146 257
3 70 256 179
3 70 147 146
3 70 179 422
3 70 422 147
3 259 71 258
3 259 257 146
3 259 145 71
3 600 238 603
3 600 605 238
3 237 603 238
3 239 238 605
3 239 605 644
3 699 355 747
3 156 165 157
3 156 158 165
3 160 157 165
3 640 162 157
3 640 160 641
3 640 157 160
3 248 246 649
3 612 615 99
3 251 299 250
3 251 193 299
3 251 649 648
3 253 356 72
3 253 135 158
3 253 72 135
3 163 165 158
3 163 158 135
3 344 646 642
3 344 642 485
3 344 345 646
3 338 74 73
3 338 131 336
3 338 73 131
3 338 433 74
3 361 261 168
3 167 168 147
3 167 147 420
3 167 420 374
3 217 359 367
3 217 74 359
3 217 73 74
3 217 219 73
3 166 359 74
3 166 433 668
3 166 74 433
3 175 116 78
3 175 174 118
3 175 118 116
3 80 88 77
3 80 79 87
3 80 87 88
3 80 178 81
3 75 177 178
3 75 76 177
3 75 77 76
3 75 178 80
3 75 80 77
3 176 78 79
3 176 79 80
3 176 80 81
3 176 175 78
3 173 524 619
3 173 176 81
3 347 524 173
3 347 178 348
3 347 81 178
3 347 173 81
3 622 274 625
3 622 279 274
3 273 275 82
3 273 82 274
3 171 282 281
3 171 281 88
3 171 88 170
3 83 84 286
3 83 286 170
3 83 85 84
3 83 86 85
3 83 87 86
3 83 88 87
3 83 170 88
3 89 90 91
3 89 92 90
3 89 93 92
3 89 91 94
3 89 94 93
3 305 180 195
3 181 179 256
3 181 256 291
3 181 671 469
3 95 183 185
3 95 96 183
3 95 185 589
3 95 589 96
3 296 289 288
3 184 289 296
3 184 294 97
3 184 97 185
3 472 183 471
3 472 289 184
3 297 288 576
3 186 565 567
3 186 102 565
3 626 594 293
3 626 389 569
3 626 293 389
3 194 193 251
3 194 251 648
3 98 99 188
3 98 188 190
3 98 612 99
3 98 190 612
3 679 102 186
3 192 101 100
3 192 103 101
3 192 100 102
3 192 102 679
3 191 189 103
3 191 103 192
3 398 130 300
3 398 301 130
3 416 104 417
3 416 105 104
3 416 196 105
3 416 321 196
3 410 107 106
3 410 127 408
3 410 106 127
3 406 125 107
3 406 107 410
3 409 335 198
3 202 595 627
3 309 203 631
3 213 214 314
3 213 203 412
3 629 495 632
3 315 630 631
3 315 631 203
3 315 213 314
3 315 203 213
3 413 682 683
3 211 212 207
3 211 413 212
3 108 109 209
3 108 209 206
3 108 110 111
3 108 111 109
3 108 113 112
3 108 112 110
3 108 114 113
3 108 206 114
3 686 685 212
3 316 134 638
3 316 488 134
3 316 489 488
3 633 638 134
3 633 133 636
3 740 214 213
3 215 123 214
3 215 596 575
3 215 575 123
3 115 117 116
3 115 116 118
3 115 119 117
3 115 120 119
3 115 121 120
3 115 118 121
3 122 313 123
3 122 124 313
3 122 572 124
3 122 575 572
3 122 123 575
3 719 367 720
3 218 367 719
3 218 719 726
3 218 726 220
3 496 417 325
3 308 307 302
3 308 126 125
3 308 125 406
3 324 417 126
3 324 325 417
3 324 126 308
3 230 127 430
3 230 409 407
3 230 408 127
3 230 407 408
3 327 334 229
3 327 229 230
3 327 230 430
3 128 302 307
3 128 307 197
3 128 197 302
3 129 301 197
3 129 130 301
3 129 197 198
3 129 336 131
3 129 131 130
3 129 335 336
3 129 198 335
3 132 487 133
3 132 134 487
3 132 133 633
3 132 633 134
3 664 581 356
3 664 583 581
3 292 135 577
3 292 163 135
3 136 137 692
3 136 692 340
3 136 340 137
3 384 438 436
3 138 693 235
3 138 442 693
3 138 235 442
3 691 340 692
3 276 233 139
3 276 139 275
3 140 235 141
3 140 142 235
3 140 141 143
3 140 143 142
3 343 234 232
3 639 484 642
3 639 482 484
3 639 598 482
3 144 145 259
3 144 259 146
3 144 168 261
3 144 261 145
3 144 147 168
3 144 146 147
3 270 603 237
3 733 696 236
3 349 644 608
3 150 148 152
3 150 152 149
3 150 604 148
3 241 149 244
3 151 244 149
3 151 149 152
3 643 241 609
3 643 149 241
3 643 604 150
3 643 150 149
3 243 245 246
3 243 244 151
3 243 152 245
3 243 151 152
3 352 152 153
3 352 245 152
3 352 155 154
3 352 153 155
3 352 154 353
3 252 162 451
3 252 156 157
3 252 157 162
3 252 158 156
3 252 253 158
3 159 165 164
3 159 160 165
3 159 258 161
3 159 164 258
3 159 564 599
3 159 161 564
3 159 599 641
3 159 641 160
3 645 162 640
3 645 451 162
3 249 248 649
3 249 649 251
3 647 612 190
3 647 190 194
3 647 194 648
3 704 356 253
3 255 290 291
3 255 292 290
3 255 163 292
3 255 258 164
3 255 164 165
3 255 165 163
3 379 267 366
3 358 359 166
3 358 166 668
3 375 167 374
3 375 361 168
3 375 168 167
3 262 551 261
3 262 365 666
3 262 169 551
3 262 666 169
3 724 727 266
3 724 266 725
3 395 266 394
3 395 725 266
3 721 220 726
3 721 300 220
3 723 720 367
3 263 267 710
3 263 710 709
3 287 170 286
3 287 282 171
3 287 171 170
3 172 619 617
3 172 173 619
3 172 617 174
3 172 174 175
3 172 175 176
3 172 176 173
3 272 279 622
3 272 278 279
3 272 177 280
3 272 280 278
3 271 491 348
3 271 270 491
3 271 177 272
3 271 178 177
3 271 348 178
3 712 274 279
3 712 713 274
3 285 286 231
3 285 284 385
3 304 179 181
3 304 181 469
3 304 422 179
3 470 471 180
3 470 180 305
3 470 304 469
3 470 305 304
3 672 181 291
3 672 671 181
3 391 296 288
3 391 288 297
3 295 294 184
3 295 184 296
3 182 183 472
3 182 472 184
3 182 185 183
3 182 184 185
3 392 559 557
3 392 391 297
3 392 557 676
3 651 297 576
3 653 186 567
3 653 679 186
3 187 188 189
3 187 189 191
3 187 190 188
3 187 194 190
3 187 191 194
3 298 191 192
3 298 192 679
3 298 299 193
3 298 193 194
3 298 194 191
3 399 455 303
3 419 305 195
3 419 321 421
3 419 195 196
3 419 196 321
3 306 197 307
3 306 198 197
3 306 409 198
3 210 658 211
3 199 414 658
3 199 658 210
3 199 210 202
3 199 570 571
3 199 571 414
3 199 627 570
3 199 202 627
3 200 209 201
3 200 208 209
3 200 201 595
3 200 595 202
3 200 210 208
3 200 202 210
3 736 681 412
3 750 412 203
3 750 203 309
3 750 736 412
3 346 318 473
3 346 316 318
3 346 489 316
3 311 630 315
3 311 620 630
3 311 204 620
3 311 312 204
3 205 207 206
3 205 211 207
3 205 209 208
3 205 206 209
3 205 208 210
3 205 210 211
3 655 656 413
3 655 413 211
3 655 211 658
3 317 212 413
3 317 686 212
3 317 413 683
3 739 740 213
3 739 213 412
3 319 740 741
3 320 214 740
3 320 215 214
3 320 740 319
3 320 596 215
3 320 319 628
3 216 217 367
3 216 367 218
3 216 219 217
3 216 220 219
3 216 218 220
3 478 421 321
3 454 373 532
3 221 308 302
3 323 303 455
3 323 302 303
3 323 221 302
3 323 324 308
3 323 308 221
3 326 334 327
3 326 222 334
3 326 424 223
3 326 223 222
3 227 229 333
3 227 333 332
3 329 225 228
3 329 228 332
3 329 224 225
3 329 330 224
3 432 228 225
3 432 337 228
3 432 225 433
3 226 335 409
3 226 337 335
3 226 227 332
3 226 332 228
3 226 228 337
3 226 229 227
3 226 230 229
3 226 409 230
3 537 436 438
3 439 231 341
3 514 758 284
3 514 231 439
3 514 285 231
3 514 284 285
3 277 382 233
3 277 233 276
3 277 276 505
3 383 343 232
3 383 233 382
3 383 232 233
3 441 235 234
3 441 234 343
3 441 442 235
3 659 603 270
3 659 270 623
3 732 236 345
3 732 733 236
3 490 237 238
3 490 238 445
3 490 491 270
3 490 270 237
3 448 238 239
3 448 445 238
3 350 239 644
3 350 644 349
3 350 447 448
3 350 448 239
3 542 608 607
3 542 349 608
3 542 607 611
3 240 244 747
3 240 241 244
3 240 747 355
3 240 610 606
3 240 355 610
3 240 606 609
3 240 609 241
3 242 452 748
3 242 248 452
3 242 244 243
3 242 246 248
3 242 243 246
3 242 747 244
3 242 748 747
3 354 246 245
3 354 245 352
3 354 613 650
3 354 650 246
3 661 451 645
3 663 452 582
3 663 582 580
3 247 582 452
3 247 452 248
3 247 248 249
3 247 558 582
3 247 250 558
3 247 251 250
3 247 249 251
3 703 253 252
3 703 704 253
3 703 252 451
3 706 664 356
3 254 255 291
3 254 291 256
3 254 256 257
3 254 258 255
3 254 259 258
3 254 257 259
3 360 267 263
3 360 263 370
3 360 366 267
3 360 358 366
3 363 380 379
3 363 366 365
3 665 366 358
3 665 666 365
3 665 358 668
3 260 261 361
3 260 262 261
3 260 361 365
3 260 365 262
3 322 265 373
3 322 264 265
3 322 373 454
3 322 394 266
3 322 266 264
3 371 370 263
3 371 263 709
3 708 727 709
3 708 265 264
3 708 373 265
3 708 266 727
3 708 264 266
3 378 710 267
3 378 267 379
3 378 527 528
3 268 466 282
3 268 282 287
3 268 287 466
3 757 339 758
3 269 622 623
3 269 623 270
3 269 270 271
3 269 272 622
3 269 271 272
3 463 273 274
3 463 274 713
3 463 275 273
3 463 276 275
3 463 505 276
3 463 713 714
3 463 714 462
3 504 382 277
3 504 277 505
3 465 279 278
3 465 712 279
3 465 278 280
3 465 281 282
3 465 280 281
3 465 282 466
3 283 385 284
3 283 459 385
3 283 758 339
3 283 284 758
3 283 339 459
3 386 286 285
3 386 285 385
3 386 287 286
3 386 466 287
3 387 579 288
3 387 670 579
3 387 288 289
3 387 289 472
3 669 291 290
3 669 672 291
3 669 292 577
3 669 290 292
3 388 389 293
3 388 293 294
3 388 294 295
3 388 296 391
3 388 295 296
3 717 391 392
3 673 392 297
3 673 297 651
3 673 559 392
3 673 581 559
3 673 674 581
3 675 678 653
3 675 560 299
3 675 299 678
3 677 298 679
3 677 678 299
3 677 299 298
3 403 398 300
3 403 300 402
3 401 721 722
3 401 300 721
3 401 402 300
3 397 301 398
3 397 302 301
3 397 399 303
3 397 303 302
3 418 422 304
3 418 304 305
3 418 305 419
3 405 306 307
3 405 307 308
3 405 308 406
3 405 409 306
3 680 681 736
3 474 632 495
3 474 495 494
3 474 494 544
3 474 631 632
3 474 309 631
3 474 750 309
3 731 346 473
3 731 732 346
3 310 312 311
3 310 314 313
3 310 313 312
3 310 315 314
3 310 311 315
3 684 316 638
3 684 318 316
3 684 687 318
3 411 687 686
3 411 686 317
3 411 317 683
3 411 473 318
3 411 318 687
3 743 412 681
3 745 319 741
3 745 628 319
3 688 596 320
3 688 320 628
3 453 478 321
3 453 321 416
3 476 421 478
3 393 455 399
3 393 454 455
3 393 394 322
3 393 322 454
3 456 323 455
3 456 325 324
3 456 324 323
3 456 496 325
3 456 457 496
3 426 424 326
3 426 326 327
3 426 327 430
3 328 330 329
3 328 331 330
3 328 332 333
3 328 329 332
3 328 334 331
3 328 333 334
3 434 336 335
3 434 335 337
3 434 337 432
3 434 338 336
3 434 433 338
3 435 510 442
3 435 384 436
3 690 693 442
3 690 442 510
3 690 510 511
3 690 511 479
3 690 479 691
3 458 339 757
3 458 459 339
3 342 691 479
3 342 340 691
3 342 341 340
3 342 439 341
3 515 439 342
3 515 342 479
3 760 758 514
3 443 343 383
3 443 441 343
3 443 383 384
3 443 435 442
3 443 384 435
3 444 345 344
3 444 732 345
3 444 344 485
3 444 489 346
3 444 346 732
3 492 524 347
3 492 348 491
3 492 347 348
3 446 629 621
3 446 621 522
3 446 495 629
3 446 449 495
3 541 349 542
3 541 447 350
3 541 350 349
3 351 352 353
3 351 354 352
3 351 353 613
3 351 613 354
3 697 610 355
3 697 355 699
3 701 451 661
3 702 700 706
3 702 356 704
3 702 706 356
3 705 452 663
3 357 359 358
3 357 358 360
3 357 367 359
3 357 369 367
3 357 370 369
3 357 360 370
3 376 380 363
3 376 361 375
3 376 365 361
3 376 363 365
3 362 379 366
3 362 366 363
3 362 363 379
3 364 365 366
3 364 366 665
3 364 665 365
3 728 709 727
3 372 367 369
3 372 723 367
3 368 369 370
3 368 370 371
3 368 372 369
3 368 371 709
3 368 729 723
3 368 723 372
3 368 728 729
3 368 709 728
3 707 373 708
3 707 532 373
3 707 528 532
3 707 710 378
3 707 378 528
3 477 374 420
3 477 375 374
3 477 380 376
3 477 376 375
3 377 378 379
3 377 527 378
3 377 379 380
3 377 380 477
3 377 477 527
3 381 382 504
3 381 383 382
3 381 384 383
3 381 504 461
3 381 438 384
3 381 461 438
3 460 499 466
3 460 385 459
3 460 386 385
3 460 466 386
3 498 714 499
3 711 712 465
3 711 499 714
3 711 466 499
3 468 670 387
3 468 387 472
3 716 389 388
3 716 654 390
3 716 390 389
3 716 388 391
3 716 391 717
3 715 676 654
3 715 392 676
3 715 717 392
3 400 394 393
3 400 393 399
3 400 395 394
3 400 725 395
3 718 725 400
3 718 400 401
3 718 401 722
3 396 397 398
3 396 399 397
3 396 400 399
3 396 401 400
3 396 402 401
3 396 398 403
3 396 403 402
3 404 405 406
3 404 408 407
3 404 407 409
3 404 409 405
3 404 410 408
3 404 406 410
3 730 767 733
3 730 473 767
3 730 731 473
3 734 411 683
3 734 473 411
3 738 743 741
3 738 739 412
3 738 412 743
3 742 656 657
3 742 682 413
3 742 413 656
3 744 414 571
3 744 657 414
3 415 416 417
3 415 453 416
3 415 417 496
3 415 496 453
3 475 418 419
3 475 477 420
3 475 419 421
3 475 421 476
3 475 420 422
3 475 422 418
3 423 426 427
3 423 424 426
3 423 427 636
3 423 636 424
3 425 427 426
3 425 428 427
3 425 429 428
3 425 430 429
3 425 426 430
3 431 432 433
3 431 433 434
3 431 434 432
3 509 510 435
3 509 435 436
3 509 436 537
3 759 458 757
3 519 537 438
3 517 458 759
3 437 501 502
3 437 461 501
3 437 438 461
3 437 502 480
3 437 519 438
3 437 480 519
3 513 514 439
3 513 439 515
3 440 442 441
3 440 443 442
3 440 441 443
3 486 444 485
3 486 489 444
3 521 445 448
3 521 448 449
3 521 490 445
3 521 446 522
3 521 449 446
3 543 611 694
3 543 542 611
3 493 447 541
3 493 448 447
3 493 449 448
3 493 495 449
3 450 701 698
3 450 451 701
3 450 698 700
3 450 700 703
3 450 703 451
3 746 748 452
3 746 452 705
3 746 705 699
3 508 453 496
3 508 478 453
3 531 454 532
3 531 455 454
3 531 457 456
3 531 456 455
3 531 496 457
3 500 459 458
3 500 460 459
3 500 499 460
3 500 458 517
3 506 461 504
3 506 501 461
3 506 498 501
3 506 462 714
3 506 714 498
3 506 505 463
3 506 463 462
3 464 465 466
3 464 466 711
3 464 711 465
3 467 671 670
3 467 670 468
3 467 469 671
3 467 470 469
3 467 471 470
3 467 472 471
3 467 468 472
3 752 767 473
3 752 473 734
3 752 734 737
3 749 474 544
3 749 544 735
3 749 750 474
3 751 735 544
3 507 475 476
3 507 477 475
3 507 476 478
3 507 478 508
3 507 527 477
3 535 509 537
3 539 515 479
3 539 479 511
3 539 760 514
3 761 536 537
3 761 537 762
3 763 762 537
3 763 537 519
3 518 480 502
3 518 502 517
3 518 519 480
3 755 756 517
3 755 517 759
3 481 482 483
3 481 484 482
3 481 485 484
3 481 486 485
3 481 483 487
3 481 487 488
3 481 488 489
3 481 489 486
3 523 490 521
3 523 491 490
3 523 492 491
3 523 524 492
3 753 543 694
3 540 493 541
3 540 544 494
3 540 494 495
3 540 495 493
3 529 508 496
3 529 496 531
3 529 531 530
3 497 498 499
3 497 499 500
3 497 501 498
3 497 500 517
3 497 502 501
3 497 517 502
3 503 504 505
3 503 505 506
3 503 506 504
3 526 527 507
3 526 507 508
3 526 508 529
3 534 509 535
3 534 511 510
3 534 510 509
3 538 539 511
3 538 511 534
3 538 536 761
3 512 514 513
3 512 539 514
3 512 513 515
3 512 515 539
3 516 517 756
3 516 518 517
3 516 756 763
3 516 763 519
3 516 519 518
3 520 521 522
3 520 523 521
3 520 524 523
3 520 616 619
3 520 619 524
3 520 621 616
3 520 522 621
3 770 544 540
3 525 527 526
3 525 528 527
3 525 529 530
3 525 526 529
3 525 530 531
3 525 532 528
3 525 531 532
3 533 534 535
3 533 537 536
3 533 535 537
3 533 536 538
3 533 538 534
3 764 760 539
3 764 539 765
3 754 539 538
3 754 765 539
3 754 538 761
3 766 751 544
3 769 540 541
3 769 770 540
3 769 541 542
3 769 542 543
3 769 543 753
3 768 753 766
3 768 544 770
3 768 766 544
3 545 547 546
3 545 546 548
3 549 546 547
3 549 550 546
3 551 553 552
3 551 552 554
3 555 550 549
3 555 556 550
3 557 559 558
3 557 558 560
3 561 554 552
3 561 552 562
3 561 562 563
3 561 563 564
3 565 566 567
3 565 568 566
3 569 571 570
3 569 568 571
3 572 573 574
3 572 575 573
3 572 556 555
3 572 574 556
3 576 577 578
3 576 579 577
3 580 558 559
3 580 559 581
3 580 582 558
3 580 581 583
3 584 586 585
3 584 585 587
3 584 588 586
3 584 589 588
3 590 588 589
3 590 591 588
3 592 591 590
3 592 590 593
3 592 593 594
3 592 594 595
3 596 573 575
3 596 597 573
3 598 564 563
3 598 599 564
3 600 602 601
3 600 603 602
3 600 604 605
3 600 601 604
3 606 607 608
3 606 608 609
3 606 610 611
3 606 611 607
3 612 613 614
3 612 614 615
3 616 618 617
3 616 617 619
3 616 620 618
3 616 621 620
3 622 624 623
3 622 625 624
3 626 569 570
3 626 570 627
3 626 595 594
3 626 627 595
3 628 568 565
3 628 571 568
3 629 631 630
3 629 632 631
3 629 620 621
3 629 630 620
3 633 635 634
3 633 636 635
3 633 634 637
3 633 637 638
3 639 640 641
3 639 642 640
3 639 599 598
3 639 641 599
3 643 609 608
3 643 608 644
3 643 605 604
3 643 644 605
3 645 640 642
3 645 642 646
3 647 648 649
3 647 649 650
3 647 613 612
3 647 650 613
3 651 576 578
3 651 578 652
3 653 567 566
3 653 566 654
3 655 657 656
3 655 658 657
3 659 602 603
3 659 660 602
3 659 623 624
3 659 624 660
3 661 645 646
3 661 646 662
3 663 580 583
3 663 583 664
3 665 667 666
3 665 668 667
3 669 577 579
3 669 579 670
3 669 670 671
3 669 671 672
3 673 651 652
3 673 652 674
3 675 653 654
3 675 654 676
3 675 557 560
3 675 676 557
3 677 653 678
3 677 679 653
3 680 682 681
3 680 683 682
3 684 638 637
3 684 637 685
3 684 685 686
3 684 686 687
3 688 597 596
3 688 689 597
3 688 628 565
3 688 565 689
3 690 691 692
3 690 692 693
3 694 611 695
3 694 695 696
3 697 699 700
3 697 700 698
3 701 697 698
3 701 610 697
3 701 695 611
3 701 611 610
3 701 661 662
3 701 662 695
3 702 704 703
3 702 703 700
3 705 663 664
3 705 664 706
3 705 700 699
3 705 706 700
3 707 708 709
3 707 709 710
3 711 713 712
3 711 714 713
3 715 716 717
3 715 654 716
3 718 719 720
3 718 722 721
3 718 720 723
3 718 724 725
3 718 726 719
3 718 727 724
3 718 721 726
3 718 729 728
3 718 723 729
3 718 728 727
3 730 732 731
3 730 733 732
3 734 683 680
3 734 736 735
3 734 680 736
3 734 735 737
3 738 740 739
3 738 741 740
3 742 741 743
3 742 657 741
3 742 681 682
3 742 743 681
3 744 571 628
3 744 628 745
3 744 741 657
3 744 745 741
3 746 699 747
3 746 747 748
3 749 735 736
3 749 736 750
3 751 737 735
3 751 752 737
3 753 694 696
3 753 696 733
3 754 756 755
3 754 757 758
3 754 759 757
3 754 758 760
3 754 761 762
3 754 762 763
3 754 755 759
3 754 763 756
3 754 764 765
3 754 760 764
3 766 753 733
3 766 733 767
3 766 752 751
3 766 767 752
3 768 770 769
3 768 769 753
